<svg width="32" height="32" viewBox="0 0 32 32" fill="none" xmlns="http://www.w3.org/2000/svg">
<path d="M11.306 12.1683C11.4468 11.3507 12.0823 10.7894 12.7266 10.9257C13.3687 11.0573 13.78 11.8357 13.6392 12.6557C13.5007 13.478 12.8652 14.0323 12.2252 13.9029C11.5809 13.7667 11.1675 12.9929 11.306 12.1683ZM18.0352 14.5705C17.3842 14.5889 16.8411 13.9353 16.8323 13.0992C16.8213 12.2653 17.3468 11.5678 18.0022 11.5493C18.6597 11.5216 19.1985 12.1845 19.2095 13.0183C19.2205 13.8521 18.6927 14.5497 18.0352 14.5705Z" fill="#2F2F2F"/>
<path d="M28.7711 23.7399C27.942 23.9871 27.157 24.3659 26.2774 24.322C25.4461 24.2804 24.6874 23.8808 24.0387 23.3588C23.7748 23.1463 23.2888 22.8299 23.1877 22.4742C23.0777 22.0908 23.4274 21.8505 23.7176 21.7351C24.1355 21.5688 24.5445 21.3909 24.9403 21.1738C25.737 20.737 26.472 20.1858 27.124 19.5362C28.8173 17.857 29.9124 15.5334 29.9938 13.0735C30.0334 11.914 29.8794 10.7106 29.6683 9.5742C29.4572 8.4355 29.024 7.34298 28.4192 6.37288C27.8871 5.52059 27.1438 4.9085 27.3835 3.74208C27.4736 3.31246 27.6716 3.21314 27.5352 2.71885C27.4341 2.36084 27.3197 2.12756 26.9327 2.08598C26.7765 2.06728 26.6186 2.07351 26.4643 2.10446C25.6484 2.28231 25.2922 3.20852 25.2768 4.10009C25.257 5.52521 25.9387 6.7309 26.3191 8.05208C26.6886 9.33861 26.9591 10.7245 26.7963 12.071C26.6402 13.3483 26.0948 14.6487 25.3581 15.6696C24.9733 16.2055 24.4675 16.7437 23.9024 17.0694C23.0447 17.5636 22.8578 17.0832 23.3548 16.3487C24.1553 15.1777 24.3818 13.7087 24.5093 12.3066C24.7336 9.84444 24.3444 7.13048 22.772 5.19491C22.1277 4.40035 21.1909 3.52727 20.2937 3.06301C18.1364 1.95433 15.1875 1.52933 12.9708 2.69114C11.3171 3.55499 9.91191 4.98472 9.10486 6.71242C8.54849 7.89963 8.09329 9.32013 7.92176 10.639C7.74583 11.9833 7.85799 13.3691 8.21424 14.6695C8.5375 15.8452 9.10926 16.582 9.72939 17.5752C9.9559 17.9401 9.74918 18.0418 9.38194 17.9101C9.14444 17.8246 8.90254 17.6976 8.68484 17.5683C8.24062 17.298 7.86019 16.9238 7.50614 16.5358C6.92998 15.9052 6.50556 15.1269 6.19989 14.3184C5.90302 13.5285 5.7095 12.6831 5.67871 11.8331C5.63473 10.5466 5.82605 9.27625 6.1801 8.05439C6.35823 7.43306 6.51216 6.79557 6.60232 6.16963C6.63311 5.96406 6.69468 5.7839 6.69468 5.53906C6.69248 5.06325 6.69688 4.61054 6.60452 4.17631C6.46598 3.53651 6.23948 2.73964 5.68311 2.55948C5.48959 2.49712 5.25429 2.50867 4.96842 2.63108C4.46703 2.84589 4.49782 3.16695 4.59897 3.64969C4.69133 4.08623 4.72652 4.46272 4.61877 4.90157C4.51541 5.32195 4.36807 5.75387 4.16356 6.15346C3.594 7.2529 3.06403 8.33156 2.83093 9.5742C2.62201 10.7106 2.47028 11.914 2.50766 13.0735C2.63741 17.0393 5.32247 20.4416 8.79699 21.7397C8.50451 22.0492 8.19884 22.331 7.88658 22.5042C7.04653 22.9731 5.88323 22.8922 5.17293 22.2501C4.43184 21.5826 3.52583 20.7627 2.47908 20.8874C2.20639 20.9197 2.02167 21.1992 2.00188 21.4717C1.97329 21.8505 2.27676 22.1069 2.52526 22.3264C3.00905 22.756 3.54122 23.1486 3.98543 23.6175C4.64735 24.3151 5.2301 25.0865 6.13172 25.4468C7.8228 26.1213 9.17083 25.1789 10.6354 24.4375C10.9213 24.292 11.4161 24.2689 11.504 24.6661C11.7195 25.6339 10.6002 26.4724 10.0131 27.0221C9.62164 27.387 9.13125 27.6619 8.59907 27.6596C8.14606 27.6573 7.52593 27.5164 7.43577 28.1215C7.3544 28.6782 7.50394 29.1471 7.96354 29.4589C8.24062 29.646 8.57048 29.743 8.89375 29.7684C9.44571 29.8146 9.9471 29.8192 10.4705 29.6206C11.0906 29.385 11.6712 29.027 12.2363 28.6736C13.2017 28.0707 14.0154 27.26 14.8092 26.4308C15.4184 25.8002 16.1968 24.8694 17.0875 25.6039C18.1408 26.4724 18.5784 27.9483 19.6604 28.8422C20.584 29.6067 21.391 30.3089 22.6489 29.8585C23.0931 29.6991 23.7242 29.3572 23.8188 28.8422C23.9332 28.207 23.4032 28.1469 22.9678 28.0707C21.5824 27.8213 20.982 26.671 20.4916 25.3983C20.3575 25.0496 20.2673 24.1049 20.9138 24.3659C21.1579 24.4652 21.2899 24.8301 21.4482 25.0334C21.6571 25.3036 21.9144 25.5392 22.1761 25.7517C22.6995 26.1744 23.3042 26.537 23.9397 26.738C25.7012 27.2969 27.8673 26.6502 29.0328 25.1604C29.1889 24.9618 29.4858 24.5137 29.4946 24.2458C29.5078 23.8208 29.1119 23.6383 28.7711 23.7399Z" fill="url(#paint0_linear_328_7222)"/>
<path d="M15.9965 15.8123C15.6196 15.972 15.1873 16.0319 14.7594 15.9853C14.6463 15.9742 14.531 15.9543 14.418 15.9276C13.8305 15.7879 13.274 15.4553 12.9082 14.9231C12.7508 14.6969 12.6444 14.4574 12.5779 14.2157C12.5114 13.9629 12.4892 13.7079 12.5047 13.4595C12.5757 12.2354 13.5844 11.1887 14.8636 11.3506C16.0829 11.5058 17.0894 12.619 17.1626 13.8498C17.218 14.8632 16.7015 15.5152 15.9965 15.8123Z" fill="#BF4E47"/>
<path d="M15.9682 14.8315C15.5944 14.9978 15.1656 15.0602 14.7411 15.0117C14.629 15.0001 14.5146 14.9793 14.4025 14.9516C13.8197 14.8061 13.2678 14.4596 12.9049 13.9053C12.7488 13.6697 12.6432 13.4202 12.5773 13.1685C12.5113 12.9052 12.4893 12.6395 12.5047 12.3808C12.5751 11.1059 13.5756 10.0157 14.8445 10.1843C16.054 10.346 17.0524 11.5054 17.1249 12.7874C17.1799 13.8429 16.6675 14.522 15.9682 14.8315Z" fill="#EDACA8"/>
<path d="M14.827 11.2247C14.0111 11.1092 13.3998 12.0308 13.6153 12.9224C13.6505 13.0679 13.7076 13.2088 13.7912 13.3427C14.4311 14.3798 16.1222 14.1558 16.0475 12.7075C16.0101 11.9777 15.4735 11.3171 14.827 11.2247Z" fill="#2F2F2F"/>
<path d="M25.0704 20.194C24.9692 20.5058 24.6086 20.709 24.3447 20.7922C24.2084 20.8361 23.7444 20.9446 23.8521 20.6097C23.9555 20.2887 24.3557 20.0692 24.6328 19.9815C24.8109 19.9237 25.187 19.8429 25.0704 20.194ZM26.7417 18.2653C26.8187 18.2607 26.8912 18.2884 26.9286 18.3692C27.076 18.6764 26.6779 19.0853 26.4866 19.2331C26.0952 19.5357 25.7829 19.2077 26.093 18.7573C26.1743 18.6395 26.2579 18.5355 26.3657 18.4385C26.4448 18.3692 26.6054 18.2722 26.7417 18.2653ZM28.3448 16.9441C28.1997 17.3345 27.7863 17.7595 27.7005 17.4638C27.6345 17.2328 27.7621 16.9372 27.8808 16.757C27.9644 16.6369 28.1315 16.3759 28.2942 16.4891C28.4218 16.5746 28.4152 16.7547 28.3448 16.9441ZM29.1629 15.0963C29.1453 15.2164 29.1145 15.3319 29.0837 15.3943C29.0155 15.5282 28.7824 15.8424 28.6659 15.646C28.5537 15.4636 28.6241 15.1194 28.7121 14.9439C28.7736 14.8238 28.8396 14.7129 28.9386 14.6505C29.1651 14.5166 29.1981 14.8238 29.1629 15.0963ZM29.4729 13.0222C29.4861 13.1377 29.4839 13.2485 29.4663 13.3132C29.4334 13.4541 29.2926 13.8006 29.1431 13.6527C29.0045 13.5188 28.9935 13.1885 29.0375 13.0037C29.0661 12.879 29.1013 12.7612 29.1783 12.6803C29.3498 12.4979 29.4465 12.7681 29.4729 13.0222ZM29.5037 11.2829C29.5169 11.4215 29.5125 11.5509 29.5015 11.5901C29.4817 11.6825 29.4048 11.865 29.3168 11.8973C29.2003 11.9389 29.1497 11.7495 29.1365 11.6594C29.1211 11.5624 29.1321 11.4492 29.1321 11.3499C29.1343 11.2159 29.1805 10.9572 29.3278 10.9087C29.4399 10.8764 29.4861 11.0866 29.5037 11.2829ZM5.78021 18.9836C5.7956 19.3162 6.09028 19.6258 6.32778 19.7851C6.44872 19.8706 6.87314 20.1131 6.85995 19.7551C6.84456 19.4109 6.5125 19.076 6.2662 18.9074C6.10787 18.8012 5.76481 18.6072 5.78021 18.9836ZM4.50915 16.6208C4.42778 16.5907 4.34642 16.5977 4.28484 16.6693C4.04295 16.9418 4.33542 17.4915 4.49375 17.7087C4.81262 18.1475 5.23044 17.9073 5.03912 17.3414C4.98854 17.1913 4.93357 17.0573 4.8478 16.9233C4.79063 16.8217 4.64989 16.6716 4.50915 16.6208ZM3.22709 14.7383C3.26668 15.1887 3.57235 15.7638 3.74827 15.4821C3.88022 15.2626 3.83843 14.9185 3.76367 14.6898C3.71309 14.5374 3.61413 14.214 3.41181 14.281C3.25568 14.3295 3.2095 14.5189 3.22709 14.7383ZM2.91263 12.5556C2.89723 12.6873 2.89284 12.8166 2.90823 12.8905C2.93902 13.0522 3.09075 13.4518 3.26888 13.2878C3.4404 13.1353 3.46679 12.7542 3.42721 12.5464C3.39862 12.4008 3.36124 12.2646 3.27547 12.1699C3.07756 11.9551 2.95441 12.2623 2.91263 12.5556ZM3.19411 10.3059C3.14793 10.4214 3.11714 10.5369 3.11494 10.6108C3.10834 10.7678 3.15452 11.1697 3.35244 11.0681C3.53716 10.9734 3.64052 10.6339 3.65151 10.4306C3.65591 10.292 3.65591 10.1581 3.59874 10.0495C3.46899 9.80006 3.29087 10.0495 3.19411 10.3059ZM3.66251 8.49043C3.60973 8.63132 3.57455 8.7676 3.57455 8.81149C3.56795 8.91311 3.59434 9.13023 3.6779 9.19028C3.78786 9.26882 3.89341 9.09097 3.93519 9.00089C3.97917 8.90619 4.00116 8.78377 4.02975 8.67983C4.06714 8.54124 4.09133 8.25483 3.95059 8.16013C3.84723 8.08853 3.73728 8.29179 3.66251 8.49043ZM9.64177 24.4762C10.0596 24.3723 10.5566 23.9704 10.2685 23.8318C10.0442 23.7209 9.72313 23.818 9.52082 23.9265C9.38447 24.0004 9.092 24.1506 9.18436 24.3492C9.25473 24.504 9.43945 24.5271 9.64177 24.4762ZM8.12881 25.0952C8.27395 25.0837 8.96665 24.9289 8.69617 24.6425C8.56422 24.504 8.24756 24.5987 8.09802 24.661C7.99687 24.7026 7.87592 24.7511 7.80994 24.8435C7.70439 24.9959 7.80775 25.1022 7.96608 25.0999C8.01666 25.0999 8.07163 25.0999 8.12881 25.0952ZM6.47731 25.0768C6.52789 25.0953 6.57187 25.1091 6.59826 25.116C6.72141 25.1484 7.14803 25.2777 7.214 25.1022C7.30856 24.862 6.83796 24.795 6.71261 24.7857C6.62025 24.7811 6.34317 24.7719 6.28819 24.8712C6.23541 24.9636 6.36736 25.0329 6.47731 25.0768ZM27.6103 25.7882C27.883 25.7466 28.2107 25.4995 28.2217 25.2616C28.2415 24.8019 27.6807 24.9821 27.4696 25.123C27.3354 25.213 27.2343 25.3516 27.2497 25.5272C27.2695 25.7489 27.4278 25.8159 27.6103 25.7882ZM26.2007 26.398C26.3766 26.398 26.5812 26.3033 26.7219 26.1947C26.9044 26.0515 26.8758 25.8575 26.6735 25.7628C26.5328 25.6958 26.3525 25.7443 26.2205 25.802C26.0842 25.8621 25.9214 25.9568 25.9083 26.1254C25.8907 26.3287 26.0292 26.398 26.2007 26.398ZM24.4701 26.4072C24.6416 26.5365 25.1276 26.5204 25.2441 26.458C25.442 26.3518 25.2727 26.1716 25.132 26.1162C24.9692 26.0515 24.7713 26.0653 24.6064 26.1115C24.547 26.13 24.4591 26.1577 24.4305 26.2201C24.3887 26.3033 24.4107 26.3633 24.4701 26.4072ZM8.27175 29.1743C8.1618 29.1027 8.01666 28.9618 8.04744 28.807C8.08483 28.6153 8.25855 28.5483 8.42788 28.5576C8.70936 28.5737 9.23054 28.9664 8.82811 29.2459C8.68957 29.3429 8.39929 29.2574 8.27175 29.1743ZM9.41306 29.4307C9.3965 29.4257 9.3811 29.4172 9.36784 29.4057C9.35459 29.3942 9.34378 29.3799 9.3361 29.3637C9.19316 29.0819 9.61758 29.1766 9.74292 29.2182C10.119 29.3452 9.91445 29.493 9.60658 29.4538C9.5494 29.4468 9.47464 29.4538 9.41306 29.4307ZM4.90498 3.5822C4.91378 3.47595 4.95776 3.38356 5.06551 3.36508C5.14248 3.35354 5.17327 3.37432 5.23484 3.43207C5.38218 3.57065 5.46794 3.80625 5.43715 4.01182C5.41296 4.1735 5.28762 4.30746 5.12928 4.22662C4.96216 4.14116 4.88959 3.76236 4.90498 3.5822ZM5.06551 4.88721C5.12049 4.81561 5.18426 4.78096 5.25903 4.82947C5.46574 4.97036 5.17766 5.51316 4.97975 5.51085C4.8588 5.50854 4.8654 5.43924 4.88739 5.33761C4.90278 5.25677 4.96655 5.01425 5.06551 4.88721ZM2.7433 21.9886C2.64654 21.7577 2.80047 21.5567 3.02478 21.5567C3.16552 21.5567 3.23809 21.596 3.34144 21.6861C3.42721 21.76 3.4558 21.8246 3.46899 21.9424C3.49318 22.1596 3.39202 22.3212 3.18091 22.2958C3.00499 22.275 2.82027 22.1572 2.7433 21.9886ZM3.73508 22.6284C3.6933 22.4737 3.73948 22.3282 3.95938 22.3651C4.12211 22.3928 4.24086 22.5661 4.26945 22.7301C4.30683 22.9564 4.13311 23.0211 3.95498 22.931C3.85603 22.8802 3.77026 22.7508 3.73508 22.6284ZM27.1309 3.3212C27.1199 3.21495 27.0738 3.12256 26.966 3.10639C26.889 3.09484 26.8582 3.11794 26.7967 3.17799C26.6515 3.3212 26.5702 3.55679 26.6054 3.76236C26.6317 3.92405 26.7615 4.0557 26.9176 3.97024C27.0847 3.88016 27.1507 3.50136 27.1309 3.3212ZM27.0188 4.62159C26.8846 4.48532 26.7835 4.65393 26.8187 4.85257C26.8407 4.98191 26.8824 5.12743 26.999 5.19441C27.1089 5.25677 27.2387 5.2383 27.2255 5.08123C27.2167 4.96112 27.1309 4.77865 27.065 4.67933C27.0474 4.65855 27.0342 4.63776 27.0188 4.62159ZM22.4513 29.5C22.5437 29.4745 22.6162 29.4422 22.6514 29.4053C22.7548 29.3013 22.8164 29.135 22.6492 29.0588C22.5041 28.9918 22.304 29.0195 22.1413 29.0565C22.0203 29.0842 21.774 29.172 21.8246 29.3429C21.884 29.5438 22.3128 29.5369 22.4513 29.5ZM21.0857 29.3637C21.1253 29.3729 21.1671 29.3729 21.2045 29.3498C21.5189 29.165 21.0373 28.9756 20.8878 28.9341C20.4348 28.8093 20.5491 29.0934 20.8812 29.2574C20.9406 29.2875 21.0131 29.3429 21.0857 29.3637Z" fill="#F1C8C6"/>
<path d="M11.3522 9.09605C11.4929 8.2784 12.1284 7.71713 12.7727 7.85341C13.4149 7.98506 13.8261 8.76345 13.6854 9.58341C13.5468 10.4057 12.8974 10.0754 12.2575 9.94604C11.6131 9.80977 11.2136 9.92064 11.3522 9.09605ZM18.0483 10.6457C17.3974 10.6641 16.8879 10.7497 16.8784 10.0269C16.8674 9.19306 17.393 8.49552 18.0483 8.47704C18.7058 8.44932 19.2446 9.11222 19.2556 9.94604C19.2666 10.7799 18.7058 10.6249 18.0483 10.6457Z" fill="#2F2F2F"/>
<defs>
<linearGradient id="paint0_linear_328_7222" x1="10.5" y1="4" x2="24" y2="33" gradientUnits="userSpaceOnUse">
<stop offset="0.138882" stop-color="#FF7E35"/>
<stop offset="1" stop-color="#FF2E00"/>
</linearGradient>
</defs>
</svg>
