<svg width="48" height="48" viewBox="0 0 48 48" fill="none" xmlns="http://www.w3.org/2000/svg">
<circle cx="24" cy="24" r="24" fill="#FFE53A"/>
<path d="M24 14C26.3504 14 28.5244 14.4381 30.5218 15.3143C32.5192 16.1904 34.0982 17.3819 35.2589 18.8885C36.4196 20.3952 37 22.0386 37 23.8187C37 25.5989 36.4196 27.2446 35.2589 28.7559C34.0982 30.2672 32.5216 31.4609 30.529 32.3371C28.5365 33.2133 26.3601 33.6514 24 33.6514C23.2552 33.6514 22.4862 33.6004 21.6931 33.4984C18.2496 35.7885 16.4167 36.9475 16.1942 36.9753C16.0878 37.0124 15.9862 37.0077 15.8895 36.9614C15.8508 36.9336 15.8218 36.8965 15.8025 36.8501C15.7831 36.8037 15.7734 36.762 15.7734 36.7249V36.6693C15.8315 36.3077 16.2716 34.8011 17.0937 32.1494C15.2269 31.2593 13.7446 30.0794 12.6468 28.6099C11.5489 27.1403 11 25.5433 11 23.8187C11 22.0386 11.5804 20.3952 12.7411 18.8885C13.9018 17.3819 15.4808 16.1904 17.4782 15.3143C19.4756 14.4381 21.6496 14 24 14ZM17.4129 26.4194V22.1498H18.5592C18.7139 22.1498 18.8759 22.0965 19.0452 21.9899C19.2145 21.8833 19.2991 21.7372 19.2991 21.5518C19.2991 21.3664 19.2217 21.2111 19.067 21.0859C18.9122 20.9607 18.7623 20.8981 18.6172 20.8981H14.8449C14.6804 20.8981 14.5257 20.9445 14.3806 21.0372C14.2355 21.1299 14.1629 21.2829 14.1629 21.4962C14.1629 21.7094 14.2403 21.8717 14.3951 21.9829C14.5499 22.0942 14.724 22.1498 14.9174 22.1498H16.0636V26.4194C16.0636 26.6512 16.1217 26.8413 16.2377 26.9897C16.3538 27.138 16.5182 27.2122 16.731 27.2122C16.9438 27.2122 17.1107 27.1287 17.2316 26.9618C17.3525 26.7949 17.4129 26.6141 17.4129 26.4194ZM23.6953 27.2122C24.0532 27.0824 24.1644 26.7532 24.029 26.2247C23.9903 26.1042 23.7171 25.3833 23.2093 24.0621C22.7015 22.7409 22.4089 21.9876 22.3315 21.8021C22.0703 21.1995 21.7124 20.8981 21.2578 20.8981C20.7645 20.8981 20.3824 21.1995 20.1116 21.8021C20.0342 21.9598 19.7392 22.727 19.2266 24.1038C18.7139 25.4807 18.4479 26.1877 18.4286 26.2247C18.3609 26.3082 18.3439 26.4612 18.3778 26.6837C18.4116 26.9062 18.5156 27.0592 18.6897 27.1426C18.8832 27.2261 19.0718 27.2354 19.2556 27.1705C19.4394 27.1055 19.5651 27.0082 19.6328 26.8784L19.981 25.9605H22.5056C22.612 26.2943 22.6894 26.5122 22.7377 26.6141C22.7861 26.7069 22.8393 26.7996 22.8973 26.8923C22.9554 26.985 23.0618 27.0754 23.2165 27.1635C23.3713 27.2516 23.5309 27.2678 23.6953 27.2122ZM27.5982 27.2122C27.8013 27.2122 27.9875 27.1519 28.1568 27.0314C28.3261 26.9108 28.4107 26.7486 28.4107 26.5446C28.4107 26.3406 28.3333 26.1807 28.1786 26.0648C28.0238 25.9489 27.8304 25.891 27.5982 25.891H25.9877V21.6909C25.9877 21.4962 25.9273 21.3154 25.8064 21.1485C25.6855 20.9816 25.5186 20.8981 25.3058 20.8981C25.093 20.8981 24.9286 20.9723 24.8125 21.1207C24.6964 21.269 24.6384 21.4591 24.6384 21.6909V26.4194C24.6384 26.6512 24.6964 26.8413 24.8125 26.9897C24.9286 27.138 25.093 27.2122 25.3058 27.2122C25.3155 27.2122 25.3324 27.2099 25.3566 27.2052C25.3808 27.2006 25.3977 27.1983 25.4074 27.1983C25.417 27.1983 25.434 27.2006 25.4581 27.2052C25.4823 27.2099 25.4993 27.2122 25.5089 27.2122H27.5982ZM33.3147 27.1148C33.4792 26.9665 33.5614 26.7973 33.5614 26.6072C33.5614 26.4171 33.4985 26.2479 33.3728 26.0996C33.3147 26.0161 32.7054 25.2327 31.5446 23.7492C32.1057 23.2022 32.6715 22.6551 33.2422 22.1081C33.3873 21.969 33.4767 21.8045 33.5106 21.6144C33.5445 21.4243 33.4888 21.2458 33.3437 21.0789C33.1793 20.9306 33.0028 20.8703 32.8142 20.8981C32.6256 20.926 32.449 21.0187 32.2846 21.1763C32.2556 21.2041 32.1298 21.327 31.9074 21.5448C31.6849 21.7627 31.3971 22.0432 31.0441 22.3863C30.691 22.7293 30.3791 23.0353 30.1083 23.3042V21.6909C30.1083 21.4962 30.0478 21.3154 29.9269 21.1485C29.806 20.9816 29.6391 20.8981 29.4263 20.8981C29.2135 20.8981 29.0491 20.9723 28.933 21.1207C28.817 21.269 28.7589 21.4591 28.7589 21.6909V26.4194C28.7589 26.6512 28.817 26.8413 28.933 26.9897C29.0491 27.138 29.2135 27.2122 29.4263 27.2122C29.6391 27.2122 29.806 27.1287 29.9269 26.9618C30.0478 26.7949 30.1083 26.6141 30.1083 26.4194V25.1539C30.1469 25.1168 30.2195 25.0449 30.3259 24.9383C30.4323 24.8317 30.5193 24.7459 30.5871 24.681C31.2254 25.5155 31.7961 26.2526 32.2991 26.8923C32.4345 27.0685 32.5917 27.182 32.7706 27.233C32.9496 27.284 33.131 27.2446 33.3147 27.1148ZM20.3728 24.7088L21.2578 22.2194L22.1283 24.7088H20.3728Z" fill="#434343"/>
</svg>
