<svg width="32" height="32" viewBox="0 0 32 32" fill="none" xmlns="http://www.w3.org/2000/svg">
<circle cx="16" cy="16" r="15" fill="url(#paint0_linear_328_7286)"/>
<circle cx="16" cy="16" r="12" fill="#DFF1EF"/>
<path d="M13.5781 16H12.5781V23.3998C12.9781 24.4868 13.4115 23.8527 13.5781 23.3998V16Z" fill="url(#paint1_linear_328_7286)" stroke="url(#paint2_linear_328_7286)"/>
<path d="M16.0783 12C16.5785 14.5 14.5783 16 13.0782 16C11.5781 16 9.57831 14 10.0783 12C10.5783 10 11.1452 8 13.0782 8C15.0112 8 15.5781 9.5 16.0783 12Z" fill="url(#paint3_linear_328_7286)"/>
<path d="M20 10V23.5" stroke="url(#paint4_linear_328_7286)" stroke-width="1.5" stroke-linecap="round"/>
<path d="M18 10V23.5" stroke="url(#paint5_linear_328_7286)" stroke-width="1.5" stroke-linecap="round"/>
<defs>
<linearGradient id="paint0_linear_328_7286" x1="16" y1="1" x2="16" y2="31" gradientUnits="userSpaceOnUse">
<stop stop-color="#CBDDDB"/>
<stop offset="1" stop-color="#9BC6C0"/>
</linearGradient>
<linearGradient id="paint1_linear_328_7286" x1="13.0781" y1="16" x2="13.0781" y2="24" gradientUnits="userSpaceOnUse">
<stop stop-color="#A3B6BA"/>
<stop offset="1" stop-color="#759BA4"/>
</linearGradient>
<linearGradient id="paint2_linear_328_7286" x1="13.0781" y1="16" x2="13.0781" y2="24" gradientUnits="userSpaceOnUse">
<stop stop-color="#9CB2B7"/>
<stop offset="1" stop-color="#7EAEB9"/>
</linearGradient>
<linearGradient id="paint3_linear_328_7286" x1="13.0783" y1="8" x2="13.0783" y2="16" gradientUnits="userSpaceOnUse">
<stop stop-color="#A3B6BA"/>
<stop offset="1" stop-color="#759BA4"/>
</linearGradient>
<linearGradient id="paint4_linear_328_7286" x1="20.5" y1="10" x2="20.5" y2="23.5" gradientUnits="userSpaceOnUse">
<stop stop-color="#BAC6C9"/>
<stop offset="1" stop-color="#80AFB9"/>
</linearGradient>
<linearGradient id="paint5_linear_328_7286" x1="18.5" y1="10" x2="18.5" y2="23.5" gradientUnits="userSpaceOnUse">
<stop stop-color="#BAC6C9"/>
<stop offset="1" stop-color="#80AFB9"/>
</linearGradient>
</defs>
</svg>
