<svg width="28" height="28" viewBox="0 0 28 28" fill="none" xmlns="http://www.w3.org/2000/svg">
<rect width="28" height="28" rx="3" fill="#F4F4F4"/>
<path d="M19.1163 17.1494C21.5432 15.8168 23.3829 14.8015 23.5414 14.7225C24.0487 14.4528 24.5726 13.7388 23.5414 13.1842C23.2085 13.0097 21.4161 12.026 19.1163 10.7573L15.9282 13.977L19.1163 17.1493V17.1494Z" fill="#FFD900"/>
<path d="M15.9283 13.9771L5.7771 24.208C6.01537 24.2395 6.28437 24.1764 6.60152 24.002C7.26737 23.6375 14.326 19.7828 19.1164 17.1501L15.9283 13.9771Z" fill="#F43249"/>
<path d="M15.9284 13.9771L19.1165 10.7732C19.1165 10.7732 7.31555 4.33298 6.60155 3.95281C6.33255 3.79349 6.0311 3.74616 5.76135 3.79349L15.9284 13.9771V13.9771Z" fill="#00EE76"/>
<path d="M15.9283 13.9771L5.76132 3.79346C5.3487 3.88886 5 4.25341 5 4.99895V23.0025C5 23.6849 5.26982 24.1764 5.7771 24.2238L15.9283 13.9771Z" fill="#00D3FF"/>
</svg>
