<svg width="80" height="30" viewBox="0 0 80 30" fill="none" xmlns="http://www.w3.org/2000/svg">
<path d="M0 0H65C73.2843 0 80 6.71573 80 15V15C80 23.2843 73.2843 30 65 30H0V0Z" fill="url(#paint0_linear_687_7875)"/>
<mask id="path-2-inside-1_687_7875" fill="white">
<path d="M24.1818 18.8182C22.9091 20.0909 25.7727 23.5909 24.1818 25.1818C22.5909 26.7727 19.0909 23.9091 17.8182 25.1818C16.5455 26.4545 15.9091 29 14 29C12.0909 29 11.4545 26.4545 10.1818 25.1818C8.90909 23.9091 5.40909 26.7727 3.81818 25.1818C2.22727 23.5909 5.09091 20.0909 3.81818 18.8182C2.54545 17.5455 0 16.9091 0 15C0 13.0909 2.54545 12.4545 3.81818 11.1818C5.09091 9.90909 2.22727 6.40909 3.81818 4.81818C5.40909 3.22727 8.90909 6.09091 10.1818 4.81818C11.4545 3.54545 12.0909 1 14 1C15.9091 1 16.5455 3.54545 17.8182 4.81818C19.0909 6.09091 22.5909 3.22727 24.1818 4.81818C25.7727 6.40909 22.9091 9.90909 24.1818 11.1818C25.4545 12.4545 28 13.0909 28 15C28 16.9091 25.4545 17.5455 24.1818 18.8182Z"/>
</mask>
<path d="M24.1818 18.8182C22.9091 20.0909 25.7727 23.5909 24.1818 25.1818C22.5909 26.7727 19.0909 23.9091 17.8182 25.1818C16.5455 26.4545 15.9091 29 14 29C12.0909 29 11.4545 26.4545 10.1818 25.1818C8.90909 23.9091 5.40909 26.7727 3.81818 25.1818C2.22727 23.5909 5.09091 20.0909 3.81818 18.8182C2.54545 17.5455 0 16.9091 0 15C0 13.0909 2.54545 12.4545 3.81818 11.1818C5.09091 9.90909 2.22727 6.40909 3.81818 4.81818C5.40909 3.22727 8.90909 6.09091 10.1818 4.81818C11.4545 3.54545 12.0909 1 14 1C15.9091 1 16.5455 3.54545 17.8182 4.81818C19.0909 6.09091 22.5909 3.22727 24.1818 4.81818C25.7727 6.40909 22.9091 9.90909 24.1818 11.1818C25.4545 12.4545 28 13.0909 28 15C28 16.9091 25.4545 17.5455 24.1818 18.8182Z" fill="white"/>
<path d="M9.8 14.4C9.46863 13.9582 8.84183 13.8686 8.4 14.2C7.95817 14.5314 7.86863 15.1582 8.2 15.6L9.8 14.4ZM12 19L11.2 19.6C11.3739 19.8319 11.6399 19.9769 11.9291 19.9975C12.2183 20.018 12.5021 19.9121 12.7071 19.7071L12 19ZM19.7071 12.7071C20.0976 12.3166 20.0976 11.6834 19.7071 11.2929C19.3166 10.9024 18.6834 10.9024 18.2929 11.2929L19.7071 12.7071ZM8.2 15.6L11.2 19.6L12.8 18.4L9.8 14.4L8.2 15.6ZM12.7071 19.7071L19.7071 12.7071L18.2929 11.2929L11.2929 18.2929L12.7071 19.7071ZM22.7676 17.404C21.7883 18.3832 21.7943 19.6354 21.8832 20.3669C21.9726 21.1028 22.2271 21.91 22.3804 22.4383C22.566 23.0775 22.6629 23.4843 22.6759 23.7822C22.6867 24.0297 22.6282 23.907 22.7676 23.7676L25.596 26.596C26.5309 25.6611 26.7111 24.5044 26.6721 23.6084C26.6354 22.7629 26.3942 21.9169 26.2218 21.3231C26.0172 20.6184 25.8939 20.2125 25.854 19.8845C25.8136 19.5521 25.9389 19.8895 25.596 20.2324L22.7676 17.404ZM22.7676 23.7676C22.907 23.6282 23.0297 23.6867 22.7822 23.6759C22.4843 23.6629 22.0775 23.566 21.4383 23.3804C20.91 23.2271 20.1028 22.9726 19.3669 22.8832C18.6354 22.7943 17.3832 22.7883 16.404 23.7676L19.2324 26.596C18.8895 26.9389 18.5521 26.8136 18.8845 26.854C19.2125 26.8939 19.6184 27.0172 20.3231 27.2218C20.9169 27.3942 21.7629 27.6354 22.6084 27.6721C23.5044 27.7111 24.6611 27.5309 25.596 26.596L22.7676 23.7676ZM16.404 23.7676C15.9268 24.2448 15.5537 24.7937 15.2708 25.2338C14.9429 25.7438 14.7611 26.0615 14.5093 26.4213C14.2778 26.7518 14.1248 26.9068 14.0304 26.9769C13.9924 27.0051 13.9798 27.0073 13.9895 27.0039C14.0023 26.9993 14.0103 27 14 27V31C16.0101 31 17.1696 29.596 17.7862 28.7151C18.0912 28.2794 18.4264 27.7221 18.6355 27.3969C18.8895 27.0017 19.0732 26.7552 19.2324 26.596L16.404 23.7676ZM14 27C13.9897 27 13.9977 26.9993 14.0105 27.0039C14.0202 27.0073 14.0076 27.0051 13.9696 26.9769C13.8752 26.9068 13.7222 26.7518 13.4907 26.4213C13.2389 26.0615 13.0571 25.7438 12.7292 25.2338C12.4463 24.7937 12.0732 24.2448 11.596 23.7676L8.7676 26.596C8.92677 26.7552 9.11051 27.0017 9.36452 27.3969C9.57362 27.7221 9.90884 28.2794 10.2138 28.7151C10.8304 29.596 11.9899 31 14 31V27ZM11.596 23.7676C10.6168 22.7883 9.36456 22.7943 8.63307 22.8832C7.89715 22.9726 7.08995 23.2271 6.5617 23.3804C5.92253 23.566 5.51572 23.6629 5.21781 23.6759C4.97035 23.6867 5.09296 23.6282 5.2324 23.7676L2.40397 26.596C3.33886 27.5309 4.49556 27.7111 5.39156 27.6721C6.23712 27.6354 7.08315 27.3942 7.67694 27.2218C8.38164 27.0172 8.78751 26.8939 9.11551 26.854C9.44794 26.8136 9.11051 26.9389 8.7676 26.596L11.596 23.7676ZM5.2324 23.7676C5.37183 23.907 5.31335 24.0297 5.32411 23.7822C5.33706 23.4843 5.43399 23.0775 5.61956 22.4383C5.77292 21.91 6.02738 21.1028 6.11679 20.3669C6.20566 19.6354 6.21167 18.3832 5.2324 17.404L2.40397 20.2324C2.06106 19.8895 2.18638 19.5521 2.14599 19.8845C2.10614 20.2125 1.98276 20.6184 1.77817 21.3231C1.60578 21.9169 1.36465 22.7629 1.32788 23.6084C1.28893 24.5044 1.46907 25.6611 2.40397 26.596L5.2324 23.7676ZM5.2324 17.404C4.7552 16.9268 4.20628 16.5537 3.76617 16.2708C3.25622 15.9429 2.93852 15.7611 2.57874 15.5093C2.24815 15.2778 2.09325 15.1248 2.0231 15.0304C1.99493 14.9924 1.99267 14.9798 1.99613 14.9895C2.00068 15.0023 2 15.0103 2 15H-2C-2 17.0101 -0.595962 18.1696 0.284894 18.7862C0.720568 19.0912 1.27787 19.4264 1.60314 19.6355C1.99827 19.8895 2.2448 20.0732 2.40397 20.2324L5.2324 17.404ZM2 15C2 14.9897 2.00068 14.9977 1.99613 15.0105C1.99267 15.0202 1.99493 15.0076 2.0231 14.9696C2.09325 14.8752 2.24815 14.7222 2.57874 14.4907C2.93852 14.2389 3.25622 14.0571 3.76617 13.7292C4.20628 13.4463 4.7552 13.0732 5.2324 12.596L2.40397 9.7676C2.2448 9.92677 1.99827 10.1105 1.60314 10.3645C1.27787 10.5736 0.720568 10.9088 0.284894 11.2138C-0.595962 11.8304 -2 12.9899 -2 15H2ZM5.2324 12.596C6.21167 11.6168 6.20566 10.3646 6.11679 9.63307C6.02738 8.89715 5.77292 8.08995 5.61956 7.5617C5.43399 6.92253 5.33706 6.51572 5.32411 6.21781C5.31335 5.97035 5.37183 6.09296 5.2324 6.2324L2.40397 3.40397C1.46908 4.33886 1.28893 5.49556 1.32788 6.39156C1.36465 7.23712 1.60578 8.08315 1.77817 8.67694C1.98276 9.38164 2.10614 9.78751 2.14599 10.1155C2.18638 10.4479 2.06106 10.1105 2.40397 9.7676L5.2324 12.596ZM5.2324 6.2324C5.09296 6.37183 4.97035 6.31335 5.21781 6.32411C5.51572 6.33706 5.92253 6.43399 6.5617 6.61956C7.08995 6.77292 7.89715 7.02738 8.63307 7.11679C9.36456 7.20566 10.6168 7.21167 11.596 6.2324L8.7676 3.40397C9.11051 3.06106 9.44794 3.18638 9.11551 3.14599C8.78751 3.10614 8.38164 2.98276 7.67694 2.77817C7.08315 2.60578 6.23712 2.36465 5.39156 2.32788C4.49556 2.28893 3.33886 2.46908 2.40397 3.40397L5.2324 6.2324ZM11.596 6.2324C12.0732 5.7552 12.4463 5.20628 12.7292 4.76617C13.0571 4.25622 13.2389 3.93852 13.4907 3.57874C13.7222 3.24815 13.8752 3.09325 13.9696 3.0231C14.0076 2.99493 14.0202 2.99267 14.0105 2.99613C13.9977 3.00068 13.9897 3 14 3V-1C11.9899 -1 10.8304 0.404038 10.2138 1.28489C9.90884 1.72057 9.57362 2.27787 9.36452 2.60314C9.11051 2.99827 8.92677 3.2448 8.7676 3.40397L11.596 6.2324ZM14 3C14.0103 3 14.0023 3.00068 13.9895 2.99613C13.9798 2.99267 13.9924 2.99493 14.0304 3.0231C14.1248 3.09325 14.2778 3.24815 14.5093 3.57874C14.7611 3.93852 14.9429 4.25622 15.2708 4.76617C15.5537 5.20628 15.9268 5.7552 16.404 6.2324L19.2324 3.40397C19.0732 3.2448 18.8895 2.99827 18.6355 2.60314C18.4264 2.27787 18.0912 1.72057 17.7862 1.28489C17.1696 0.404038 16.0101 -1 14 -1V3ZM16.404 6.2324C17.3832 7.21167 18.6354 7.20566 19.3669 7.11679C20.1028 7.02738 20.91 6.77292 21.4383 6.61956C22.0775 6.43399 22.4843 6.33706 22.7822 6.32411C23.0297 6.31335 22.907 6.37183 22.7676 6.2324L25.596 3.40397C24.6611 2.46907 23.5044 2.28893 22.6084 2.32788C21.7629 2.36465 20.9169 2.60578 20.3231 2.77817C19.6184 2.98276 19.2125 3.10614 18.8845 3.14599C18.5521 3.18638 18.8895 3.06106 19.2324 3.40397L16.404 6.2324ZM22.7676 6.2324C22.6282 6.09296 22.6867 5.97035 22.6759 6.21781C22.6629 6.51572 22.566 6.92253 22.3804 7.5617C22.2271 8.08995 21.9726 8.89715 21.8832 9.63307C21.7943 10.3646 21.7883 11.6168 22.7676 12.596L25.596 9.7676C25.9389 10.1105 25.8136 10.4479 25.854 10.1155C25.8939 9.78751 26.0172 9.38164 26.2218 8.67694C26.3942 8.08315 26.6354 7.23712 26.6721 6.39156C26.7111 5.49556 26.5309 4.33886 25.596 3.40397L22.7676 6.2324ZM22.7676 12.596C23.2448 13.0732 23.7937 13.4463 24.2338 13.7292C24.7438 14.0571 25.0615 14.2389 25.4213 14.4907C25.7518 14.7222 25.9068 14.8752 25.9769 14.9696C26.0051 15.0076 26.0073 15.0202 26.0039 15.0105C25.9993 14.9977 26 14.9897 26 15H30C30 12.9899 28.596 11.8304 27.7151 11.2138C27.2794 10.9088 26.7221 10.5736 26.3969 10.3645C26.0017 10.1105 25.7552 9.92677 25.596 9.7676L22.7676 12.596ZM26 15C26 15.0103 25.9993 15.0023 26.0039 14.9895C26.0073 14.9798 26.0051 14.9924 25.9769 15.0304C25.9068 15.1248 25.7518 15.2778 25.4213 15.5093C25.0615 15.7611 24.7438 15.9429 24.2338 16.2708C23.7937 16.5537 23.2448 16.9268 22.7676 17.404L25.596 20.2324C25.7552 20.0732 26.0017 19.8895 26.3969 19.6355C26.7221 19.4264 27.2794 19.0912 27.7151 18.7862C28.596 18.1696 30 17.0101 30 15H26Z" fill="#FF6A54" mask="url(#path-2-inside-1_687_7875)"/>
<path d="M35.575 9.4301H33.797V11.6001C33.797 13.7981 33.111 16.1081 31.221 17.2561L32.327 18.6421C33.489 17.9421 34.245 16.7101 34.693 15.2821C35.099 16.5841 35.785 17.6761 36.877 18.3481L37.885 16.9201C36.135 15.7581 35.575 13.6161 35.575 11.5301V9.4301ZM38.151 12.6641H36.527V14.1621H38.151V20.6301H39.873V8.5201H38.151V12.6641ZM40.769 8.3101V21.2041H42.519V8.3101H40.769Z" fill="white"/>
<path d="M54.4879 8.3101H52.6259V14.7641H54.4879V8.3101ZM45.7519 11.6281C45.7519 10.7181 46.4659 10.1721 47.4179 10.1721C48.3699 10.1721 49.0559 10.7181 49.0559 11.6281C49.0559 12.5521 48.3699 13.0841 47.4179 13.0841C46.4659 13.0841 45.7519 12.5521 45.7519 11.6281ZM50.8479 11.6281C50.8479 9.9201 49.3779 8.6881 47.4179 8.6881C45.4439 8.6881 43.9599 9.9201 43.9599 11.6281C43.9599 13.3501 45.4439 14.5821 47.4179 14.5821C49.3779 14.5821 50.8479 13.3501 50.8479 11.6281ZM47.7399 19.6221V18.8101H54.4879V15.2961H45.8919V16.7101H52.6539V17.4941H45.9059V21.0501H54.8099V19.6221H47.7399Z" fill="white"/>
<path d="M57.2168 13.6581C59.6528 13.4481 61.2348 12.5381 61.9208 11.3201C62.6068 12.5381 64.1888 13.4481 66.6108 13.6581L67.2548 12.2301C64.8468 12.0201 63.5868 11.1801 63.2648 10.3121H66.6948V8.8421H57.1608V10.3121H60.5768C60.2548 11.1801 58.9948 12.0201 56.6008 12.2301L57.2168 13.6581ZM64.4968 18.8801C64.4968 19.5241 63.6148 19.8041 61.8928 19.8041C60.1708 19.8041 59.2888 19.5241 59.2888 18.8801C59.2888 18.2221 60.1708 17.9421 61.8928 17.9421C63.6148 17.9421 64.4968 18.2221 64.4968 18.8801ZM67.7448 15.6321V14.1621H56.0968V15.6321H60.9968V16.5701C58.7568 16.7521 57.4268 17.5501 57.4268 18.8801C57.4268 20.3641 59.1068 21.2041 61.8928 21.2041C64.6788 21.2041 66.3728 20.3641 66.3728 18.8801C66.3728 17.5641 65.0568 16.7661 62.8448 16.5841V15.6321H67.7448Z" fill="white"/>
<defs>
<linearGradient id="paint0_linear_687_7875" x1="7.27273" y1="10" x2="75.3326" y2="56.2327" gradientUnits="userSpaceOnUse">
<stop stop-color="#FF6A54"/>
<stop offset="1" stop-color="#FF8F3E"/>
</linearGradient>
</defs>
</svg>
