<svg width="32" height="32" viewBox="0 0 32 32" fill="none" xmlns="http://www.w3.org/2000/svg">
<path d="M26.9146 16.0777C29.2736 11.3446 24.6736 8.24448 22.0787 7.28603L15.7784 18.386L15.9069 26.4269C16.112 24.0238 18.3856 22.8368 19.4968 22.5437C23.6582 21.7816 26.176 17.9155 26.9146 16.0777Z" fill="#428151"/>
<path d="M26.9146 16.0777C29.2736 11.3446 24.6736 8.24448 22.0787 7.28603L15.7784 18.386L15.9069 26.4269C16.112 24.0238 18.3856 22.8368 19.4968 22.5437C23.6582 21.7816 26.176 17.9155 26.9146 16.0777Z" fill="url(#paint0_linear_328_7197)"/>
<path d="M5.07831 16.0777C2.71936 11.3446 7.31935 8.24448 9.91421 7.28603L16.2146 18.386L16.086 26.4269C15.881 24.0238 13.6074 22.8368 12.4962 22.5437C8.33473 21.7816 5.817 17.9155 5.07831 16.0777Z" fill="#428151"/>
<path d="M5.07831 16.0777C2.71936 11.3446 7.31935 8.24448 9.91421 7.28603L16.2146 18.386L16.086 26.4269C15.881 24.0238 13.6074 22.8368 12.4962 22.5437C8.33473 21.7816 5.817 17.9155 5.07831 16.0777Z" fill="url(#paint1_linear_328_7197)"/>
<path d="M10.6659 19.7814C4.04388 8.42932 10.1278 3.22629 13.9975 2.04378C15.3233 1.47811 17.4531 1.80809 18.3522 2.04378C28.7583 5.3548 22.491 18.0076 18.6718 24.5114C16.5625 25.9304 14.2314 25.1027 13.3295 24.5114C12.6223 23.0924 11.2591 20.7668 10.6659 19.7814Z" fill="url(#paint2_linear_328_7197)"/>
<path fill-rule="evenodd" clip-rule="evenodd" d="M13.9975 2.04378C10.1278 3.22629 4.04388 8.42932 10.6659 19.7814C11.2591 20.7668 12.6223 23.0924 13.3295 24.5114C14.0311 24.9713 15.5974 25.5744 17.2515 25.1517C16.5865 24.995 16.0373 24.7361 15.6946 24.5114C14.9874 23.0924 13.6242 20.7668 13.031 19.7814C6.40897 8.42932 12.4929 3.22629 16.3626 2.04378C16.6039 1.94081 16.8719 1.86752 17.1543 1.81793C16.1527 1.68818 14.8921 1.6621 13.9975 2.04378Z" fill="#509E64"/>
<path d="M17.1831 21.2429C18.1686 19.8633 21.3219 15.3304 20.7307 8.23535" stroke="#71E08D" stroke-linecap="round"/>
<path d="M16.0006 10.0088V19.4689" stroke="#71E08D" stroke-linecap="round"/>
<path d="M14.9373 31.0809C9.50031 30.6079 11.2902 25.7596 12.8647 23.3946C14.2837 21.5026 14.1598 19.5499 14.6386 18.9455C15.5846 17.7513 16.6094 18.4479 17.0036 18.9455C17.2697 19.2815 18.1861 22.3994 18.7773 23.3946C23.6869 31.0809 17.794 31.278 14.9373 31.0809Z" fill="#E3F5B5"/>
<path fill-rule="evenodd" clip-rule="evenodd" d="M17.1941 31.0708C11.8893 30.5431 13.6657 25.7438 15.2297 23.3946C16.1235 22.2029 16.4051 20.9872 16.6108 20.0994C16.7317 19.5777 16.8264 19.1692 17.0036 18.9455C17.0036 18.9455 17.0036 18.9455 17.0036 18.9455C16.6094 18.4479 15.5846 17.7513 14.6386 18.9455C14.4614 19.1692 14.3667 19.5777 14.2458 20.0994C14.0401 20.9872 13.7585 22.2029 12.8647 23.3946C11.2902 25.7596 9.50031 30.6079 14.9373 31.0809C15.5868 31.1257 16.3933 31.1501 17.1941 31.0708Z" fill="#D1E896"/>
<path d="M15.4093 14.7395C14.621 14.5424 13.0443 13.6752 13.0443 11.7832" stroke="#71E08D" stroke-linecap="round"/>
<defs>
<linearGradient id="paint0_linear_328_7197" x1="24.1199" y1="7.87852" x2="16.9999" y2="31" gradientUnits="userSpaceOnUse">
<stop offset="0.0129694" stop-color="#60B675"/>
<stop offset="1" stop-color="#2B4A33"/>
</linearGradient>
<linearGradient id="paint1_linear_328_7197" x1="7.8731" y1="7.87852" x2="13.4771" y2="27.1842" gradientUnits="userSpaceOnUse">
<stop stop-color="#428151"/>
<stop offset="0.680477" stop-color="#265832"/>
</linearGradient>
<linearGradient id="paint2_linear_328_7197" x1="14" y1="1.99957" x2="19" y2="25.9996" gradientUnits="userSpaceOnUse">
<stop stop-color="#53B96D"/>
<stop offset="1" stop-color="#5CDA7B"/>
</linearGradient>
</defs>
</svg>
