<svg width="24" height="24" viewBox="0 0 24 24" fill="none" xmlns="http://www.w3.org/2000/svg">
<path d="M7.7714 2.43832L8.8474 2.09432C9.8564 1.77232 10.9344 2.29332 11.3664 3.31132L12.2264 5.33932C12.6004 6.22232 12.3924 7.26132 11.7124 7.90732L9.8174 9.70532C9.9344 10.7813 10.2964 11.8403 10.9024 12.8823C11.4779 13.8905 12.2498 14.7729 13.1724 15.4773L15.4484 14.7173C16.3104 14.4303 17.2504 14.7613 17.7784 15.5383L19.0114 17.3483C19.6264 18.2523 19.5154 19.4983 18.7524 20.2643L17.9354 21.0853C17.1214 21.9023 15.9584 22.1993 14.8834 21.8633C12.3434 21.0713 10.0104 18.7203 7.8804 14.8103C5.7474 10.8943 4.9944 7.57032 5.6224 4.84232C5.8864 3.69432 6.7034 2.77932 7.7714 2.43832V2.43832Z" fill="#777777"/>
</svg>
