<svg width="32" height="32" viewBox="0 0 32 32" fill="none" xmlns="http://www.w3.org/2000/svg">
<path d="M15.9998 1L12.7339 4.01675L8.49977 2.99368L6.99975 7.03351L3.24972 8.54189L3.99972 12.903L0.999695 16.0838L3.99972 19.1005L3.24972 23.6257L6.99975 25.134L8.49977 28.905L12.9998 28.1508L15.9998 31L18.9999 28.0572L23.4999 28.905L24.9999 24.3798L28.75 23.6257L28 19.1005L31 16.0838L28 12.8429L28.75 8.54189L24.9999 7.03351L23.4999 3.26257L19.1046 4.01675L15.9998 1Z" fill="url(#paint0_linear_328_7367)"/>
<path d="M21.0127 19.7853C21.0127 20.465 20.7621 21.1447 20.1534 21.1447C19.5447 21.1447 19.2941 20.465 19.2941 19.7853C19.2941 19.124 19.5447 18.4444 20.1534 18.4444C20.7621 18.4444 21.0127 19.124 21.0127 19.7853ZM22.9999 19.7853C22.9999 17.9117 21.9795 16.5891 20.1534 16.5891C18.3273 16.5891 17.3068 17.9117 17.3068 19.7853C17.3068 21.659 18.3273 23 20.1534 23C21.9795 23 22.9999 21.659 22.9999 19.7853ZM12.7058 12.3457C12.7058 13.0254 12.4552 13.7051 11.8465 13.7051C11.2378 13.7051 10.9872 13.0254 10.9872 12.3457C10.9872 11.6844 11.2378 11.0047 11.8465 11.0047C12.4552 11.0047 12.7058 11.6844 12.7058 12.3457ZM14.693 12.3457C14.693 10.472 13.6726 9.14943 11.8465 9.14943C10.0204 9.14943 8.99994 10.472 8.99994 12.3457C8.99994 14.2194 10.0204 15.5604 11.8465 15.5604C13.6726 15.5604 14.693 14.2194 14.693 12.3457ZM10.9334 22.5591C11.5421 23.0551 12.2941 22.9449 12.8132 22.2652L21.1918 11.2068C21.7109 10.5271 21.7109 9.77399 21.1739 9.31475C20.5831 8.80041 19.8132 8.92899 19.2941 9.60866L10.9155 20.6671C10.3964 21.3467 10.3785 22.1183 10.9334 22.5591Z" fill="url(#paint1_linear_328_7367)"/>
<defs>
<linearGradient id="paint0_linear_328_7367" x1="15.9998" y1="1" x2="15.9998" y2="31" gradientUnits="userSpaceOnUse">
<stop stop-color="#78CEFF"/>
<stop offset="1" stop-color="#4791BB"/>
</linearGradient>
<linearGradient id="paint1_linear_328_7367" x1="15.9999" y1="9" x2="15.9999" y2="23" gradientUnits="userSpaceOnUse">
<stop stop-color="white"/>
<stop offset="0.932292" stop-color="#DAEAF2"/>
</linearGradient>
</defs>
</svg>
