<svg width="32" height="32" viewBox="0 0 32 32" fill="none" xmlns="http://www.w3.org/2000/svg">
<rect x="4.4751" y="6.29395" width="20.8504" height="19.4118" fill="url(#paint0_linear_328_7327)"/>
<path fill-rule="evenodd" clip-rule="evenodd" d="M4.8226 6.29395H3.02661V25.7057H4.8226V6.29395Z" fill="#F6B142"/>
<rect x="1" y="1" width="26.063" height="5.29411" rx="1" fill="url(#paint1_linear_328_7327)"/>
<path fill-rule="evenodd" clip-rule="evenodd" d="M2 1C1.44772 1 1 1.44772 1 2V5.29411C1 5.8464 1.44772 6.29411 2 6.29411H3.79603C3.24375 6.29411 2.79603 5.8464 2.79603 5.29411V2C2.79603 1.44772 3.24375 1 3.79603 1H2Z" fill="#F6B142"/>
<path fill-rule="evenodd" clip-rule="evenodd" d="M4.72992 25.7061C3.62898 25.7103 2.73781 26.6041 2.73781 27.706V29.0002C2.73781 30.1047 3.63324 31.0002 4.73781 31.0002H25.0709C25.0683 31.0002 25.0656 31.0002 25.063 31.0002H3C1.89543 31.0002 1 30.1047 1 29.0002V27.7061C1 26.6015 1.89543 25.7061 3 25.7061H4.72992Z" fill="#F6B142"/>
<rect x="2.73755" y="25.7061" width="24.3255" height="5.29411" rx="2" fill="url(#paint2_linear_328_7327)"/>
<ellipse cx="14.9003" cy="15.9998" rx="8.68767" ry="7.94117" fill="#E0E0E0"/>
<ellipse cx="15.7696" cy="15.9998" rx="7.8189" ry="7.94117" fill="#FCF8F8"/>
<ellipse cx="27.9315" cy="28.3531" rx="0.868767" ry="0.882352" fill="white"/>
<path d="M14.9004 15.8477V21.3022" stroke="#FFCB00" stroke-width="0.7" stroke-linecap="round"/>
<path d="M16.2426 12.2117C16.2426 13.2159 15.5561 14.0299 14.9121 14.0299C14.2681 14.0299 13.5576 13.2159 13.5576 12.2117C13.5576 11.3026 14.2681 10.3936 14.9121 10.3936C15.5561 10.3936 16.2426 11.2076 16.2426 12.2117Z" fill="#FFCB00"/>
<path d="M14.731 17.1884C15.566 17.9286 15.7573 18.8904 15.3019 19.2296C14.8464 19.5689 13.667 19.3432 12.832 18.603C12.076 17.9328 11.8226 16.8884 12.278 16.5491C12.7335 16.2098 13.8959 16.4482 14.731 17.1884Z" fill="#F6B142"/>
<path d="M15.0703 17.1884C14.2353 17.9286 14.0439 18.8904 14.4994 19.2296C14.9548 19.5689 16.1343 19.3432 16.9693 18.603C17.7252 17.9328 17.9787 16.8884 17.5232 16.5491C17.0678 16.2098 15.9053 16.4482 15.0703 17.1884Z" fill="#F6B142"/>
<path d="M15.0703 13.5517C14.2353 14.2919 14.0439 15.2536 14.4994 15.5929C14.9548 15.9322 16.1343 15.7064 16.9693 14.9662C17.7252 14.2961 17.9787 13.2517 17.5232 12.9124C17.0678 12.5731 15.9053 12.8115 15.0703 13.5517Z" fill="#F6B142"/>
<path d="M14.731 13.5517C15.566 14.2919 15.7573 15.2536 15.3019 15.5929C14.8464 15.9322 13.667 15.7064 12.832 14.9662C12.076 14.2961 11.8226 13.2517 12.278 12.9124C12.7335 12.5731 13.8959 12.8115 14.731 13.5517Z" fill="#F6B142"/>
<path d="M14.731 15.3701C15.566 16.1103 15.7573 17.072 15.3019 17.4113C14.8464 17.7505 13.667 17.5248 12.832 16.7846C12.076 16.1145 11.8226 15.07 12.278 14.7308C12.7335 14.3915 13.8959 14.6299 14.731 15.3701Z" fill="#FFCB00"/>
<path d="M15.0703 15.3701C14.2353 16.1103 14.0439 17.072 14.4994 17.4113C14.9548 17.7505 16.1343 17.5248 16.9693 16.7846C17.7252 16.1145 17.9787 15.07 17.5232 14.7308C17.0678 14.3915 15.9053 14.6299 15.0703 15.3701Z" fill="#FFCB00"/>
<path d="M20.8178 25.861L15.0781 31L32 31L26.8961 26.7175C24.4648 23.9766 21.8308 25.0044 20.8178 25.861Z" fill="#FAE4C8"/>
<path fill-rule="evenodd" clip-rule="evenodd" d="M15.0781 31L20.8178 25.861C21.5588 25.2344 23.1671 24.5163 24.9289 25.2485C24.502 25.4224 24.1478 25.647 23.8948 25.861L18.1551 31H15.0781Z" fill="#EBD7BD"/>
<ellipse cx="23.539" cy="27.2126" rx="0.769178" ry="0.75757" fill="white"/>
<ellipse cx="26.6159" cy="28.7273" rx="0.769178" ry="0.75757" fill="white"/>
<ellipse cx="20.462" cy="28.7273" rx="0.769178" ry="0.75757" fill="#F6B142"/>
<defs>
<linearGradient id="paint0_linear_328_7327" x1="14.9003" y1="6.29395" x2="14.9003" y2="25.7057" gradientUnits="userSpaceOnUse">
<stop stop-color="#FFEC43"/>
<stop offset="1" stop-color="#FFB45B"/>
</linearGradient>
<linearGradient id="paint1_linear_328_7327" x1="2.96588" y1="4.33343" x2="26.8349" y2="4.33343" gradientUnits="userSpaceOnUse">
<stop stop-color="#F7D733"/>
<stop offset="1" stop-color="#F6B142"/>
</linearGradient>
<linearGradient id="paint2_linear_328_7327" x1="2.96598" y1="28.5759" x2="26.835" y2="28.5759" gradientUnits="userSpaceOnUse">
<stop stop-color="#F7D635"/>
<stop offset="1" stop-color="#F7B342"/>
</linearGradient>
</defs>
</svg>
