<svg width="54" height="23" viewBox="0 0 54 23" fill="none" xmlns="http://www.w3.org/2000/svg">
<path d="M0 0H45C49.9706 0 54 4.02944 54 9V23H15C6.71573 23 0 16.2843 0 8V0Z" fill="url(#paint0_linear_811_8918)"/>
<path d="M12.8336 6.598H11.4336V8.88C11.4336 11.036 10.5656 13.304 8.77362 14.368L9.65562 15.46C10.8736 14.718 11.6996 13.388 12.1476 11.834C12.5816 13.248 13.3376 14.48 14.4856 15.18L15.2976 14.06C13.6036 12.996 12.8336 10.854 12.8336 8.81V6.598ZM15.8016 9.86H13.9396V11.036H15.8016V17.49H17.1596V5.674H15.8016V9.86ZM18.3776 5.436V18.078H19.7496V5.436H18.3776Z" fill="white"/>
<path d="M31.6905 5.422H30.2485V11.848H31.6905V5.422ZM22.9125 8.698C22.9125 7.69 23.7245 7.032 24.8165 7.032C25.9225 7.032 26.7485 7.69 26.7485 8.698C26.7485 9.706 25.9225 10.364 24.8165 10.364C23.7245 10.364 22.9125 9.706 22.9125 8.698ZM28.1485 8.698C28.1485 7.032 26.7345 5.842 24.8165 5.842C22.9125 5.842 21.5125 7.032 21.5125 8.698C21.5125 10.364 22.9125 11.54 24.8165 11.54C26.7345 11.54 28.1485 10.364 28.1485 8.698ZM24.8445 16.79V15.67H31.6905V12.422H23.4025V13.556H30.2625V14.606H23.4305V17.924H32.0685V16.79H24.8445Z" fill="white"/>
<path d="M34.6714 10.63C36.8834 10.392 38.6194 9.482 39.3054 8.18C39.9774 9.482 41.7134 10.392 43.9394 10.63L44.4434 9.496C42.1054 9.258 40.4814 8.278 40.2854 7.144H43.9814V5.982H34.6434V7.144H38.3114C38.1154 8.278 36.4914 9.258 34.1534 9.496L34.6714 10.63ZM42.1754 15.838C42.1754 16.566 41.1254 16.972 39.2774 16.972C37.4294 16.972 36.3934 16.566 36.3934 15.838C36.3934 15.082 37.4294 14.69 39.2774 14.69C41.1254 14.69 42.1754 15.082 42.1754 15.838ZM45.0174 12.422V11.274H33.5794V12.422H38.5774V13.584C36.2814 13.724 34.9234 14.522 34.9234 15.838C34.9234 17.266 36.5614 18.078 39.2774 18.078C42.0074 18.078 43.6314 17.266 43.6314 15.838C43.6314 14.522 42.3014 13.738 40.0194 13.598V12.422H45.0174Z" fill="white"/>
<defs>
<linearGradient id="paint0_linear_811_8918" x1="19" y1="8" x2="52" y2="32" gradientUnits="userSpaceOnUse">
<stop offset="0.0481919" stop-color="#FF6A54"/>
<stop offset="1" stop-color="#FF8F3E"/>
</linearGradient>
</defs>
</svg>
