<svg width="32" height="32" viewBox="0 0 32 32" fill="none" xmlns="http://www.w3.org/2000/svg">
<path d="M13.4067 4.36811C12.8234 5.14538 11.6463 6.79938 11.6051 7.19725L21.7909 10.7679C24.0692 8.18927 23.347 7.07543 22.7011 6.84084C18.8051 5.63222 15.9106 4.46043 14.9503 4.02562C14.1959 3.54517 13.6069 4.05376 13.4067 4.36811Z" fill="#F47D40"/>
<path d="M31 14.0705C29 11.0703 25.6667 15.0705 24 17.5705C25.2 21.5706 27.5 22.5705 28.5 22.5704C31.7 22.5704 30.5 19.2371 29.5 17.5704C31.5 16.3704 31.5 15.0703 31 14.0705Z" fill="#F47D40"/>
<path d="M28.0001 16.5C26.5001 16.5 25.1667 17.5 24.0001 18C24.6667 18.6667 26.4 19.6001 28 20.0001" stroke="#D75817" stroke-linecap="round" stroke-linejoin="round"/>
<path d="M21.4762 8.51889C11.3682 1.79017 4.6296 10.121 2.52379 15.1275C0.418047 17.0501 0.944391 18.3315 1.47078 18.7319L3.57663 19.9335L2.52372 21.135C0.839057 22.5769 5.33149 24.94 7.78829 25.9413C15.3693 28.825 22.1781 25.1402 24.6349 22.9374C30.1101 17.6505 24.8104 11.1222 21.4762 8.51889Z" fill="url(#paint0_linear_427_5530)"/>
<path d="M10.8498 25.2668C8.15932 24.1052 8.83168 27.0085 10.1772 28.7507C11.2057 30.0826 12.4194 30.1056 12.868 29.9121C15.5585 28.7505 12.8679 26.2345 10.8498 25.2668Z" fill="#F47D40"/>
<path d="M14 9.21777C17.0977 8.93699 17.5491 13.9166 14.4514 14.1974C17.5491 13.9166 18.2069 18.8774 14.9027 19.1769" stroke="#F47D40" stroke-linecap="round" stroke-linejoin="round"/>
<path d="M14.9027 19.1768C18.0004 18.896 18.4518 23.8756 15.3541 24.1563" stroke="#F47D40" stroke-linecap="round" stroke-linejoin="round"/>
<path d="M20 12.0957C22.9104 11.9719 23.1024 16.4842 20.192 16.608C23.1024 16.4842 23.4885 20.9883 20.384 21.1204" stroke="#F47D40" stroke-linecap="round" stroke-linejoin="round"/>
<g filter="url(#filter0_d_427_5530)">
<ellipse cx="6" cy="14.5" rx="2" ry="2.5" fill="white"/>
<ellipse cx="5.5" cy="15" rx="1.5" ry="2" fill="#2F2F2F"/>
</g>
<path d="M10.8689 12C11.6906 14.0117 12.4673 18.8946 9.00008 22.3324" stroke="#F47D40" stroke-linecap="round" stroke-linejoin="round"/>
<path d="M13.4067 4.36811C12.8234 5.14538 11.6463 6.79938 11.6051 7.19725L21.7909 10.7679C24.0692 8.18927 23.347 7.07543 22.7011 6.84084C18.8051 5.63222 15.9106 4.46043 14.9503 4.02562C14.1959 3.54517 13.6069 4.05376 13.4067 4.36811Z" fill="#72AF1A"/>
<path d="M31 14.0705C29 11.0703 25.6667 15.0705 24 17.5705C25.2 21.5706 27.5 22.5705 28.5 22.5704C31.7 22.5704 30.5 19.2371 29.5 17.5704C31.5 16.3704 31.5 15.0703 31 14.0705Z" fill="#72AF1A"/>
<path d="M28.0001 16.5C26.5001 16.5 25.1667 17.5 24.0001 18C24.6667 18.6667 26.4 19.6001 28 20.0001" stroke="#4A7212" stroke-linecap="round" stroke-linejoin="round"/>
<path d="M21.4762 8.51889C11.3682 1.79017 4.6296 10.121 2.52379 15.1275C0.418047 17.0501 0.944391 18.3315 1.47078 18.7319L3.57663 19.9335L2.52372 21.135C0.839057 22.5769 5.33149 24.94 7.78829 25.9413C15.3693 28.825 22.1781 25.1402 24.6349 22.9374C30.1101 17.6505 24.8104 11.1222 21.4762 8.51889Z" fill="url(#paint1_linear_427_5530)"/>
<path d="M10.8498 25.2668C8.15932 24.1052 8.83168 27.0085 10.1772 28.7507C11.2057 30.0826 12.4194 30.1056 12.868 29.9121C15.5585 28.7505 12.8679 26.2345 10.8498 25.2668Z" fill="#72AF1A"/>
<path d="M14 9.21777C17.0977 8.93699 17.5491 13.9166 14.4514 14.1974C17.5491 13.9166 18.2069 18.8774 14.9027 19.1769" stroke="#62941C" stroke-linecap="round" stroke-linejoin="round"/>
<path d="M14.9027 19.1768C18.0004 18.896 18.4518 23.8756 15.3541 24.1563" stroke="#62941C" stroke-linecap="round" stroke-linejoin="round"/>
<path d="M20 12.0957C22.9104 11.9719 23.1024 16.4842 20.192 16.608C23.1024 16.4842 23.4885 20.9883 20.384 21.1204" stroke="#6DA026" stroke-linecap="round" stroke-linejoin="round"/>
<g filter="url(#filter1_d_427_5530)">
<ellipse cx="6" cy="14.5" rx="2" ry="2.5" fill="white"/>
<ellipse cx="5.5" cy="15" rx="1.5" ry="2" fill="#2F2F2F"/>
</g>
<path d="M10.8689 12C11.6906 14.0117 12.4673 18.8946 9.00008 22.3324" stroke="#62941C" stroke-linecap="round" stroke-linejoin="round"/>
<defs>
<filter id="filter0_d_427_5530" x="4" y="11.5" width="6" height="7" filterUnits="userSpaceOnUse" color-interpolation-filters="sRGB">
<feFlood flood-opacity="0" result="BackgroundImageFix"/>
<feColorMatrix in="SourceAlpha" type="matrix" values="0 0 0 0 0 0 0 0 0 0 0 0 0 0 0 0 0 0 127 0" result="hardAlpha"/>
<feOffset dx="1" dy="0.5"/>
<feGaussianBlur stdDeviation="0.5"/>
<feComposite in2="hardAlpha" operator="out"/>
<feColorMatrix type="matrix" values="0 0 0 0 0.956863 0 0 0 0 0.490196 0 0 0 0 0.25098 0 0 0 1 0"/>
<feBlend mode="normal" in2="BackgroundImageFix" result="effect1_dropShadow_427_5530"/>
<feBlend mode="normal" in="SourceGraphic" in2="effect1_dropShadow_427_5530" result="shape"/>
</filter>
<filter id="filter1_d_427_5530" x="4" y="11.5" width="6" height="7" filterUnits="userSpaceOnUse" color-interpolation-filters="sRGB">
<feFlood flood-opacity="0" result="BackgroundImageFix"/>
<feColorMatrix in="SourceAlpha" type="matrix" values="0 0 0 0 0 0 0 0 0 0 0 0 0 0 0 0 0 0 127 0" result="hardAlpha"/>
<feOffset dx="1" dy="0.5"/>
<feGaussianBlur stdDeviation="0.5"/>
<feComposite in2="hardAlpha" operator="out"/>
<feColorMatrix type="matrix" values="0 0 0 0 0.384314 0 0 0 0 0.588235 0 0 0 0 0.0862745 0 0 0 0.6 0"/>
<feBlend mode="normal" in2="BackgroundImageFix" result="effect1_dropShadow_427_5530"/>
<feBlend mode="normal" in="SourceGraphic" in2="effect1_dropShadow_427_5530" result="shape"/>
</filter>
<linearGradient id="paint0_linear_427_5530" x1="9.32" y1="10.5" x2="25.0738" y2="26.3295" gradientUnits="userSpaceOnUse">
<stop stop-color="#F8AC36"/>
<stop offset="1" stop-color="#F48C63"/>
</linearGradient>
<linearGradient id="paint1_linear_427_5530" x1="8.5" y1="8" x2="20.3511" y2="27.9956" gradientUnits="userSpaceOnUse">
<stop stop-color="#619516"/>
<stop offset="0.627626" stop-color="#A4E73E"/>
<stop offset="0.890625" stop-color="#FFED91"/>
</linearGradient>
</defs>
</svg>
