<svg width="32" height="32" viewBox="0 0 32 32" fill="none" xmlns="http://www.w3.org/2000/svg">
<path d="M32 16C32 24.8366 24.8366 32 16 32C7.16344 32 0 24.8366 0 16C0 7.16344 7.16344 0 16 0C24.8366 0 32 7.16344 32 16Z" fill="white" fill-opacity="0.8"/>
<path fill-rule="evenodd" clip-rule="evenodd" d="M16 30.5C24.0081 30.5 30.5 24.0081 30.5 16C30.5 7.99187 24.0081 1.5 16 1.5C7.99187 1.5 1.5 7.99187 1.5 16C1.5 24.0081 7.99187 30.5 16 30.5ZM16 32C24.8366 32 32 24.8366 32 16C32 7.16344 24.8366 0 16 0C7.16344 0 0 7.16344 0 16C0 24.8366 7.16344 32 16 32Z" fill="#FF6A54"/>
<path fill-rule="evenodd" clip-rule="evenodd" d="M12.3333 23.3337C13.0697 23.3337 13.6667 22.7367 13.6667 22.0003C13.6667 21.2639 13.0697 20.667 12.3333 20.667C11.597 20.667 11 21.2639 11 22.0003C11 22.7367 11.597 23.3337 12.3333 23.3337Z" stroke="#FF6A54" stroke-width="1.5" stroke-linecap="round" stroke-linejoin="round"/>
<path fill-rule="evenodd" clip-rule="evenodd" d="M20.3333 23.3337C21.0697 23.3337 21.6667 22.7367 21.6667 22.0003C21.6667 21.2639 21.0697 20.667 20.3333 20.667C19.597 20.667 19 21.2639 19 22.0003C19 22.7367 19.597 23.3337 20.3333 23.3337Z" stroke="#FF6A54" stroke-width="1.5" stroke-linecap="round" stroke-linejoin="round"/>
<path d="M10.7801 12.0003H22.3334L21.2134 17.5937C21.0876 18.2271 20.5258 18.6794 19.8801 18.667H12.8334C12.1597 18.6727 11.5876 18.175 11.5001 17.507L10.4867 9.82699C10.3998 9.16406 9.83536 8.668 9.16675 8.66699H7.66675" stroke="#FF6A54" stroke-width="1.5" stroke-linecap="round" stroke-linejoin="round"/>
</svg>
