<svg width="32" height="32" viewBox="0 0 32 32" fill="none" xmlns="http://www.w3.org/2000/svg">
<path d="M15.8639 6.27325C13.4455 5.92901 11.0605 5.2918 8.80692 6.83234C6.70253 8.27279 5.09028 10.7313 4.47566 13.3632C3.60718 17.0815 4.12382 21.3149 6.44199 24.2935C7.71575 25.9268 9.83351 27.6675 11.7263 28.3145C16.5854 29.9796 22.5912 29.191 25.6398 24.2275C26.5105 22.8115 27.3835 20.8901 27.7019 19.2104C28.5949 14.5082 27.595 8.99789 23.1546 6.97395C21.1772 6.07306 19.0639 6.56867 16.9973 6.40509C16.6165 6.37335 16.2402 6.32697 15.8639 6.27325Z" fill="url(#paint0_linear_328_7244)"/>
<path d="M18.2378 3.34375C18.2222 3.28028 18.1932 3.22412 18.1509 3.18506C18.0619 3.10938 17.877 3.03369 17.7724 2.99219C17.6143 2.92627 17.445 2.89941 17.2802 2.89941C17.2179 2.89941 17.1578 2.90186 17.0999 2.90918C16.8772 2.93848 16.6857 3.02881 16.5587 3.22657C16.3895 3.48292 16.4184 3.77345 16.3739 4.0713C16.3115 4.49611 16.1289 4.88186 16.0287 5.2969C15.9508 5.61673 15.8884 5.94144 15.8328 6.26859C15.7905 6.50785 15.7548 6.74711 15.7281 6.98881C15.6323 7.88482 15.4987 8.78082 15.5344 9.6866C15.5366 9.81111 15.541 9.93562 15.5477 10.0601C15.55 10.1236 15.5566 10.1846 15.5655 10.2481C15.5789 10.3311 15.5834 10.4263 15.5923 10.5216C15.5967 10.5557 15.5989 10.5899 15.6034 10.6241C15.6279 10.7706 15.6747 10.9073 15.8016 10.983C15.9597 11.0807 16.1468 11.1246 16.3338 11.127C16.3917 11.127 16.4474 11.1173 16.5053 11.1124L16.6523 11.1026C16.7235 11.0807 16.7948 11.0514 16.8705 11.0294C16.9885 10.9976 17.1043 10.9317 17.1867 10.8316C17.2602 10.7413 17.2691 10.6485 17.2646 10.5411L17.258 10.4654C17.2491 10.3702 17.2424 10.2725 17.2379 10.1749C17.229 9.98201 17.2223 9.78425 17.2179 9.59138C17.2045 9.1568 17.2112 8.71735 17.2468 8.28277C17.2713 8.02398 17.2825 7.76031 17.3025 7.50151C17.327 7.14018 17.3738 6.78129 17.4294 6.4224C17.4428 6.34672 17.4495 6.27347 17.4628 6.20023C17.543 5.74124 17.6922 5.32864 17.8525 4.89406C17.926 4.69387 17.9572 4.48146 18.024 4.28859C18.0975 4.08839 18.2601 3.97853 18.2601 3.73927C18.2601 3.6294 18.269 3.47071 18.2378 3.34375Z" fill="#855C52"/>
<path d="M10.865 8.43666C10.5358 8.05031 9.75434 8.09425 9.22383 8.36365C8.56803 8.69591 8.02077 9.32327 7.66274 10.0011C7.3549 10.585 6.93986 11.7849 7.54174 12.3501C7.83621 12.6248 8.13971 12.4712 8.42266 12.2731C8.93669 11.9147 9.19492 11.2257 9.60931 10.7553C10.0359 10.2738 11.627 9.31833 10.865 8.43666Z" fill="#F1E7E7"/>
<path d="M15.7015 10.4448C15.1804 10.3227 14.6727 10.1201 14.1962 9.86372C13.9468 9.72944 13.2253 9.09955 13.1518 9.76118C13.0582 10.5595 14.0626 11.248 14.5614 11.5044C15.4209 11.9487 16.383 12.1074 17.3071 11.9023C18.1979 11.7046 18.9572 11.2236 19.5273 10.3789C19.6008 10.269 19.6498 10.1396 19.6854 10.0175C19.8123 9.57563 19.3714 9.57075 19.1354 9.69526C18.9439 9.79536 18.7791 9.95649 18.5898 10.0566C18.2246 10.2495 17.8416 10.4057 17.4518 10.4887C16.8684 10.6108 16.2783 10.5791 15.7015 10.4448Z" fill="#B93221"/>
<path d="M21.6743 2.89751C23.0642 2.85906 25.3947 3.37806 26.3373 4.20622C26.4525 4.31034 26.6733 4.45611 26.7059 4.58426C26.7578 4.7941 26.5581 4.97351 26.4122 5.12728C24.3389 7.33624 20.0924 8.48156 17.4047 6.98063C17.0285 6.77078 17.23 6.38153 17.3068 6.05956C17.6159 4.77488 18.8042 3.59591 20.269 3.12978C20.7278 2.98401 21.202 2.91032 21.6743 2.89751Z" fill="#78CE63"/>
<defs>
<linearGradient id="paint0_linear_328_7244" x1="13.9999" y1="6.00024" x2="21.9999" y2="34.5002" gradientUnits="userSpaceOnUse">
<stop offset="0.22228" stop-color="#E73728"/>
<stop offset="1" stop-color="#FF984E"/>
</linearGradient>
</defs>
</svg>
