<svg width="90" height="90" viewBox="0 0 90 90" fill="none" xmlns="http://www.w3.org/2000/svg">
<rect x="0.5" y="0.5" width="89" height="89" fill="#EEEEEE"/>
<path d="M18.8208 39.552L18.8848 43.184C18.9008 43.856 19.0608 44.448 19.3968 44.88H20.1648C20.3088 44.784 20.4528 44.56 20.5168 44.4H27.3008C27.6688 44.096 27.7168 43.712 27.7168 43.136L27.7648 38.944C27.7648 38.784 27.7968 38.448 27.7968 38.352C27.7968 38.208 27.6848 38.16 27.4768 38.08C27.0128 37.92 26.0848 37.776 25.5568 37.744C25.4608 37.744 25.2048 38.176 25.1568 38.352C25.3008 38.448 25.6528 38.704 25.7808 38.816C25.8608 38.896 25.8928 38.96 25.8928 39.088V40.24H20.6928V39.424C20.6928 39.264 20.7248 38.928 20.7248 38.832C20.7248 38.688 20.6448 38.64 20.4048 38.56C19.9568 38.416 18.8848 38.336 18.5168 38.336C18.4208 38.336 18.2288 38.72 18.1648 38.896C18.3088 39.008 18.5808 39.168 18.7088 39.28C18.7888 39.36 18.8208 39.424 18.8208 39.552ZM20.6928 41.36H25.8928V43.248H20.6928V41.36ZM30.3888 46.336C30.2928 46.176 28.8848 45.92 28.4048 45.92C28.0848 45.92 27.6208 46.272 26.8688 46.272H19.7968C18.6768 46.272 16.5168 46.112 16.1968 46.112C16.0368 46.112 15.9248 46.688 15.9088 46.848C16.7088 47.328 17.7968 47.744 18.1168 47.744C18.2768 47.744 19.3168 47.472 19.7968 47.472H22.4048V50.752C22.4048 51.712 22.6288 52.688 22.7888 52.96H23.6528C23.8928 52.656 24.2128 51.136 24.2128 50.336L24.2448 47.472H30.3088C30.4368 47.296 30.5648 46.64 30.3888 46.336Z" fill="#BBBBBB"/>
<path d="M41.7764 39.232V41.888L40.7204 41.904C39.8564 41.936 38.8804 41.856 38.7684 41.856C38.6404 41.856 38.5124 42.096 38.5124 42.464C38.8004 42.688 39.5844 43.152 39.7284 43.152C39.9364 43.152 40.5924 43.008 40.7204 43.008L41.7764 42.992V46.672C41.7764 47.792 42.0004 48.88 42.1604 49.184H42.8804C43.1204 48.848 43.5844 47.504 43.5844 46.16L43.6164 39.2C43.6164 38.864 43.6644 38.4 43.6644 38.24C43.6644 38.064 43.6324 37.984 43.4404 37.904C42.8644 37.648 41.4884 37.36 40.9924 37.36C40.8484 37.36 40.7204 37.728 40.6244 37.984L41.5364 38.784C41.6484 38.896 41.7764 39.024 41.7764 39.232ZM36.6564 44.08C37.4404 44.912 38.5764 46.272 39.2804 47.056C39.4724 47.056 40.3524 46.704 40.2404 46.416C40.1124 46.096 39.5684 45.088 39.4084 44.896C39.2324 44.704 38.3524 44.304 37.9364 43.856L37.3284 43.264C38.0804 42.304 38.7204 41.264 39.2004 40.24C39.2804 40.064 39.4244 39.84 39.4244 39.728C39.4244 39.6 39.3764 39.392 39.2004 39.328C38.9604 39.248 38.2244 39.072 38.0164 39.072C37.7444 39.072 37.2644 39.312 36.9764 39.312H34.8164C33.9844 39.312 32.5764 39.248 32.3044 39.232C32.1444 39.216 31.9524 39.696 31.9524 39.984C32.2404 40.192 33.2004 40.656 33.4884 40.704C33.6004 40.72 34.4644 40.512 34.8004 40.512H36.9124C35.6644 43.232 33.1844 46.192 30.9284 46.944C30.7044 47.024 31.4244 47.536 31.6004 47.584C33.2164 47.264 35.0884 45.872 36.6564 44.08ZM44.1604 51.328C44.0164 51.168 42.9604 50.992 42.4804 50.992C42.1604 50.992 41.4404 51.376 40.8004 51.376H37.8564C37.3764 51.376 37.2004 51.216 37.2004 50.88V48.928L37.2164 48.464C37.2164 48.128 36.9764 48.048 36.7204 48.016C36.4004 47.968 35.4244 47.872 34.8964 47.872C34.7684 47.872 34.5764 48.336 34.5764 48.432L35.1684 48.896C35.2484 48.96 35.2804 48.992 35.2804 49.152V51.12C35.2804 52 36.0164 52.56 37.1364 52.56H44.0964C44.3044 52.352 44.3044 51.488 44.1604 51.328Z" fill="#BBBBBB"/>
<path d="M58.236 37.904C57.66 37.648 56.284 37.36 55.788 37.36C55.644 37.36 55.532 37.712 55.42 37.984L56.332 38.784C56.444 38.896 56.572 39.024 56.572 39.232V50.304C56.572 51.424 56.796 52.656 56.956 52.96H57.676C57.916 52.624 58.38 51.136 58.38 49.792L58.412 39.2C58.412 38.864 58.46 38.4 58.46 38.24C58.46 38.064 58.412 37.984 58.236 37.904ZM54.172 45.712C53.9 45.408 53.244 44.976 52.78 44.528L51.5 43.28C51.948 42.464 52.332 41.632 52.604 40.848C52.748 40.432 52.812 40.208 52.812 40.08C52.812 39.904 52.668 39.808 52.428 39.696C51.996 39.504 50.668 39.168 50.396 39.168C50.204 39.168 49.996 39.52 49.932 39.68L50.572 40.32C50.668 40.416 50.668 40.448 50.636 40.56C49.66 43.488 47.084 47.104 45.788 47.856C45.484 48.032 45.804 48.224 46.204 48.48C47.772 48.24 49.532 46.448 50.876 44.336C51.948 45.52 53.292 47.072 54.156 48.08C54.524 48 55.244 47.6 55.164 47.328C55.084 47.056 54.556 46.16 54.172 45.712Z" fill="#BBBBBB"/>
<path d="M75.2876 42.32C75.0956 42.24 74.3116 42.096 73.9916 42.096C73.6876 42.096 73.1916 42.464 72.6316 42.528L72.6476 39.2C72.6476 38.864 72.6956 38.4 72.6956 38.24C72.6956 38.064 72.6476 37.984 72.4716 37.904C71.8956 37.648 70.5196 37.36 70.0236 37.36C69.8796 37.36 69.7356 37.728 69.6556 37.984L70.5676 38.784C70.6796 38.896 70.8076 39.024 70.8076 39.232V44.56C70.8076 45.68 70.9996 46.688 71.1596 46.992H71.9596C72.1996 46.656 72.5996 45.392 72.6156 44.048V43.648H75.2716C75.4476 43.296 75.4796 42.4 75.2876 42.32ZM65.9596 43.664C66.7436 44.336 67.8636 45.392 68.7116 46.176C68.8876 46.16 69.7356 45.728 69.6076 45.456C69.4476 45.152 68.8236 44.272 68.6476 44.096C68.4556 43.92 67.5596 43.536 67.0956 43.216L66.6476 42.896C67.4476 41.968 68.1356 40.992 68.6316 40.08C68.7276 39.904 68.8556 39.68 68.8556 39.568C68.8556 39.44 68.8076 39.232 68.6316 39.168C68.3916 39.088 67.6556 38.912 67.4476 38.912C67.1756 38.912 66.6956 39.152 66.4076 39.152H64.2476C63.4156 39.152 62.0076 39.088 61.7356 39.072C61.5756 39.056 61.3836 39.536 61.3836 39.824C61.6716 40.032 62.6316 40.496 62.9196 40.544C63.0316 40.56 63.8956 40.352 64.2316 40.352H66.2796C64.9836 42.704 62.4396 45.632 60.3596 46.384C60.1356 46.464 60.8556 46.976 61.0316 47.024C62.5196 46.704 64.3756 45.328 65.9596 43.664ZM68.6956 46.816C66.5036 46.816 65.0476 48.192 65.0476 50C65.0476 51.808 66.5036 53.184 68.6956 53.184C70.8876 53.184 72.3436 51.808 72.3436 50C72.3436 48.192 70.8876 46.816 68.6956 46.816ZM68.6956 51.936C67.5596 51.936 66.7276 51.184 66.7276 50C66.7276 48.816 67.5596 48.064 68.6956 48.064C69.8316 48.064 70.6636 48.816 70.6636 50C70.6636 51.184 69.8316 51.936 68.6956 51.936Z" fill="#BBBBBB"/>
<rect x="0.5" y="0.5" width="89" height="89" stroke="#EFEFEF"/>
</svg>
