<svg width="120" height="120" viewBox="0 0 120 120" fill="none" xmlns="http://www.w3.org/2000/svg">
<g clip-path="url(#clip0_678_7845)">
<rect width="120" height="120" fill="white"/>
<path d="M26.5255 89.872C25.6935 89.52 23.2935 88.88 22.5255 88.88C22.2375 88.88 21.8855 89.52 21.7895 90.032L23.5495 91.44C23.7735 91.632 23.9975 91.856 23.9975 92.272V98.864H20.8295L20.8615 93.904C20.8615 93.392 20.9575 92.464 20.9575 92.144C20.9575 91.792 20.8615 91.632 20.5095 91.472C19.6775 91.12 17.3415 90.48 16.5735 90.48C16.2855 90.48 15.9015 91.152 15.8375 91.632L17.5975 93.04C17.8215 93.232 18.0455 93.456 18.0455 93.872V103.248C18.0455 105.008 18.3335 106.704 18.6535 107.312H19.7095C20.1895 106.64 20.7975 104.304 20.7975 102.224V100.752H23.9975V104.784C23.9975 106.544 24.2855 108.304 24.6055 108.912H25.6935C26.1735 108.24 26.7815 105.872 26.8135 103.76L26.8775 92.304C26.8775 91.792 26.9735 90.864 26.9735 90.544C26.9735 90.192 26.8455 90.032 26.5255 89.872ZM12.8935 93.84C13.4055 93.36 13.2775 92.112 12.8935 92.08L8.7975 91.888C7.8695 91.824 5.4375 91.408 5.1175 91.376C4.9255 91.376 4.7015 92.08 4.6695 92.432C5.6295 93.2 7.2295 94.16 7.8375 94.16C9.4055 94.16 11.1975 94.032 12.8935 93.84ZM6.3015 97.648H16.1575C16.5415 97.328 16.5735 96.016 16.2535 95.76C15.9975 95.536 15.1335 95.44 14.3015 95.408C13.6935 95.376 12.3495 95.824 11.2615 95.824H6.3015C4.4775 95.824 2.1415 95.568 1.5975 95.568C1.4375 95.568 1.2455 96.56 1.2135 96.816C1.6615 97.104 3.5815 98.032 4.1575 98.032C4.7015 98.032 5.6295 97.648 6.3015 97.648ZM15.3255 103.728C15.3255 100.816 12.9255 98.768 9.4695 98.768C6.0455 98.768 3.6455 100.816 3.6455 103.728C3.6455 106.64 6.0455 108.688 9.4695 108.688C12.9255 108.688 15.3255 106.64 15.3255 103.728ZM9.4695 106.768C7.6135 106.768 6.2375 105.648 6.2375 103.76C6.2375 101.872 7.6135 100.72 9.4695 100.72C11.3575 100.72 12.7335 101.872 12.7335 103.76C12.7335 105.648 11.3575 106.768 9.4695 106.768ZM18.5575 108.624C14.5895 108.624 11.9975 111.024 11.9975 114.384C11.9975 117.712 14.5895 120.112 18.5575 120.112C22.5255 120.112 25.1495 117.712 25.1495 114.384C25.1495 111.024 22.5255 108.624 18.5575 108.624ZM18.5575 118.128C16.2855 118.128 14.6215 116.688 14.6215 114.384C14.6215 112.048 16.2855 110.608 18.5575 110.608C20.8295 110.608 22.4935 112.048 22.4935 114.384C22.4935 116.688 20.8295 118.128 18.5575 118.128Z" fill="#EEEEEE"/>
<path d="M58.9328 105.072C58.7408 104.752 56.8208 104.4 55.8608 104.4C55.2208 104.4 53.8768 104.976 52.5328 104.976H45.9408C46.0688 104.336 46.1648 103.504 46.1648 103.056L46.1968 101.456H52.2768C52.8528 100.848 52.9488 100.208 52.9488 99.376L53.0448 91.824C53.0448 91.504 53.1088 90.992 53.1088 90.8C53.1088 90.512 52.9168 90.384 52.4688 90.256C51.7008 90 49.9408 89.616 49.2048 89.584C48.9168 89.584 48.4688 90.288 48.4048 90.64C48.7568 90.832 49.3648 91.248 49.8128 91.568C50.0048 91.728 50.0368 91.856 50.0368 92.176V94.096H39.7328V92.752C39.7328 92.432 39.7968 91.92 39.7968 91.728C39.7968 91.44 39.6368 91.312 39.1567 91.184C38.3888 90.96 36.5648 90.832 35.9888 90.832C35.7328 90.832 35.3168 91.504 35.2528 91.856C35.7328 92.112 36.1808 92.336 36.5008 92.56C36.6608 92.688 36.7248 92.784 36.7248 93.104L36.7888 99.792C36.8208 100.72 37.0768 101.648 37.4928 102.256H38.7728C39.0288 102.096 39.3488 101.776 39.4767 101.456H43.3168V103.376C43.3168 103.76 43.3808 104.432 43.4448 104.976H37.3968C34.6768 104.976 31.3168 104.656 30.6768 104.656C30.3568 104.656 30.1648 105.488 30.1328 105.936C31.2528 106.576 33.5568 107.472 34.1968 107.472C34.5168 107.472 36.4368 106.96 37.3968 106.96H58.8688C59.0928 106.608 59.2208 105.552 58.9328 105.072ZM39.7328 95.984H50.0368V99.536H39.7328V95.984ZM52.8528 110.16C52.5328 110.064 51.7968 109.968 51.2528 109.968C50.6128 109.968 49.6848 110.256 48.8528 110.256H41.2688C39.1568 110.256 35.7648 110.064 35.4128 110.064C35.1248 110.064 34.8688 110.896 34.8688 111.312C35.3808 111.664 37.9087 112.656 38.4207 112.656C38.8047 112.656 40.0208 112.24 41.2688 112.24H50.3888V117.392C50.3888 118.576 50.6768 119.824 50.8688 120.24H52.2448C52.7248 119.696 53.2048 118 53.2368 116.752L53.3647 112.752C53.3968 112.144 53.4928 111.568 53.4928 111.024C53.4928 110.48 53.2048 110.288 52.8528 110.16Z" fill="#EEEEEE"/>
<path d="M84.588 89.872C83.756 89.52 81.292 88.88 80.492 88.88C80.204 88.88 79.852 89.488 79.756 90.032L81.516 91.44C81.74 91.632 81.964 91.856 81.964 92.272V115.504C81.964 117.264 82.252 119.248 82.572 119.856H83.756C84.236 119.184 84.876 116.688 84.876 114.48L84.94 92.304C84.94 91.792 85.036 90.864 85.036 90.544C85.036 90.192 84.94 90.032 84.588 89.872ZM76.652 105.52C76.076 104.88 74.764 104.016 73.9 103.152L71.148 100.4C72.044 98.8 72.812 97.168 73.324 95.632C73.612 94.864 73.772 94.448 73.772 94.192C73.772 93.936 73.548 93.712 73.132 93.52C72.236 93.104 70.156 92.496 69.548 92.496C69.228 92.496 68.876 93.2 68.78 93.488L70.06 94.608C70.22 94.768 70.252 94.864 70.124 95.28C68.14 100.912 63.116 108.112 60.14 109.776C59.724 110 60.46 110.544 60.94 110.864C63.756 110.352 67.372 106.544 70.124 102.16C72.332 104.56 75.212 107.824 77.004 109.872C77.548 109.776 78.828 109.104 78.604 108.56C78.38 107.984 77.356 106.352 76.652 105.52Z" fill="#EEEEEE"/>
<path d="M119.107 98.928C118.755 98.704 117.571 98.48 116.771 98.48C116.131 98.48 114.883 99.184 113.667 99.184H113.379L113.411 92.304C113.411 91.792 113.507 90.864 113.507 90.544C113.507 90.192 113.411 90.032 113.059 89.872C112.227 89.52 109.763 88.88 108.963 88.88C108.675 88.88 108.291 89.52 108.227 90.032L109.987 91.44C110.211 91.632 110.435 91.856 110.435 92.272V103.824C110.435 105.584 110.691 107.344 111.011 107.952H112.291C112.771 107.28 113.315 104.912 113.347 102.8V101.04H119.107C119.427 100.496 119.427 99.184 119.107 98.928ZM100.515 100.976C102.243 102.384 104.451 104.432 106.307 106.16C106.691 106.128 108.003 105.392 107.779 104.912C107.427 104.304 106.499 103.056 105.955 102.544C105.443 102.032 103.971 101.392 102.947 100.656L101.667 99.728C103.331 97.808 104.739 95.824 105.699 94.064C105.859 93.712 106.179 93.264 106.179 93.04C106.179 92.784 106.083 92.464 105.731 92.368C105.251 92.24 104.227 92.048 103.811 92.048C103.267 92.048 102.627 92.368 102.051 92.368H96.9953C95.1713 92.368 92.7393 92.24 92.1953 92.208C91.8753 92.176 91.5872 92.912 91.5872 93.488C92.3232 93.904 93.9233 94.608 94.4993 94.672C94.8833 94.704 95.9712 94.32 96.9632 94.32H102.051C99.6193 98.832 93.8273 105.136 89.5393 106.672C89.0913 106.832 90.3072 107.696 90.6592 107.792C93.6672 107.152 97.3793 104.304 100.515 100.976ZM105.891 107.792C101.699 107.792 98.9473 110.384 98.9473 114C98.9473 117.616 101.699 120.208 105.891 120.208C110.115 120.208 112.867 117.616 112.867 114C112.867 110.384 110.115 107.792 105.891 107.792ZM105.891 118.128C103.427 118.128 101.635 116.528 101.635 114C101.635 111.472 103.427 109.872 105.891 109.872C108.355 109.872 110.147 111.472 110.147 114C110.147 116.528 108.355 118.128 105.891 118.128Z" fill="#EEEEEE"/>
</g>
<defs>
<clipPath id="clip0_678_7845">
<rect width="120" height="120" fill="white"/>
</clipPath>
</defs>
</svg>
