<svg width="480" height="60" viewBox="0 0 480 60" fill="none" xmlns="http://www.w3.org/2000/svg">
<g clip-path="url(#clip0_519_7355)">
<rect width="480" height="60" fill="url(#paint0_linear_519_7355)"/>
<path d="M4.02002 3.73972C4.7159 3.73972 5.28001 3.17558 5.28001 2.47971C5.28001 1.78383 4.7159 1.21973 4.02002 1.21973C3.32414 1.21973 2.76001 1.78383 2.76001 2.47971C2.76001 3.17558 3.32414 3.73972 4.02002 3.73972Z" fill="white" fill-opacity="0.3"/>
<path d="M12.02 3.73972C12.7159 3.73972 13.28 3.17558 13.28 2.47971C13.28 1.78383 12.7159 1.21973 12.02 1.21973C11.3241 1.21973 10.76 1.78383 10.76 2.47971C10.76 3.17558 11.3241 3.73972 12.02 3.73972Z" fill="white" fill-opacity="0.3"/>
<path d="M20.02 3.73972C20.7159 3.73972 21.28 3.17558 21.28 2.47971C21.28 1.78383 20.7159 1.21973 20.02 1.21973C19.3241 1.21973 18.76 1.78383 18.76 2.47971C18.76 3.17558 19.3241 3.73972 20.02 3.73972Z" fill="white" fill-opacity="0.3"/>
<path d="M28.02 3.72025C28.7049 3.72025 29.26 3.16506 29.26 2.48022C29.26 1.79539 28.7049 1.24023 28.02 1.24023C27.3352 1.24023 26.78 1.79539 26.78 2.48022C26.78 3.16506 27.3352 3.72025 28.02 3.72025Z" fill="white" fill-opacity="0.3"/>
<path d="M36.0201 3.69977C36.6938 3.69977 37.2401 3.15355 37.2401 2.47977C37.2401 1.80598 36.6938 1.25977 36.0201 1.25977C35.3463 1.25977 34.8 1.80598 34.8 2.47977C34.8 3.15355 35.3463 3.69977 36.0201 3.69977Z" fill="white" fill-opacity="0.3"/>
<path d="M44.0201 3.65982C44.6701 3.65982 45.2001 3.1298 45.2001 2.4798C45.2001 1.8298 44.6701 1.2998 44.0201 1.2998C43.3701 1.2998 42.8401 1.8298 42.8401 2.4798C42.8501 3.1298 43.3701 3.65982 44.0201 3.65982Z" fill="white" fill-opacity="0.3"/>
<path d="M52.0201 3.63983C52.6601 3.63983 53.1701 3.11984 53.1701 2.48984C53.1701 1.84984 52.6501 1.33984 52.0201 1.33984C51.3901 1.33984 50.8701 1.85984 50.8701 2.48984C50.8701 3.11984 51.3901 3.63983 52.0201 3.63983Z" fill="white" fill-opacity="0.3"/>
<path d="M60.0199 3.59012C60.6329 3.59012 61.1299 3.09314 61.1299 2.4801C61.1299 1.86707 60.6329 1.37012 60.0199 1.37012C59.4069 1.37012 58.9099 1.86707 58.9099 2.4801C58.9099 3.09314 59.4069 3.59012 60.0199 3.59012Z" fill="white" fill-opacity="0.3"/>
<path d="M68.02 3.52042C68.6 3.52042 69.06 3.05041 69.06 2.48041C69.06 1.90041 68.59 1.44043 68.02 1.44043C67.45 1.44043 66.98 1.91041 66.98 2.48041C66.98 3.06041 67.45 3.52042 68.02 3.52042Z" fill="white" fill-opacity="0.3"/>
<path d="M76.0201 3.45999C76.5613 3.45999 77 3.02122 77 2.47998C77 1.93874 76.5613 1.5 76.0201 1.5C75.4788 1.5 75.04 1.93874 75.04 2.47998C75.04 3.02122 75.4788 3.45999 76.0201 3.45999Z" fill="white" fill-opacity="0.3"/>
<path d="M84.0201 3.39032C84.5201 3.39032 84.9301 2.98032 84.9301 2.48032C84.9301 1.98032 84.5201 1.57031 84.0201 1.57031C83.5201 1.57031 83.1101 1.98032 83.1101 2.48032C83.1101 2.98032 83.5201 3.39032 84.0201 3.39032Z" fill="white" fill-opacity="0.3"/>
<path d="M92.0199 3.31964C92.4838 3.31964 92.8599 2.94356 92.8599 2.47964C92.8599 2.01573 92.4838 1.63965 92.0199 1.63965C91.556 1.63965 91.1799 2.01573 91.1799 2.47964C91.1799 2.94356 91.556 3.31964 92.0199 3.31964Z" fill="white" fill-opacity="0.3"/>
<path d="M100.02 3.24023C100.44 3.24023 100.77 2.90023 100.77 2.49023C100.77 2.07023 100.43 1.74023 100.02 1.74023C99.6 1.74023 99.27 2.08023 99.27 2.49023C99.27 2.90023 99.61 3.24023 100.02 3.24023Z" fill="white" fill-opacity="0.3"/>
<path d="M108.02 3.14957C108.39 3.14957 108.69 2.84958 108.69 2.47955C108.69 2.10952 108.39 1.80957 108.02 1.80957C107.65 1.80957 107.35 2.10952 107.35 2.47955C107.35 2.84958 107.65 3.14957 108.02 3.14957Z" fill="white" fill-opacity="0.3"/>
<path d="M116.02 3.07986C116.35 3.07986 116.62 2.80986 116.62 2.47986C116.62 2.14986 116.35 1.87988 116.02 1.87988C115.69 1.87988 115.42 2.14986 115.42 2.47986C115.42 2.80986 115.69 3.07986 116.02 3.07986Z" fill="white" fill-opacity="0.3"/>
<path d="M124.02 2.98972C124.302 2.98972 124.53 2.76137 124.53 2.47971C124.53 2.19804 124.302 1.96973 124.02 1.96973C123.738 1.96973 123.51 2.19804 123.51 2.47971C123.51 2.76137 123.738 2.98972 124.02 2.98972Z" fill="white" fill-opacity="0.3"/>
<path d="M132.02 2.89957C132.252 2.89957 132.44 2.71151 132.44 2.47955C132.44 2.24759 132.252 2.05957 132.02 2.05957C131.788 2.05957 131.6 2.24759 131.6 2.47955C131.6 2.71151 131.788 2.89957 132.02 2.89957Z" fill="white" fill-opacity="0.3"/>
<path d="M140.02 2.78992C140.191 2.78992 140.33 2.65113 140.33 2.47992C140.33 2.30871 140.191 2.16992 140.02 2.16992C139.849 2.16992 139.71 2.30871 139.71 2.47992C139.71 2.65113 139.849 2.78992 140.02 2.78992Z" fill="white" fill-opacity="0.3"/>
<path d="M148.02 2.69977C148.14 2.69977 148.24 2.59977 148.24 2.47977C148.24 2.35977 148.14 2.25977 148.02 2.25977C147.9 2.25977 147.8 2.35977 147.8 2.47977C147.8 2.59977 147.9 2.69977 148.02 2.69977Z" fill="white" fill-opacity="0.3"/>
<path d="M156.02 2.60959C156.092 2.60959 156.15 2.55138 156.15 2.47958C156.15 2.40779 156.092 2.34961 156.02 2.34961C155.948 2.34961 155.89 2.40779 155.89 2.47958C155.89 2.55138 155.948 2.60959 156.02 2.60959Z" fill="white" fill-opacity="0.3"/>
<path d="M164.02 2.49997C164.031 2.49997 164.04 2.491 164.04 2.47995C164.04 2.4689 164.031 2.45996 164.02 2.45996C164.009 2.45996 164 2.4689 164 2.47995C164 2.491 164.009 2.49997 164.02 2.49997Z" fill="white" fill-opacity="0.3"/>
<path d="M4.0199 11.6096C4.64398 11.6096 5.14989 11.1037 5.14989 10.4796C5.14989 9.8555 4.64398 9.34961 4.0199 9.34961C3.39582 9.34961 2.88989 9.8555 2.88989 10.4796C2.88989 11.1037 3.39582 11.6096 4.0199 11.6096Z" fill="white" fill-opacity="0.3"/>
<path d="M12.0199 11.6096C12.644 11.6096 13.1499 11.1037 13.1499 10.4796C13.1499 9.8555 12.644 9.34961 12.0199 9.34961C11.3958 9.34961 10.8899 9.8555 10.8899 10.4796C10.8899 11.1037 11.3958 11.6096 12.0199 11.6096Z" fill="white" fill-opacity="0.3"/>
<path d="M20.0199 11.6096C20.644 11.6096 21.1499 11.1037 21.1499 10.4796C21.1499 9.8555 20.644 9.34961 20.0199 9.34961C19.3958 9.34961 18.8899 9.8555 18.8899 10.4796C18.8899 11.1037 19.3958 11.6096 20.0199 11.6096Z" fill="white" fill-opacity="0.3"/>
<path d="M28.0199 11.6096C28.644 11.6096 29.1499 11.1037 29.1499 10.4796C29.1499 9.8555 28.644 9.34961 28.0199 9.34961C27.3958 9.34961 26.8899 9.8555 26.8899 10.4796C26.8899 11.1037 27.3958 11.6096 28.0199 11.6096Z" fill="white" fill-opacity="0.3"/>
<path d="M36.0199 11.5696C36.6219 11.5696 37.1099 11.0816 37.1099 10.4796C37.1099 9.87765 36.6219 9.38965 36.0199 9.38965C35.418 9.38965 34.9299 9.87765 34.9299 10.4796C34.9299 11.0816 35.418 11.5696 36.0199 11.5696Z" fill="white" fill-opacity="0.3"/>
<path d="M44.02 11.5399C44.6054 11.5399 45.08 11.0653 45.08 10.4799C45.08 9.8945 44.6054 9.41992 44.02 9.41992C43.4345 9.41992 42.96 9.8945 42.96 10.4799C42.96 11.0653 43.4345 11.5399 44.02 11.5399Z" fill="white" fill-opacity="0.3"/>
<path d="M52.02 11.5204C52.6 11.5204 53.06 11.0504 53.06 10.4804C53.06 9.90041 52.59 9.44043 52.02 9.44043C51.45 9.44043 50.98 9.91041 50.98 10.4804C50.98 11.0604 51.45 11.5204 52.02 11.5204Z" fill="white" fill-opacity="0.3"/>
<path d="M60.0201 11.46C60.5613 11.46 61 11.0212 61 10.48C61 9.93874 60.5613 9.5 60.0201 9.5C59.4788 9.5 59.04 9.93874 59.04 10.48C59.04 11.0212 59.4788 11.46 60.0201 11.46Z" fill="white" fill-opacity="0.3"/>
<path d="M68.0201 11.4098C68.5337 11.4098 68.9501 10.9934 68.9501 10.4798C68.9501 9.96617 68.5337 9.5498 68.0201 9.5498C67.5065 9.5498 67.0901 9.96617 67.0901 10.4798C67.0901 10.9934 67.5065 11.4098 68.0201 11.4098Z" fill="white" fill-opacity="0.3"/>
<path d="M76.0199 11.3504C76.4999 11.3504 76.8899 10.9603 76.8899 10.4803C76.8899 10.0003 76.4999 9.61035 76.0199 9.61035C75.5399 9.61035 75.1499 10.0003 75.1499 10.4803C75.1599 10.9603 75.5399 11.3504 76.0199 11.3504Z" fill="white" fill-opacity="0.3"/>
<path d="M84.02 11.2797C84.4618 11.2797 84.82 10.9215 84.82 10.4797C84.82 10.0378 84.4618 9.67969 84.02 9.67969C83.5781 9.67969 83.22 10.0378 83.22 10.4797C83.22 10.9215 83.5781 11.2797 84.02 11.2797Z" fill="white" fill-opacity="0.3"/>
<path d="M92.02 11.21C92.42 11.21 92.75 10.88 92.75 10.48C92.75 10.08 92.42 9.75 92.02 9.75C91.62 9.75 91.29 10.08 91.29 10.48C91.29 10.89 91.62 11.21 92.02 11.21Z" fill="white" fill-opacity="0.3"/>
<path d="M100.02 11.1496C100.39 11.1496 100.69 10.8496 100.69 10.4796C100.69 10.1095 100.39 9.80957 100.02 9.80957C99.65 9.80957 99.3501 10.1095 99.3501 10.4796C99.3501 10.8496 99.65 11.1496 100.02 11.1496Z" fill="white" fill-opacity="0.3"/>
<path d="M108.02 11.0604C108.34 11.0604 108.6 10.8007 108.6 10.4804C108.6 10.1601 108.34 9.90039 108.02 9.90039C107.7 9.90039 107.44 10.1601 107.44 10.4804C107.44 10.8007 107.7 11.0604 108.02 11.0604Z" fill="white" fill-opacity="0.3"/>
<path d="M116.02 10.9897C116.302 10.9897 116.53 10.7614 116.53 10.4797C116.53 10.198 116.302 9.96973 116.02 9.96973C115.738 9.96973 115.51 10.198 115.51 10.4797C115.51 10.7614 115.738 10.9897 116.02 10.9897Z" fill="white" fill-opacity="0.3"/>
<path d="M124.02 10.8996C124.252 10.8996 124.44 10.7115 124.44 10.4796C124.44 10.2476 124.252 10.0596 124.02 10.0596C123.788 10.0596 123.6 10.2476 123.6 10.4796C123.6 10.7115 123.788 10.8996 124.02 10.8996Z" fill="white" fill-opacity="0.3"/>
<path d="M132.02 10.8104C132.2 10.8104 132.35 10.6604 132.35 10.4804C132.35 10.3004 132.2 10.1504 132.02 10.1504C131.84 10.1504 131.69 10.3004 131.69 10.4804C131.69 10.6704 131.84 10.8104 132.02 10.8104Z" fill="white" fill-opacity="0.3"/>
<path d="M140.02 10.7202C140.153 10.7202 140.26 10.6128 140.26 10.4802C140.26 10.3477 140.153 10.2402 140.02 10.2402C139.887 10.2402 139.78 10.3477 139.78 10.4802C139.78 10.6128 139.887 10.7202 140.02 10.7202Z" fill="white" fill-opacity="0.3"/>
<path d="M148.02 10.6403C148.108 10.6403 148.18 10.5687 148.18 10.4803C148.18 10.392 148.108 10.3203 148.02 10.3203C147.932 10.3203 147.86 10.392 147.86 10.4803C147.86 10.5687 147.932 10.6403 148.02 10.6403Z" fill="white" fill-opacity="0.3"/>
<path d="M156.02 10.5204C156.042 10.5204 156.06 10.5025 156.06 10.4804C156.06 10.4583 156.042 10.4404 156.02 10.4404C155.998 10.4404 155.98 10.4583 155.98 10.4804C155.98 10.5025 155.998 10.5204 156.02 10.5204Z" fill="white" fill-opacity="0.3"/>
<path d="M4.02002 19.4795C4.5723 19.4795 5.02002 19.0318 5.02002 18.4795C5.02002 17.9272 4.5723 17.4795 4.02002 17.4795C3.46773 17.4795 3.02002 17.9272 3.02002 18.4795C3.02002 19.0318 3.46773 19.4795 4.02002 19.4795Z" fill="white" fill-opacity="0.3"/>
<path d="M12.02 19.5C12.58 19.5 13.04 19.0399 13.04 18.4799C13.04 17.9199 12.58 17.46 12.02 17.46C11.46 17.46 11 17.9199 11 18.4799C11 19.0399 11.46 19.5 12.02 19.5Z" fill="white" fill-opacity="0.3"/>
<path d="M20.02 19.5C20.58 19.5 21.04 19.0399 21.04 18.4799C21.04 17.9199 20.58 17.46 20.02 17.46C19.46 17.46 19 17.9199 19 18.4799C19 19.0399 19.46 19.5 20.02 19.5Z" fill="white" fill-opacity="0.3"/>
<path d="M28.02 19.4795C28.5723 19.4795 29.02 19.0318 29.02 18.4795C29.02 17.9272 28.5723 17.4795 28.02 17.4795C27.4677 17.4795 27.02 17.9272 27.02 18.4795C27.02 19.0318 27.4677 19.4795 28.02 19.4795Z" fill="white" fill-opacity="0.3"/>
<path d="M36.0201 19.46C36.5613 19.46 37 19.0212 37 18.48C37 17.9387 36.5613 17.5 36.0201 17.5C35.4788 17.5 35.04 17.9387 35.04 18.48C35.04 19.0212 35.4788 19.46 36.0201 19.46Z" fill="white" fill-opacity="0.3"/>
<path d="M44.0201 19.4303C44.5447 19.4303 44.9701 19.0049 44.9701 18.4803C44.9701 17.9556 44.5447 17.5303 44.0201 17.5303C43.4954 17.5303 43.0701 17.9556 43.0701 18.4803C43.0701 19.0049 43.4954 19.4303 44.0201 19.4303Z" fill="white" fill-opacity="0.3"/>
<path d="M52.0201 19.3903C52.5201 19.3903 52.9301 18.9803 52.9301 18.4803C52.9301 17.9803 52.5201 17.5703 52.0201 17.5703C51.5201 17.5703 51.1101 17.9803 51.1101 18.4803C51.1101 18.9803 51.5201 19.3903 52.0201 19.3903Z" fill="white" fill-opacity="0.3"/>
<path d="M60.0199 19.3504C60.4999 19.3504 60.8899 18.9603 60.8899 18.4803C60.8899 18.0003 60.4999 17.6104 60.0199 17.6104C59.5399 17.6104 59.1499 18.0003 59.1499 18.4803C59.1599 18.9603 59.5399 19.3504 60.0199 19.3504Z" fill="white" fill-opacity="0.3"/>
<path d="M68.02 19.3001C68.4728 19.3001 68.84 18.933 68.84 18.4801C68.84 18.0273 68.4728 17.6602 68.02 17.6602C67.5671 17.6602 67.2 18.0273 67.2 18.4801C67.2 18.933 67.5671 19.3001 68.02 19.3001Z" fill="white" fill-opacity="0.3"/>
<path d="M76.02 19.2402C76.44 19.2402 76.77 18.9002 76.77 18.4902C76.77 18.0702 76.43 17.7402 76.02 17.7402C75.6 17.7402 75.27 18.0802 75.27 18.4902C75.27 18.9002 75.61 19.2402 76.02 19.2402Z" fill="white" fill-opacity="0.3"/>
<path d="M84.0201 19.1895C84.4122 19.1895 84.7301 18.8716 84.7301 18.4795C84.7301 18.0874 84.4122 17.7695 84.0201 17.7695C83.6279 17.7695 83.3101 18.0874 83.3101 18.4795C83.3101 18.8716 83.6279 19.1895 84.0201 19.1895Z" fill="white" fill-opacity="0.3"/>
<path d="M92.0199 19.1198C92.3733 19.1198 92.6599 18.8333 92.6599 18.4798C92.6599 18.1264 92.3733 17.8398 92.0199 17.8398C91.6664 17.8398 91.3799 18.1264 91.3799 18.4798C91.3799 18.8333 91.6664 19.1198 92.0199 19.1198Z" fill="white" fill-opacity="0.3"/>
<path d="M100.02 19.0297C100.324 19.0297 100.57 18.7834 100.57 18.4797C100.57 18.1759 100.324 17.9297 100.02 17.9297C99.7162 17.9297 99.47 18.1759 99.47 18.4797C99.47 18.7834 99.7162 19.0297 100.02 19.0297Z" fill="white" fill-opacity="0.3"/>
<path d="M108.02 18.9702C108.29 18.9702 108.51 18.7502 108.51 18.4802C108.51 18.2102 108.29 17.9902 108.02 17.9902C107.75 17.9902 107.53 18.2102 107.53 18.4802C107.53 18.7502 107.75 18.9702 108.02 18.9702Z" fill="white" fill-opacity="0.3"/>
<path d="M116.02 18.8996C116.252 18.8996 116.44 18.7115 116.44 18.4796C116.44 18.2476 116.252 18.0596 116.02 18.0596C115.788 18.0596 115.6 18.2476 115.6 18.4796C115.6 18.7115 115.788 18.8996 116.02 18.8996Z" fill="white" fill-opacity="0.3"/>
<path d="M124.02 18.8104C124.2 18.8104 124.35 18.6604 124.35 18.4804C124.35 18.3004 124.2 18.1504 124.02 18.1504C123.84 18.1504 123.69 18.3004 123.69 18.4804C123.69 18.6704 123.84 18.8104 124.02 18.8104Z" fill="white" fill-opacity="0.3"/>
<path d="M132.02 18.7202C132.153 18.7202 132.26 18.6128 132.26 18.4802C132.26 18.3477 132.153 18.2402 132.02 18.2402C131.887 18.2402 131.78 18.3477 131.78 18.4802C131.78 18.6128 131.887 18.7202 132.02 18.7202Z" fill="white" fill-opacity="0.3"/>
<path d="M140.02 18.6403C140.108 18.6403 140.18 18.5687 140.18 18.4803C140.18 18.392 140.108 18.3203 140.02 18.3203C139.932 18.3203 139.86 18.392 139.86 18.4803C139.86 18.5687 139.932 18.6403 140.02 18.6403Z" fill="white" fill-opacity="0.3"/>
<path d="M148.02 18.5501C148.06 18.5501 148.09 18.5201 148.09 18.4801C148.09 18.4401 148.06 18.4102 148.02 18.4102C147.98 18.4102 147.95 18.4401 147.95 18.4801C147.96 18.5201 147.99 18.5501 148.02 18.5501Z" fill="white" fill-opacity="0.3"/>
<path d="M4.01988 27.3698C4.50988 27.3698 4.90988 26.9698 4.90988 26.4798C4.90988 25.9898 4.50988 25.5898 4.01988 25.5898C3.52988 25.5898 3.12988 25.9898 3.12988 26.4798C3.12988 26.9698 3.52988 27.3698 4.01988 27.3698Z" fill="white" fill-opacity="0.3"/>
<path d="M12.0199 27.3698C12.5099 27.3698 12.9099 26.9698 12.9099 26.4798C12.9099 25.9898 12.5099 25.5898 12.0199 25.5898C11.5299 25.5898 11.1299 25.9898 11.1299 26.4798C11.1299 26.9698 11.5299 27.3698 12.0199 27.3698Z" fill="white" fill-opacity="0.3"/>
<path d="M20.0199 27.3698C20.5099 27.3698 20.9099 26.9698 20.9099 26.4798C20.9099 25.9898 20.5099 25.5898 20.0199 25.5898C19.5299 25.5898 19.1299 25.9898 19.1299 26.4798C19.1299 26.9698 19.5299 27.3698 20.0199 27.3698Z" fill="white" fill-opacity="0.3"/>
<path d="M28.0199 27.3504C28.4999 27.3504 28.8899 26.9603 28.8899 26.4803C28.8899 26.0003 28.4999 25.6104 28.0199 25.6104C27.5399 25.6104 27.1499 26.0003 27.1499 26.4803C27.1599 26.9603 27.5399 27.3504 28.0199 27.3504Z" fill="white" fill-opacity="0.3"/>
<path d="M36.0199 27.3196C36.4839 27.3196 36.8599 26.9436 36.8599 26.4796C36.8599 26.0157 36.4839 25.6396 36.0199 25.6396C35.556 25.6396 35.1799 26.0157 35.1799 26.4796C35.1799 26.9436 35.556 27.3196 36.0199 27.3196Z" fill="white" fill-opacity="0.3"/>
<path d="M44.02 27.3001C44.4728 27.3001 44.84 26.933 44.84 26.4801C44.84 26.0273 44.4728 25.6602 44.02 25.6602C43.5671 25.6602 43.2 26.0273 43.2 26.4801C43.2 26.933 43.5671 27.3001 44.02 27.3001Z" fill="white" fill-opacity="0.3"/>
<path d="M52.02 27.2797C52.4618 27.2797 52.82 26.9215 52.82 26.4797C52.82 26.0378 52.4618 25.6797 52.02 25.6797C51.5781 25.6797 51.22 26.0378 51.22 26.4797C51.22 26.9215 51.5781 27.2797 52.02 27.2797Z" fill="white" fill-opacity="0.3"/>
<path d="M60.02 27.2402C60.44 27.2402 60.77 26.9002 60.77 26.4902C60.77 26.0702 60.43 25.7402 60.02 25.7402C59.6 25.7402 59.27 26.0802 59.27 26.4902C59.27 26.9002 59.61 27.2402 60.02 27.2402Z" fill="white" fill-opacity="0.3"/>
<path d="M68.0201 27.1895C68.4122 27.1895 68.7301 26.8716 68.7301 26.4795C68.7301 26.0874 68.4122 25.7695 68.0201 25.7695C67.6279 25.7695 67.3101 26.0874 67.3101 26.4795C67.3101 26.8716 67.6279 27.1895 68.0201 27.1895Z" fill="white" fill-opacity="0.3"/>
<path d="M76.0199 27.1198C76.3733 27.1198 76.6599 26.8333 76.6599 26.4798C76.6599 26.1264 76.3733 25.8398 76.0199 25.8398C75.6664 25.8398 75.3799 26.1264 75.3799 26.4798C75.3799 26.8333 75.6664 27.1198 76.0199 27.1198Z" fill="white" fill-opacity="0.3"/>
<path d="M84.0199 27.0799C84.3499 27.0799 84.6199 26.8099 84.6199 26.4799C84.6199 26.1499 84.3499 25.8799 84.0199 25.8799C83.6899 25.8799 83.4199 26.1499 83.4199 26.4799C83.4199 26.8099 83.6899 27.0799 84.0199 27.0799Z" fill="white" fill-opacity="0.3"/>
<path d="M92.02 27.0102C92.3127 27.0102 92.55 26.7729 92.55 26.4802C92.55 26.1875 92.3127 25.9502 92.02 25.9502C91.7273 25.9502 91.49 26.1875 91.49 26.4802C91.49 26.7729 91.7273 27.0102 92.02 27.0102Z" fill="white" fill-opacity="0.3"/>
<path d="M100.02 26.9498C100.28 26.9498 100.49 26.7398 100.49 26.4798C100.49 26.2198 100.28 26.0098 100.02 26.0098C99.7601 26.0098 99.55 26.2198 99.55 26.4798C99.56 26.7398 99.7601 26.9498 100.02 26.9498Z" fill="white" fill-opacity="0.3"/>
<path d="M108.02 26.8801C108.241 26.8801 108.42 26.701 108.42 26.4801C108.42 26.2592 108.241 26.0801 108.02 26.0801C107.799 26.0801 107.62 26.2592 107.62 26.4801C107.62 26.701 107.799 26.8801 108.02 26.8801Z" fill="white" fill-opacity="0.3"/>
<path d="M116.02 26.7899C116.191 26.7899 116.33 26.6511 116.33 26.4799C116.33 26.3087 116.191 26.1699 116.02 26.1699C115.849 26.1699 115.71 26.3087 115.71 26.4799C115.71 26.6511 115.849 26.7899 116.02 26.7899Z" fill="white" fill-opacity="0.3"/>
<path d="M124.02 26.7202C124.153 26.7202 124.26 26.6128 124.26 26.4802C124.26 26.3477 124.153 26.2402 124.02 26.2402C123.887 26.2402 123.78 26.3477 123.78 26.4802C123.78 26.6128 123.887 26.7202 124.02 26.7202Z" fill="white" fill-opacity="0.3"/>
<path d="M132.02 26.6403C132.108 26.6403 132.18 26.5687 132.18 26.4803C132.18 26.392 132.108 26.3203 132.02 26.3203C131.932 26.3203 131.86 26.392 131.86 26.4803C131.86 26.5687 131.932 26.6403 132.02 26.6403Z" fill="white" fill-opacity="0.3"/>
<path d="M140.02 26.5501C140.06 26.5501 140.09 26.5201 140.09 26.4801C140.09 26.4401 140.06 26.4102 140.02 26.4102C139.98 26.4102 139.95 26.4401 139.95 26.4801C139.96 26.5201 139.99 26.5501 140.02 26.5501Z" fill="white" fill-opacity="0.3"/>
<path d="M4.02002 35.2402C4.44002 35.2402 4.77002 34.9002 4.77002 34.4902C4.77002 34.0702 4.43002 33.7402 4.02002 33.7402C3.60002 33.7402 3.27002 34.0802 3.27002 34.4902C3.27002 34.9002 3.61002 35.2402 4.02002 35.2402Z" fill="white" fill-opacity="0.3"/>
<path d="M12.02 35.2402C12.44 35.2402 12.77 34.9002 12.77 34.4902C12.77 34.0702 12.43 33.7402 12.02 33.7402C11.6 33.7402 11.27 34.0802 11.27 34.4902C11.27 34.9002 11.61 35.2402 12.02 35.2402Z" fill="white" fill-opacity="0.3"/>
<path d="M20.02 35.2402C20.44 35.2402 20.77 34.9002 20.77 34.4902C20.77 34.0702 20.43 33.7402 20.02 33.7402C19.6 33.7402 19.27 34.0802 19.27 34.4902C19.27 34.9002 19.61 35.2402 20.02 35.2402Z" fill="white" fill-opacity="0.3"/>
<path d="M28.02 35.2402C28.44 35.2402 28.77 34.9002 28.77 34.4902C28.77 34.0702 28.43 33.7402 28.02 33.7402C27.6 33.7402 27.27 34.0802 27.27 34.4902C27.27 34.9002 27.61 35.2402 28.02 35.2402Z" fill="white" fill-opacity="0.3"/>
<path d="M36.0201 35.21C36.4201 35.21 36.75 34.88 36.75 34.48C36.75 34.08 36.4201 33.75 36.0201 33.75C35.6201 33.75 35.29 34.08 35.29 34.48C35.29 34.89 35.6201 35.21 36.0201 35.21Z" fill="white" fill-opacity="0.3"/>
<path d="M44.0201 35.1895C44.4122 35.1895 44.7301 34.8716 44.7301 34.4795C44.7301 34.0874 44.4122 33.7695 44.0201 33.7695C43.6279 33.7695 43.3101 34.0874 43.3101 34.4795C43.3101 34.8716 43.6279 35.1895 44.0201 35.1895Z" fill="white" fill-opacity="0.3"/>
<path d="M52.0201 35.1496C52.3901 35.1496 52.6901 34.8496 52.6901 34.4796C52.6901 34.1095 52.3901 33.8096 52.0201 33.8096C51.6501 33.8096 51.3501 34.1095 51.3501 34.4796C51.3501 34.8496 51.6501 35.1496 52.0201 35.1496Z" fill="white" fill-opacity="0.3"/>
<path d="M60.0199 35.1198C60.3733 35.1198 60.6599 34.8333 60.6599 34.4798C60.6599 34.1264 60.3733 33.8398 60.0199 33.8398C59.6664 33.8398 59.3799 34.1264 59.3799 34.4798C59.3799 34.8333 59.6664 35.1198 60.0199 35.1198Z" fill="white" fill-opacity="0.3"/>
<path d="M68.0199 35.0799C68.3499 35.0799 68.6199 34.8099 68.6199 34.4799C68.6199 34.1499 68.3499 33.8799 68.0199 33.8799C67.6899 33.8799 67.4199 34.1499 67.4199 34.4799C67.4199 34.8099 67.6899 35.0799 68.0199 35.0799Z" fill="white" fill-opacity="0.3"/>
<path d="M76.02 35.0102C76.3127 35.0102 76.55 34.7729 76.55 34.4802C76.55 34.1875 76.3127 33.9502 76.02 33.9502C75.7273 33.9502 75.49 34.1875 75.49 34.4802C75.49 34.7729 75.7273 35.0102 76.02 35.0102Z" fill="white" fill-opacity="0.3"/>
<path d="M84.02 34.9702C84.29 34.9702 84.51 34.7502 84.51 34.4802C84.51 34.2102 84.29 33.9902 84.02 33.9902C83.75 33.9902 83.53 34.2102 83.53 34.4802C83.53 34.7502 83.75 34.9702 84.02 34.9702Z" fill="white" fill-opacity="0.3"/>
<path d="M92.0201 34.8996C92.252 34.8996 92.4401 34.7115 92.4401 34.4796C92.4401 34.2476 92.252 34.0596 92.0201 34.0596C91.7881 34.0596 91.6001 34.2476 91.6001 34.4796C91.6001 34.7115 91.7881 34.8996 92.0201 34.8996Z" fill="white" fill-opacity="0.3"/>
<path d="M100.02 34.8397C100.22 34.8397 100.37 34.6797 100.37 34.4897C100.37 34.2897 100.21 34.1396 100.02 34.1396C99.8199 34.1396 99.6699 34.2997 99.6699 34.4897C99.6699 34.6797 99.8299 34.8397 100.02 34.8397Z" fill="white" fill-opacity="0.3"/>
<path d="M108.02 34.7704C108.18 34.7704 108.31 34.6406 108.31 34.4804C108.31 34.3202 108.18 34.1904 108.02 34.1904C107.86 34.1904 107.73 34.3202 107.73 34.4804C107.73 34.6406 107.86 34.7704 108.02 34.7704Z" fill="white" fill-opacity="0.3"/>
<path d="M116.02 34.6998C116.14 34.6998 116.24 34.5998 116.24 34.4798C116.24 34.3598 116.14 34.2598 116.02 34.2598C115.9 34.2598 115.8 34.3598 115.8 34.4798C115.8 34.5998 115.9 34.6998 116.02 34.6998Z" fill="white" fill-opacity="0.3"/>
<path d="M124.02 34.6403C124.108 34.6403 124.18 34.5687 124.18 34.4803C124.18 34.392 124.108 34.3203 124.02 34.3203C123.932 34.3203 123.86 34.392 123.86 34.4803C123.86 34.5687 123.932 34.6403 124.02 34.6403Z" fill="white" fill-opacity="0.3"/>
<path d="M132.02 34.5501C132.06 34.5501 132.09 34.5201 132.09 34.4801C132.09 34.4401 132.06 34.4102 132.02 34.4102C131.98 34.4102 131.95 34.4401 131.95 34.4801C131.96 34.5201 131.99 34.5501 132.02 34.5501Z" fill="white" fill-opacity="0.3"/>
<path d="M4.01988 43.1198C4.37334 43.1198 4.65988 42.8333 4.65988 42.4798C4.65988 42.1264 4.37334 41.8398 4.01988 41.8398C3.66642 41.8398 3.37988 42.1264 3.37988 42.4798C3.37988 42.8333 3.66642 43.1198 4.01988 43.1198Z" fill="white" fill-opacity="0.3"/>
<path d="M12.0199 43.1198C12.3733 43.1198 12.6599 42.8333 12.6599 42.4798C12.6599 42.1264 12.3733 41.8398 12.0199 41.8398C11.6664 41.8398 11.3799 42.1264 11.3799 42.4798C11.3799 42.8333 11.6664 43.1198 12.0199 43.1198Z" fill="white" fill-opacity="0.3"/>
<path d="M20.0199 43.1198C20.3733 43.1198 20.6599 42.8333 20.6599 42.4798C20.6599 42.1264 20.3733 41.8398 20.0199 41.8398C19.6664 41.8398 19.3799 42.1264 19.3799 42.4798C19.3799 42.8333 19.6664 43.1198 20.0199 43.1198Z" fill="white" fill-opacity="0.3"/>
<path d="M28.0199 43.1004C28.3599 43.1004 28.6399 42.8203 28.6399 42.4803C28.6399 42.1403 28.3599 41.8604 28.0199 41.8604C27.6799 41.8604 27.3999 42.1403 27.3999 42.4803C27.3999 42.8303 27.6799 43.1004 28.0199 43.1004Z" fill="white" fill-opacity="0.3"/>
<path d="M36.0199 43.0799C36.3499 43.0799 36.6199 42.8099 36.6199 42.4799C36.6199 42.1499 36.3499 41.8799 36.0199 41.8799C35.6899 41.8799 35.4199 42.1499 35.4199 42.4799C35.4199 42.8099 35.6899 43.0799 36.0199 43.0799Z" fill="white" fill-opacity="0.3"/>
<path d="M44.0199 43.0604C44.3403 43.0604 44.5999 42.8007 44.5999 42.4804C44.5999 42.1601 44.3403 41.9004 44.0199 41.9004C43.6996 41.9004 43.4399 42.1601 43.4399 42.4804C43.4399 42.8007 43.6996 43.0604 44.0199 43.0604Z" fill="white" fill-opacity="0.3"/>
<path d="M52.02 43.0297C52.3237 43.0297 52.57 42.7834 52.57 42.4797C52.57 42.1759 52.3237 41.9297 52.02 41.9297C51.7162 41.9297 51.47 42.1759 51.47 42.4797C51.47 42.7834 51.7162 43.0297 52.02 43.0297Z" fill="white" fill-opacity="0.3"/>
<path d="M60.02 42.9897C60.3017 42.9897 60.53 42.7614 60.53 42.4797C60.53 42.198 60.3017 41.9697 60.02 41.9697C59.7384 41.9697 59.51 42.198 59.51 42.4797C59.51 42.7614 59.7384 42.9897 60.02 42.9897Z" fill="white" fill-opacity="0.3"/>
<path d="M68.02 42.9702C68.29 42.9702 68.51 42.7502 68.51 42.4802C68.51 42.2102 68.29 41.9902 68.02 41.9902C67.75 41.9902 67.53 42.2102 67.53 42.4802C67.53 42.7502 67.75 42.9702 68.02 42.9702Z" fill="white" fill-opacity="0.3"/>
<path d="M76.0201 42.8996C76.2521 42.8996 76.4401 42.7115 76.4401 42.4796C76.4401 42.2476 76.2521 42.0596 76.0201 42.0596C75.7881 42.0596 75.6001 42.2476 75.6001 42.4796C75.6001 42.7115 75.7881 42.8996 76.0201 42.8996Z" fill="white" fill-opacity="0.3"/>
<path d="M84.0199 42.8596C84.2298 42.8596 84.3999 42.6895 84.3999 42.4796C84.3999 42.2697 84.2298 42.0996 84.0199 42.0996C83.81 42.0996 83.6399 42.2697 83.6399 42.4796C83.6399 42.6895 83.81 42.8596 84.0199 42.8596Z" fill="white" fill-opacity="0.3"/>
<path d="M92.0199 42.8104C92.1999 42.8104 92.3499 42.6604 92.3499 42.4804C92.3499 42.3004 92.1999 42.1504 92.0199 42.1504C91.8399 42.1504 91.6899 42.3004 91.6899 42.4804C91.6899 42.6704 91.8399 42.8104 92.0199 42.8104Z" fill="white" fill-opacity="0.3"/>
<path d="M100.02 42.75C100.169 42.75 100.29 42.6291 100.29 42.4799C100.29 42.3308 100.169 42.21 100.02 42.21C99.8709 42.21 99.75 42.3308 99.75 42.4799C99.75 42.6291 99.8709 42.75 100.02 42.75Z" fill="white" fill-opacity="0.3"/>
<path d="M108.02 42.6803C108.13 42.6803 108.22 42.5903 108.22 42.4803C108.22 42.3703 108.13 42.2803 108.02 42.2803C107.91 42.2803 107.82 42.3703 107.82 42.4803C107.82 42.5903 107.91 42.6803 108.02 42.6803Z" fill="white" fill-opacity="0.3"/>
<path d="M116.02 42.6096C116.092 42.6096 116.15 42.5514 116.15 42.4796C116.15 42.4078 116.092 42.3496 116.02 42.3496C115.948 42.3496 115.89 42.4078 115.89 42.4796C115.89 42.5514 115.948 42.6096 116.02 42.6096Z" fill="white" fill-opacity="0.3"/>
<path d="M124.02 42.5204C124.042 42.5204 124.06 42.5025 124.06 42.4804C124.06 42.4583 124.042 42.4404 124.02 42.4404C123.998 42.4404 123.98 42.4583 123.98 42.4804C123.98 42.5025 123.998 42.5204 124.02 42.5204Z" fill="white" fill-opacity="0.3"/>
<path d="M4.02002 50.9897C4.30168 50.9897 4.53001 50.7614 4.53001 50.4797C4.53001 50.198 4.30168 49.9697 4.02002 49.9697C3.73835 49.9697 3.51001 50.198 3.51001 50.4797C3.51001 50.7614 3.73835 50.9897 4.02002 50.9897Z" fill="white" fill-opacity="0.3"/>
<path d="M12.02 50.9897C12.3017 50.9897 12.53 50.7614 12.53 50.4797C12.53 50.198 12.3017 49.9697 12.02 49.9697C11.7384 49.9697 11.51 50.198 11.51 50.4797C11.51 50.7614 11.7384 50.9897 12.02 50.9897Z" fill="white" fill-opacity="0.3"/>
<path d="M20.02 50.9897C20.3017 50.9897 20.53 50.7614 20.53 50.4797C20.53 50.198 20.3017 49.9697 20.02 49.9697C19.7384 49.9697 19.51 50.198 19.51 50.4797C19.51 50.7614 19.7384 50.9897 20.02 50.9897Z" fill="white" fill-opacity="0.3"/>
<path d="M28.02 50.9897C28.3017 50.9897 28.53 50.7614 28.53 50.4797C28.53 50.198 28.3017 49.9697 28.02 49.9697C27.7384 49.9697 27.51 50.198 27.51 50.4797C27.51 50.7614 27.7384 50.9897 28.02 50.9897Z" fill="white" fill-opacity="0.3"/>
<path d="M36.02 50.9702C36.29 50.9702 36.51 50.7502 36.51 50.4802C36.51 50.2102 36.29 49.9902 36.02 49.9902C35.75 49.9902 35.53 50.2102 35.53 50.4802C35.53 50.7502 35.75 50.9702 36.02 50.9702Z" fill="white" fill-opacity="0.3"/>
<path d="M44.0201 50.9498C44.2801 50.9498 44.4901 50.7398 44.4901 50.4798C44.4901 50.2198 44.2801 50.0098 44.0201 50.0098C43.7601 50.0098 43.55 50.2198 43.55 50.4798C43.56 50.7398 43.7601 50.9498 44.0201 50.9498Z" fill="white" fill-opacity="0.3"/>
<path d="M52.0201 50.92C52.2631 50.92 52.4601 50.723 52.4601 50.48C52.4601 50.237 52.2631 50.04 52.0201 50.04C51.7771 50.04 51.5801 50.237 51.5801 50.48C51.5801 50.723 51.7771 50.92 52.0201 50.92Z" fill="white" fill-opacity="0.3"/>
<path d="M60.0201 50.8801C60.241 50.8801 60.4201 50.701 60.4201 50.4801C60.4201 50.2592 60.241 50.0801 60.0201 50.0801C59.7992 50.0801 59.6201 50.2592 59.6201 50.4801C59.6201 50.701 59.7992 50.8801 60.0201 50.8801Z" fill="white" fill-opacity="0.3"/>
<path d="M68.0199 50.8397C68.2199 50.8397 68.3699 50.6797 68.3699 50.4897C68.3699 50.2897 68.2099 50.1396 68.0199 50.1396C67.8299 50.1396 67.6699 50.2997 67.6699 50.4897C67.6699 50.6797 67.8299 50.8397 68.0199 50.8397Z" fill="white" fill-opacity="0.3"/>
<path d="M76.02 50.7899C76.1912 50.7899 76.33 50.6511 76.33 50.4799C76.33 50.3087 76.1912 50.1699 76.02 50.1699C75.8488 50.1699 75.71 50.3087 75.71 50.4799C75.71 50.6511 75.8488 50.7899 76.02 50.7899Z" fill="white" fill-opacity="0.3"/>
<path d="M84.02 50.75C84.1691 50.75 84.29 50.6291 84.29 50.4799C84.29 50.3308 84.1691 50.21 84.02 50.21C83.8709 50.21 83.75 50.3308 83.75 50.4799C83.75 50.6291 83.8709 50.75 84.02 50.75Z" fill="white" fill-opacity="0.3"/>
<path d="M92.0201 50.6998C92.1401 50.6998 92.2401 50.5998 92.2401 50.4798C92.2401 50.3598 92.1401 50.2598 92.0201 50.2598C91.9001 50.2598 91.8 50.3598 91.8 50.4798C91.8 50.5998 91.9001 50.6998 92.0201 50.6998Z" fill="white" fill-opacity="0.3"/>
<path d="M100.02 50.6403C100.108 50.6403 100.18 50.5687 100.18 50.4803C100.18 50.392 100.108 50.3203 100.02 50.3203C99.9315 50.3203 99.8599 50.392 99.8599 50.4803C99.8599 50.5687 99.9315 50.6403 100.02 50.6403Z" fill="white" fill-opacity="0.3"/>
<path d="M108.02 50.5696C108.07 50.5696 108.11 50.5296 108.11 50.4796C108.11 50.4296 108.07 50.3896 108.02 50.3896C107.97 50.3896 107.93 50.4296 107.93 50.4796C107.93 50.5296 107.97 50.5696 108.02 50.5696Z" fill="white" fill-opacity="0.3"/>
<path d="M116.02 50.5C116.031 50.5 116.04 50.491 116.04 50.4799C116.04 50.4689 116.031 50.46 116.02 50.46C116.009 50.46 116 50.4689 116 50.4799C116 50.491 116.009 50.5 116.02 50.5Z" fill="white" fill-opacity="0.3"/>
<path d="M4.02013 58.8801C4.24104 58.8801 4.42012 58.701 4.42012 58.4801C4.42012 58.2592 4.24104 58.0801 4.02013 58.0801C3.79921 58.0801 3.62012 58.2592 3.62012 58.4801C3.62012 58.701 3.79921 58.8801 4.02013 58.8801Z" fill="white" fill-opacity="0.3"/>
<path d="M12.0201 58.8801C12.241 58.8801 12.4201 58.701 12.4201 58.4801C12.4201 58.2592 12.241 58.0801 12.0201 58.0801C11.7992 58.0801 11.6201 58.2592 11.6201 58.4801C11.6201 58.701 11.7992 58.8801 12.0201 58.8801Z" fill="white" fill-opacity="0.3"/>
<path d="M20.0201 58.8801C20.241 58.8801 20.4201 58.701 20.4201 58.4801C20.4201 58.2592 20.241 58.0801 20.0201 58.0801C19.7992 58.0801 19.6201 58.2592 19.6201 58.4801C19.6201 58.701 19.7992 58.8801 20.0201 58.8801Z" fill="white" fill-opacity="0.3"/>
<path d="M28.0199 58.8596C28.2298 58.8596 28.3999 58.6895 28.3999 58.4796C28.3999 58.2697 28.2298 58.0996 28.0199 58.0996C27.81 58.0996 27.6399 58.2697 27.6399 58.4796C27.6399 58.6895 27.81 58.8596 28.0199 58.8596Z" fill="white" fill-opacity="0.3"/>
<path d="M36.0199 58.8596C36.2298 58.8596 36.3999 58.6895 36.3999 58.4796C36.3999 58.2697 36.2298 58.0996 36.0199 58.0996C35.81 58.0996 35.6399 58.2697 35.6399 58.4796C35.6399 58.6895 35.81 58.8596 36.0199 58.8596Z" fill="white" fill-opacity="0.3"/>
<path d="M44.0199 58.8397C44.2199 58.8397 44.3699 58.6797 44.3699 58.4897C44.3699 58.2897 44.2099 58.1396 44.0199 58.1396C43.8299 58.1396 43.6699 58.2997 43.6699 58.4897C43.6699 58.6797 43.8299 58.8397 44.0199 58.8397Z" fill="white" fill-opacity="0.3"/>
<path d="M52.02 58.7899C52.1912 58.7899 52.33 58.6511 52.33 58.4799C52.33 58.3087 52.1912 58.1699 52.02 58.1699C51.8488 58.1699 51.71 58.3087 51.71 58.4799C51.71 58.6511 51.8488 58.7899 52.02 58.7899Z" fill="white" fill-opacity="0.3"/>
<path d="M60.02 58.7704C60.1802 58.7704 60.31 58.6406 60.31 58.4804C60.31 58.3202 60.1802 58.1904 60.02 58.1904C59.8598 58.1904 59.73 58.3202 59.73 58.4804C59.73 58.6406 59.8598 58.7704 60.02 58.7704Z" fill="white" fill-opacity="0.3"/>
<path d="M68.02 58.7202C68.1526 58.7202 68.26 58.6128 68.26 58.4802C68.26 58.3477 68.1526 58.2402 68.02 58.2402C67.8875 58.2402 67.78 58.3477 67.78 58.4802C67.78 58.6128 67.8875 58.7202 68.02 58.7202Z" fill="white" fill-opacity="0.3"/>
<path d="M76.0201 58.6803C76.1301 58.6803 76.2201 58.5903 76.2201 58.4803C76.2201 58.3703 76.1301 58.2803 76.0201 58.2803C75.9101 58.2803 75.8201 58.3703 75.8201 58.4803C75.8201 58.5903 75.9101 58.6803 76.0201 58.6803Z" fill="white" fill-opacity="0.3"/>
<path d="M84.0201 58.6403C84.1085 58.6403 84.1801 58.5687 84.1801 58.4803C84.1801 58.392 84.1085 58.3203 84.0201 58.3203C83.9317 58.3203 83.8601 58.392 83.8601 58.4803C83.8601 58.5687 83.9317 58.6403 84.0201 58.6403Z" fill="white" fill-opacity="0.3"/>
<path d="M92.0199 58.5901C92.0806 58.5901 92.1299 58.5409 92.1299 58.4801C92.1299 58.4194 92.0806 58.3701 92.0199 58.3701C91.9591 58.3701 91.9099 58.4194 91.9099 58.4801C91.9099 58.5409 91.9591 58.5901 92.0199 58.5901Z" fill="white" fill-opacity="0.3"/>
<path d="M100.02 58.5204C100.042 58.5204 100.06 58.5025 100.06 58.4804C100.06 58.4583 100.042 58.4404 100.02 58.4404C99.9979 58.4404 99.98 58.4583 99.98 58.4804C99.98 58.5025 99.9979 58.5204 100.02 58.5204Z" fill="white" fill-opacity="0.3"/>
<path d="M356.131 1.06049C356.151 1.06049 356.171 1.04048 356.171 1.02048C356.171 1.00048 356.151 0.980469 356.131 0.980469C356.111 0.980469 356.091 1.00048 356.091 1.02048C356.081 1.04048 356.101 1.06049 356.131 1.06049Z" fill="#183DBF" fill-opacity="0.4"/>
<path d="M364.131 1.14966C364.201 1.14966 364.261 1.08965 364.261 1.01965C364.261 0.949653 364.201 0.889648 364.131 0.889648C364.061 0.889648 364.001 0.949653 364.001 1.01965C363.991 1.08965 364.051 1.14966 364.131 1.14966Z" fill="#183DBF" fill-opacity="0.4"/>
<path d="M372.131 1.20956C372.241 1.20956 372.331 1.11955 372.331 1.00955C372.331 0.899552 372.241 0.80957 372.131 0.80957C372.021 0.80957 371.931 0.899552 371.931 1.00955C371.931 1.11955 372.021 1.20956 372.131 1.20956Z" fill="#183DBF" fill-opacity="0.4"/>
<path d="M380.131 1.29974C380.291 1.29974 380.421 1.16974 380.421 1.00974C380.421 0.849735 380.291 0.719727 380.131 0.719727C379.971 0.719727 379.841 0.849735 379.841 1.00974C379.841 1.16974 379.971 1.29974 380.131 1.29974Z" fill="#183DBF" fill-opacity="0.4"/>
<path d="M388.131 1.37018C388.331 1.37018 388.481 1.21017 388.481 1.02017C388.481 0.820172 388.321 0.660156 388.131 0.660156C387.941 0.660156 387.781 0.820172 387.781 1.02017C387.771 1.21017 387.931 1.37018 388.131 1.37018Z" fill="#183DBF" fill-opacity="0.4"/>
<path d="M396.131 1.43961C396.361 1.43961 396.551 1.24962 396.551 1.01962C396.551 0.789623 396.361 0.599609 396.131 0.599609C395.901 0.599609 395.711 0.789623 395.711 1.01962C395.711 1.24962 395.891 1.43961 396.131 1.43961Z" fill="#183DBF" fill-opacity="0.4"/>
<path d="M404.131 1.48004C404.391 1.48004 404.601 1.27004 404.601 1.01004C404.601 0.75004 404.391 0.540039 404.131 0.540039C403.871 0.540039 403.661 0.75004 403.661 1.01004C403.661 1.27004 403.871 1.48004 404.131 1.48004Z" fill="#183DBF" fill-opacity="0.4"/>
<path d="M412.131 1.55023C412.421 1.55023 412.661 1.31023 412.661 1.02023C412.661 0.730233 412.421 0.490234 412.131 0.490234C411.841 0.490234 411.601 0.730233 411.601 1.02023C411.591 1.31023 411.831 1.55023 412.131 1.55023Z" fill="#183DBF" fill-opacity="0.4"/>
<path d="M420.131 1.58969C420.451 1.58969 420.711 1.32967 420.711 1.00967C420.711 0.689674 420.451 0.429688 420.131 0.429688C419.811 0.429688 419.551 0.689674 419.551 1.00967C419.551 1.32967 419.811 1.58969 420.131 1.58969Z" fill="#183DBF" fill-opacity="0.4"/>
<path d="M428.131 1.62964C428.471 1.62964 428.751 1.34964 428.751 1.00964C428.751 0.669644 428.471 0.389648 428.131 0.389648C427.791 0.389648 427.511 0.669644 427.511 1.00964C427.511 1.35964 427.781 1.62964 428.131 1.62964Z" fill="#183DBF" fill-opacity="0.4"/>
<path d="M436.131 1.67984C436.501 1.67984 436.801 1.37983 436.801 1.00983C436.801 0.639827 436.501 0.339844 436.131 0.339844C435.761 0.339844 435.461 0.639827 435.461 1.00983C435.461 1.37983 435.761 1.67984 436.131 1.67984Z" fill="#183DBF" fill-opacity="0.4"/>
<path d="M444.131 1.70032C444.511 1.70032 444.821 1.39031 444.821 1.01031C444.821 0.630315 444.511 0.320312 444.131 0.320312C443.751 0.320312 443.441 0.630315 443.441 1.01031C443.441 1.39031 443.751 1.70032 444.131 1.70032Z" fill="#183DBF" fill-opacity="0.4"/>
<path d="M452.131 1.71979C452.521 1.71979 452.841 1.3998 452.841 1.0098C452.841 0.619796 452.521 0.299805 452.131 0.299805C451.741 0.299805 451.421 0.619796 451.421 1.0098C451.421 1.4098 451.731 1.71979 452.131 1.71979Z" fill="#183DBF" fill-opacity="0.4"/>
<path d="M460.131 1.75003C460.531 1.75003 460.861 1.42005 460.861 1.02005C460.861 0.62005 460.531 0.290039 460.131 0.290039C459.731 0.290039 459.401 0.62005 459.401 1.02005C459.391 1.42005 459.721 1.75003 460.131 1.75003Z" fill="#183DBF" fill-opacity="0.4"/>
<path d="M468.131 1.75003C468.531 1.75003 468.861 1.42005 468.861 1.02005C468.861 0.62005 468.531 0.290039 468.131 0.290039C467.731 0.290039 467.401 0.62005 467.401 1.02005C467.391 1.42005 467.721 1.75003 468.131 1.75003Z" fill="#183DBF" fill-opacity="0.4"/>
<path d="M476.131 1.76953C476.551 1.76953 476.881 1.42953 476.881 1.01953C476.881 0.599531 476.541 0.269531 476.131 0.269531C475.721 0.269531 475.381 0.609531 475.381 1.01953C475.371 1.42953 475.711 1.76953 476.131 1.76953Z" fill="#183DBF" fill-opacity="0.4"/>
<path d="M348.131 9.08044C348.171 9.08044 348.201 9.05044 348.201 9.01044C348.201 8.97044 348.171 8.94043 348.131 8.94043C348.091 8.94043 348.061 8.97044 348.061 9.01044C348.061 9.05044 348.091 9.08044 348.131 9.08044Z" fill="#183DBF" fill-opacity="0.4"/>
<path d="M356.131 9.14966C356.201 9.14966 356.261 9.08965 356.261 9.01965C356.261 8.94965 356.201 8.88965 356.131 8.88965C356.061 8.88965 356.001 8.94965 356.001 9.01965C355.991 9.08965 356.051 9.14966 356.131 9.14966Z" fill="#183DBF" fill-opacity="0.4"/>
<path d="M364.131 9.23981C364.251 9.23981 364.351 9.13981 364.351 9.01981C364.351 8.89981 364.251 8.7998 364.131 8.7998C364.011 8.7998 363.911 8.89981 363.911 9.01981C363.901 9.13981 364.001 9.23981 364.131 9.23981Z" fill="#183DBF" fill-opacity="0.4"/>
<path d="M372.131 9.32019C372.301 9.32019 372.441 9.18019 372.441 9.01019C372.441 8.84019 372.301 8.7002 372.131 8.7002C371.961 8.7002 371.821 8.84019 371.821 9.01019C371.821 9.19019 371.961 9.32019 372.131 9.32019Z" fill="#183DBF" fill-opacity="0.4"/>
<path d="M380.131 9.38989C380.341 9.38989 380.511 9.21989 380.511 9.00989C380.511 8.79989 380.341 8.62988 380.131 8.62988C379.921 8.62988 379.751 8.79989 379.751 9.00989C379.751 9.21989 379.921 9.38989 380.131 9.38989Z" fill="#183DBF" fill-opacity="0.4"/>
<path d="M388.131 9.46008C388.371 9.46008 388.571 9.26008 388.571 9.02008C388.571 8.77008 388.371 8.58008 388.131 8.58008C387.891 8.58008 387.691 8.78008 387.691 9.02008C387.681 9.26008 387.881 9.46008 388.131 9.46008Z" fill="#183DBF" fill-opacity="0.4"/>
<path d="M396.131 9.52002C396.411 9.52002 396.641 9.29001 396.641 9.01001C396.641 8.73001 396.411 8.5 396.131 8.5C395.851 8.5 395.621 8.73001 395.621 9.01001C395.621 9.30001 395.841 9.52002 396.131 9.52002Z" fill="#183DBF" fill-opacity="0.4"/>
<path d="M404.131 9.58969C404.451 9.58969 404.711 9.32967 404.711 9.00967C404.711 8.68967 404.451 8.42969 404.131 8.42969C403.811 8.42969 403.551 8.68967 403.551 9.00967C403.551 9.32967 403.811 9.58969 404.131 9.58969Z" fill="#183DBF" fill-opacity="0.4"/>
<path d="M412.131 9.65988C412.491 9.65988 412.771 9.3699 412.771 9.0199C412.771 8.6599 412.481 8.37988 412.131 8.37988C411.781 8.37988 411.491 8.6699 411.491 9.0199C411.481 9.3699 411.771 9.65988 412.131 9.65988Z" fill="#183DBF" fill-opacity="0.4"/>
<path d="M420.131 9.70032C420.511 9.70032 420.821 9.39031 420.821 9.01031C420.821 8.63031 420.511 8.32031 420.131 8.32031C419.751 8.32031 419.441 8.63031 419.441 9.01031C419.441 9.39031 419.751 9.70032 420.131 9.70032Z" fill="#183DBF" fill-opacity="0.4"/>
<path d="M428.131 9.75003C428.531 9.75003 428.861 9.42005 428.861 9.02005C428.861 8.62005 428.531 8.29004 428.131 8.29004C427.731 8.29004 427.401 8.62005 427.401 9.02005C427.391 9.42005 427.721 9.75003 428.131 9.75003Z" fill="#183DBF" fill-opacity="0.4"/>
<path d="M436.131 9.79047C436.561 9.79047 436.911 9.44047 436.911 9.01047C436.911 8.58047 436.561 8.23047 436.131 8.23047C435.701 8.23047 435.351 8.58047 435.351 9.01047C435.351 9.44047 435.701 9.79047 436.131 9.79047Z" fill="#183DBF" fill-opacity="0.4"/>
<path d="M444.131 9.83044C444.581 9.83044 444.951 9.46044 444.951 9.01044C444.951 8.56044 444.581 8.19043 444.131 8.19043C443.681 8.19043 443.311 8.56044 443.311 9.01044C443.311 9.47044 443.671 9.83044 444.131 9.83044Z" fill="#183DBF" fill-opacity="0.4"/>
<path d="M452.131 9.85968C452.601 9.85968 452.971 9.47968 452.971 9.01968C452.971 8.54968 452.591 8.17969 452.131 8.17969C451.671 8.17969 451.291 8.55968 451.291 9.01968C451.281 9.47968 451.661 9.85968 452.131 9.85968Z" fill="#183DBF" fill-opacity="0.4"/>
<path d="M460.131 9.85968C460.601 9.85968 460.971 9.47968 460.971 9.01968C460.971 8.54968 460.591 8.17969 460.131 8.17969C459.671 8.17969 459.291 8.55968 459.291 9.01968C459.281 9.47968 459.661 9.85968 460.131 9.85968Z" fill="#183DBF" fill-opacity="0.4"/>
<path d="M468.131 9.87964C468.611 9.87964 469.001 9.48964 469.001 9.00964C469.001 8.52964 468.611 8.13965 468.131 8.13965C467.651 8.13965 467.261 8.52964 467.261 9.00964C467.261 9.48964 467.651 9.87964 468.131 9.87964Z" fill="#183DBF" fill-opacity="0.4"/>
<path d="M476.131 9.87964C476.611 9.87964 477.001 9.48964 477.001 9.00964C477.001 8.52964 476.611 8.13965 476.131 8.13965C475.651 8.13965 475.261 8.52964 475.261 9.00964C475.261 9.48964 475.651 9.87964 476.131 9.87964Z" fill="#183DBF" fill-opacity="0.4"/>
<path d="M340.131 17.0605C340.151 17.0605 340.171 17.0405 340.171 17.0205C340.171 17.0005 340.151 16.9805 340.131 16.9805C340.111 16.9805 340.091 17.0005 340.091 17.0205C340.081 17.0405 340.101 17.0605 340.131 17.0605Z" fill="#183DBF" fill-opacity="0.4"/>
<path d="M348.131 17.1497C348.201 17.1497 348.261 17.0897 348.261 17.0197C348.261 16.9497 348.201 16.8896 348.131 16.8896C348.061 16.8896 348.001 16.9497 348.001 17.0197C347.991 17.0897 348.051 17.1497 348.131 17.1497Z" fill="#183DBF" fill-opacity="0.4"/>
<path d="M356.131 17.2398C356.251 17.2398 356.351 17.1398 356.351 17.0198C356.351 16.8998 356.251 16.7998 356.131 16.7998C356.011 16.7998 355.911 16.8998 355.911 17.0198C355.901 17.1398 356.001 17.2398 356.131 17.2398Z" fill="#183DBF" fill-opacity="0.4"/>
<path d="M364.131 17.3202C364.301 17.3202 364.441 17.1802 364.441 17.0102C364.441 16.8402 364.301 16.7002 364.131 16.7002C363.961 16.7002 363.821 16.8402 363.821 17.0102C363.821 17.1902 363.961 17.3202 364.131 17.3202Z" fill="#183DBF" fill-opacity="0.4"/>
<path d="M372.131 17.4103C372.351 17.4103 372.531 17.2303 372.531 17.0103C372.531 16.7903 372.351 16.6104 372.131 16.6104C371.911 16.6104 371.731 16.7903 371.731 17.0103C371.731 17.2303 371.911 17.4103 372.131 17.4103Z" fill="#183DBF" fill-opacity="0.4"/>
<path d="M380.131 17.48C380.391 17.48 380.601 17.27 380.601 17.01C380.601 16.75 380.391 16.54 380.131 16.54C379.871 16.54 379.661 16.75 379.661 17.01C379.661 17.27 379.871 17.48 380.131 17.48Z" fill="#183DBF" fill-opacity="0.4"/>
<path d="M388.131 17.5697C388.441 17.5697 388.681 17.3197 388.681 17.0197C388.681 16.7097 388.431 16.4697 388.131 16.4697C387.831 16.4697 387.581 16.7197 387.581 17.0197C387.571 17.3197 387.821 17.5697 388.131 17.5697Z" fill="#183DBF" fill-opacity="0.4"/>
<path d="M396.131 17.6296C396.471 17.6296 396.751 17.3496 396.751 17.0096C396.751 16.6696 396.471 16.3896 396.131 16.3896C395.791 16.3896 395.511 16.6696 395.511 17.0096C395.511 17.3596 395.781 17.6296 396.131 17.6296Z" fill="#183DBF" fill-opacity="0.4"/>
<path d="M404.131 17.7003C404.511 17.7003 404.821 17.3903 404.821 17.0103C404.821 16.6303 404.511 16.3203 404.131 16.3203C403.751 16.3203 403.441 16.6303 403.441 17.0103C403.441 17.3903 403.751 17.7003 404.131 17.7003Z" fill="#183DBF" fill-opacity="0.4"/>
<path d="M412.131 17.7695C412.551 17.7695 412.881 17.4295 412.881 17.0195C412.881 16.5995 412.541 16.2695 412.131 16.2695C411.721 16.2695 411.381 16.6095 411.381 17.0195C411.371 17.4295 411.711 17.7695 412.131 17.7695Z" fill="#183DBF" fill-opacity="0.4"/>
<path d="M420.131 17.81C420.571 17.81 420.931 17.4499 420.931 17.0099C420.931 16.5699 420.571 16.21 420.131 16.21C419.691 16.21 419.331 16.5699 419.331 17.0099C419.331 17.4499 419.691 17.81 420.131 17.81Z" fill="#183DBF" fill-opacity="0.4"/>
<path d="M428.131 17.8597C428.601 17.8597 428.971 17.4797 428.971 17.0197C428.971 16.5497 428.591 16.1797 428.131 16.1797C427.671 16.1797 427.291 16.5597 427.291 17.0197C427.281 17.4797 427.661 17.8597 428.131 17.8597Z" fill="#183DBF" fill-opacity="0.4"/>
<path d="M436.131 17.9001C436.621 17.9001 437.021 17.5001 437.021 17.0101C437.021 16.5201 436.621 16.1201 436.131 16.1201C435.641 16.1201 435.241 16.5201 435.241 17.0101C435.241 17.5001 435.641 17.9001 436.131 17.9001Z" fill="#183DBF" fill-opacity="0.4"/>
<path d="M444.131 17.9498C444.641 17.9498 445.061 17.5298 445.061 17.0198C445.061 16.5098 444.641 16.0898 444.131 16.0898C443.621 16.0898 443.201 16.5098 443.201 17.0198C443.191 17.5298 443.611 17.9498 444.131 17.9498Z" fill="#183DBF" fill-opacity="0.4"/>
<path d="M452.131 17.9703C452.661 17.9703 453.081 17.5403 453.081 17.0203C453.081 16.4903 452.651 16.0703 452.131 16.0703C451.611 16.0703 451.181 16.5003 451.181 17.0203C451.171 17.5403 451.601 17.9703 452.131 17.9703Z" fill="#183DBF" fill-opacity="0.4"/>
<path d="M460.131 17.9903C460.671 17.9903 461.111 17.5503 461.111 17.0103C461.111 16.4703 460.671 16.0303 460.131 16.0303C459.591 16.0303 459.151 16.4703 459.151 17.0103C459.151 17.5503 459.591 17.9903 460.131 17.9903Z" fill="#183DBF" fill-opacity="0.4"/>
<path d="M468.131 18.0098C468.681 18.0098 469.131 17.5598 469.131 17.0098C469.131 16.4598 468.681 16.0098 468.131 16.0098C467.581 16.0098 467.131 16.4598 467.131 17.0098C467.131 17.5598 467.581 18.0098 468.131 18.0098Z" fill="#183DBF" fill-opacity="0.4"/>
<path d="M476.131 18.0098C476.681 18.0098 477.131 17.5598 477.131 17.0098C477.131 16.4598 476.681 16.0098 476.131 16.0098C475.581 16.0098 475.131 16.4598 475.131 17.0098C475.131 17.5598 475.581 18.0098 476.131 18.0098Z" fill="#183DBF" fill-opacity="0.4"/>
<path d="M332.131 25.0605C332.151 25.0605 332.171 25.0405 332.171 25.0205C332.171 25.0005 332.151 24.9805 332.131 24.9805C332.111 24.9805 332.091 25.0005 332.091 25.0205C332.081 25.0405 332.101 25.0605 332.131 25.0605Z" fill="#183DBF" fill-opacity="0.4"/>
<path d="M340.131 25.1497C340.201 25.1497 340.261 25.0897 340.261 25.0197C340.261 24.9497 340.201 24.8896 340.131 24.8896C340.061 24.8896 340.001 24.9497 340.001 25.0197C339.991 25.0897 340.051 25.1497 340.131 25.1497Z" fill="#183DBF" fill-opacity="0.4"/>
<path d="M348.131 25.2398C348.251 25.2398 348.351 25.1398 348.351 25.0198C348.351 24.8998 348.251 24.7998 348.131 24.7998C348.011 24.7998 347.911 24.8998 347.911 25.0198C347.901 25.1398 348.001 25.2398 348.131 25.2398Z" fill="#183DBF" fill-opacity="0.4"/>
<path d="M356.131 25.3202C356.301 25.3202 356.441 25.1802 356.441 25.0102C356.441 24.8402 356.301 24.7002 356.131 24.7002C355.961 24.7002 355.821 24.8402 355.821 25.0102C355.821 25.1902 355.961 25.3202 356.131 25.3202Z" fill="#183DBF" fill-opacity="0.4"/>
<path d="M364.131 25.4103C364.351 25.4103 364.531 25.2303 364.531 25.0103C364.531 24.7903 364.351 24.6104 364.131 24.6104C363.911 24.6104 363.731 24.7903 363.731 25.0103C363.731 25.2303 363.911 25.4103 364.131 25.4103Z" fill="#183DBF" fill-opacity="0.4"/>
<path d="M372.131 25.4995C372.401 25.4995 372.621 25.2795 372.621 25.0095C372.621 24.7395 372.401 24.5195 372.131 24.5195C371.861 24.5195 371.641 24.7395 371.641 25.0095C371.641 25.2795 371.861 25.4995 372.131 25.4995Z" fill="#183DBF" fill-opacity="0.4"/>
<path d="M380.131 25.5897C380.451 25.5897 380.711 25.3297 380.711 25.0097C380.711 24.6897 380.451 24.4297 380.131 24.4297C379.811 24.4297 379.551 24.6897 379.551 25.0097C379.551 25.3297 379.811 25.5897 380.131 25.5897Z" fill="#183DBF" fill-opacity="0.4"/>
<path d="M388.131 25.6599C388.491 25.6599 388.771 25.3699 388.771 25.0199C388.771 24.6599 388.481 24.3799 388.131 24.3799C387.781 24.3799 387.491 24.6699 387.491 25.0199C387.481 25.3699 387.771 25.6599 388.131 25.6599Z" fill="#183DBF" fill-opacity="0.4"/>
<path d="M396.131 25.7198C396.521 25.7198 396.841 25.3998 396.841 25.0098C396.841 24.6198 396.521 24.2998 396.131 24.2998C395.741 24.2998 395.421 24.6198 395.421 25.0098C395.421 25.4098 395.731 25.7198 396.131 25.7198Z" fill="#183DBF" fill-opacity="0.4"/>
<path d="M404.131 25.81C404.571 25.81 404.931 25.4499 404.931 25.0099C404.931 24.5699 404.571 24.21 404.131 24.21C403.691 24.21 403.331 24.5699 403.331 25.0099C403.331 25.4499 403.691 25.81 404.131 25.81Z" fill="#183DBF" fill-opacity="0.4"/>
<path d="M412.131 25.8597C412.601 25.8597 412.971 25.4797 412.971 25.0197C412.971 24.5497 412.591 24.1797 412.131 24.1797C411.671 24.1797 411.291 24.5597 411.291 25.0197C411.281 25.4797 411.661 25.8597 412.131 25.8597Z" fill="#183DBF" fill-opacity="0.4"/>
<path d="M420.131 25.9196C420.631 25.9196 421.041 25.5096 421.041 25.0096C421.041 24.5096 420.631 24.0996 420.131 24.0996C419.631 24.0996 419.221 24.5096 419.221 25.0096C419.221 25.5196 419.621 25.9196 420.131 25.9196Z" fill="#183DBF" fill-opacity="0.4"/>
<path d="M428.131 25.9903C428.671 25.9903 429.111 25.5503 429.111 25.0103C429.111 24.4703 428.671 24.0303 428.131 24.0303C427.591 24.0303 427.151 24.4703 427.151 25.0103C427.151 25.5503 427.591 25.9903 428.131 25.9903Z" fill="#183DBF" fill-opacity="0.4"/>
<path d="M436.131 26.0302C436.691 26.0302 437.151 25.5702 437.151 25.0102C437.151 24.4502 436.691 23.9902 436.131 23.9902C435.571 23.9902 435.111 24.4502 435.111 25.0102C435.111 25.5802 435.561 26.0302 436.131 26.0302Z" fill="#183DBF" fill-opacity="0.4"/>
<path d="M444.131 26.08C444.721 26.08 445.191 25.6 445.191 25.02C445.191 24.43 444.711 23.96 444.131 23.96C443.551 23.96 443.071 24.44 443.071 25.02C443.061 25.6 443.541 26.08 444.131 26.08Z" fill="#183DBF" fill-opacity="0.4"/>
<path d="M452.131 26.0999C452.731 26.0999 453.221 25.6099 453.221 25.0099C453.221 24.4099 452.731 23.9199 452.131 23.9199C451.531 23.9199 451.041 24.4099 451.041 25.0099C451.041 25.6099 451.531 26.0999 452.131 26.0999Z" fill="#183DBF" fill-opacity="0.4"/>
<path d="M460.131 26.1204C460.741 26.1204 461.241 25.6204 461.241 25.0104C461.241 24.4004 460.741 23.9004 460.131 23.9004C459.521 23.9004 459.021 24.4004 459.021 25.0104C459.021 25.6304 459.511 26.1204 460.131 26.1204Z" fill="#183DBF" fill-opacity="0.4"/>
<path d="M468.131 26.1204C468.741 26.1204 469.241 25.6204 469.241 25.0104C469.241 24.4004 468.741 23.9004 468.131 23.9004C467.521 23.9004 467.021 24.4004 467.021 25.0104C467.021 25.6304 467.511 26.1204 468.131 26.1204Z" fill="#183DBF" fill-opacity="0.4"/>
<path d="M476.131 26.1399C476.751 26.1399 477.261 25.6299 477.261 25.0099C477.261 24.3899 476.751 23.8799 476.131 23.8799C475.511 23.8799 475.001 24.3899 475.001 25.0099C475.001 25.6399 475.501 26.1399 476.131 26.1399Z" fill="#183DBF" fill-opacity="0.4"/>
<path d="M324.131 33.04C324.141 33.04 324.151 33.03 324.151 33.02C324.151 33.01 324.141 33 324.131 33C324.121 33 324.111 33.01 324.111 33.02C324.101 33.03 324.111 33.04 324.131 33.04Z" fill="#183DBF" fill-opacity="0.4"/>
<path d="M332.131 33.1204C332.191 33.1204 332.241 33.0704 332.241 33.0104C332.241 32.9504 332.191 32.9004 332.131 32.9004C332.071 32.9004 332.021 32.9504 332.021 33.0104C332.021 33.0704 332.071 33.1204 332.131 33.1204Z" fill="#183DBF" fill-opacity="0.4"/>
<path d="M340.131 33.2096C340.241 33.2096 340.331 33.1196 340.331 33.0096C340.331 32.8996 340.241 32.8096 340.131 32.8096C340.021 32.8096 339.931 32.8996 339.931 33.0096C339.931 33.1196 340.021 33.2096 340.131 33.2096Z" fill="#183DBF" fill-opacity="0.4"/>
<path d="M348.131 33.3202C348.301 33.3202 348.441 33.1802 348.441 33.0102C348.441 32.8402 348.301 32.7002 348.131 32.7002C347.961 32.7002 347.821 32.8402 347.821 33.0102C347.821 33.1902 347.961 33.3202 348.131 33.3202Z" fill="#183DBF" fill-opacity="0.4"/>
<path d="M356.131 33.4103C356.351 33.4103 356.531 33.2303 356.531 33.0103C356.531 32.7903 356.351 32.6104 356.131 32.6104C355.911 32.6104 355.731 32.7903 355.731 33.0103C355.731 33.2303 355.911 33.4103 356.131 33.4103Z" fill="#183DBF" fill-opacity="0.4"/>
<path d="M364.131 33.4995C364.401 33.4995 364.621 33.2795 364.621 33.0095C364.621 32.7395 364.401 32.5195 364.131 32.5195C363.861 32.5195 363.641 32.7395 363.641 33.0095C363.641 33.2795 363.861 33.4995 364.131 33.4995Z" fill="#183DBF" fill-opacity="0.4"/>
<path d="M372.131 33.5897C372.451 33.5897 372.711 33.3297 372.711 33.0097C372.711 32.6897 372.451 32.4297 372.131 32.4297C371.811 32.4297 371.551 32.6897 371.551 33.0097C371.551 33.3297 371.811 33.5897 372.131 33.5897Z" fill="#183DBF" fill-opacity="0.4"/>
<path d="M380.131 33.6798C380.501 33.6798 380.801 33.3798 380.801 33.0098C380.801 32.6398 380.501 32.3398 380.131 32.3398C379.761 32.3398 379.461 32.6398 379.461 33.0098C379.461 33.3798 379.761 33.6798 380.131 33.6798Z" fill="#183DBF" fill-opacity="0.4"/>
<path d="M388.131 33.75C388.531 33.75 388.861 33.4201 388.861 33.0201C388.861 32.6201 388.531 32.29 388.131 32.29C387.731 32.29 387.401 32.6201 387.401 33.0201C387.391 33.4201 387.721 33.75 388.131 33.75Z" fill="#183DBF" fill-opacity="0.4"/>
<path d="M396.131 33.8304C396.581 33.8304 396.951 33.4604 396.951 33.0104C396.951 32.5604 396.581 32.1904 396.131 32.1904C395.681 32.1904 395.311 32.5604 395.311 33.0104C395.311 33.4704 395.671 33.8304 396.131 33.8304Z" fill="#183DBF" fill-opacity="0.4"/>
<path d="M404.131 33.9001C404.621 33.9001 405.021 33.5001 405.021 33.0101C405.021 32.5201 404.621 32.1201 404.131 32.1201C403.641 32.1201 403.241 32.5201 403.241 33.0101C403.241 33.5001 403.641 33.9001 404.131 33.9001Z" fill="#183DBF" fill-opacity="0.4"/>
<path d="M412.131 33.9703C412.661 33.9703 413.081 33.5403 413.081 33.0203C413.081 32.4903 412.651 32.0703 412.131 32.0703C411.611 32.0703 411.181 32.5003 411.181 33.0203C411.171 33.5403 411.601 33.9703 412.131 33.9703Z" fill="#183DBF" fill-opacity="0.4"/>
<path d="M420.131 34.0302C420.691 34.0302 421.151 33.5702 421.151 33.0102C421.151 32.4502 420.691 31.9902 420.131 31.9902C419.571 31.9902 419.111 32.4502 419.111 33.0102C419.111 33.5802 419.561 34.0302 420.131 34.0302Z" fill="#183DBF" fill-opacity="0.4"/>
<path d="M428.131 34.0999C428.731 34.0999 429.221 33.6099 429.221 33.0099C429.221 32.4099 428.731 31.9199 428.131 31.9199C427.531 31.9199 427.041 32.4099 427.041 33.0099C427.041 33.6099 427.531 34.0999 428.131 34.0999Z" fill="#183DBF" fill-opacity="0.4"/>
<path d="M436.131 34.1399C436.751 34.1399 437.261 33.6299 437.261 33.0099C437.261 32.3899 436.751 31.8799 436.131 31.8799C435.511 31.8799 435.001 32.3899 435.001 33.0099C435.001 33.6399 435.501 34.1399 436.131 34.1399Z" fill="#183DBF" fill-opacity="0.4"/>
<path d="M444.131 34.1901C444.781 34.1901 445.311 33.6601 445.311 33.0101C445.311 32.3601 444.781 31.8301 444.131 31.8301C443.481 31.8301 442.951 32.3601 442.951 33.0101C442.951 33.6601 443.481 34.1901 444.131 34.1901Z" fill="#183DBF" fill-opacity="0.4"/>
<path d="M452.131 34.2096C452.791 34.2096 453.331 33.6696 453.331 33.0096C453.331 32.3496 452.791 31.8096 452.131 31.8096C451.471 31.8096 450.931 32.3496 450.931 33.0096C450.931 33.6796 451.461 34.2096 452.131 34.2096Z" fill="#183DBF" fill-opacity="0.4"/>
<path d="M460.131 34.23C460.801 34.23 461.351 33.68 461.351 33.01C461.351 32.34 460.801 31.79 460.131 31.79C459.461 31.79 458.911 32.34 458.911 33.01C458.911 33.69 459.451 34.23 460.131 34.23Z" fill="#183DBF" fill-opacity="0.4"/>
<path d="M468.131 34.2603C468.821 34.2603 469.371 33.7003 469.371 33.0203C469.371 32.3303 468.811 31.7803 468.131 31.7803C467.451 31.7803 466.891 32.3403 466.891 33.0203C466.881 33.7003 467.441 34.2603 468.131 34.2603Z" fill="#183DBF" fill-opacity="0.4"/>
<path d="M476.131 34.2603C476.821 34.2603 477.371 33.7003 477.371 33.0203C477.371 32.3303 476.811 31.7803 476.131 31.7803C475.451 31.7803 474.891 32.3403 474.891 33.0203C474.881 33.7003 475.441 34.2603 476.131 34.2603Z" fill="#183DBF" fill-opacity="0.4"/>
<path d="M324.131 41.0804C324.171 41.0804 324.201 41.0504 324.201 41.0104C324.201 40.9704 324.171 40.9404 324.131 40.9404C324.091 40.9404 324.061 40.9704 324.061 41.0104C324.061 41.0504 324.091 41.0804 324.131 41.0804Z" fill="#183DBF" fill-opacity="0.4"/>
<path d="M332.131 41.1901C332.231 41.1901 332.311 41.1101 332.311 41.0101C332.311 40.9101 332.231 40.8301 332.131 40.8301C332.031 40.8301 331.951 40.9101 331.951 41.0101C331.951 41.1101 332.031 41.1901 332.131 41.1901Z" fill="#183DBF" fill-opacity="0.4"/>
<path d="M340.131 41.2997C340.291 41.2997 340.421 41.1697 340.421 41.0097C340.421 40.8497 340.291 40.7197 340.131 40.7197C339.971 40.7197 339.841 40.8497 339.841 41.0097C339.841 41.1697 339.971 41.2997 340.131 41.2997Z" fill="#183DBF" fill-opacity="0.4"/>
<path d="M348.131 41.3899C348.341 41.3899 348.511 41.2199 348.511 41.0099C348.511 40.7999 348.341 40.6299 348.131 40.6299C347.921 40.6299 347.751 40.7999 347.751 41.0099C347.751 41.2199 347.921 41.3899 348.131 41.3899Z" fill="#183DBF" fill-opacity="0.4"/>
<path d="M356.131 41.48C356.391 41.48 356.601 41.27 356.601 41.01C356.601 40.75 356.391 40.54 356.131 40.54C355.871 40.54 355.661 40.75 355.661 41.01C355.661 41.27 355.871 41.48 356.131 41.48Z" fill="#183DBF" fill-opacity="0.4"/>
<path d="M364.131 41.5897C364.451 41.5897 364.711 41.3297 364.711 41.0097C364.711 40.6897 364.451 40.4297 364.131 40.4297C363.811 40.4297 363.551 40.6897 363.551 41.0097C363.551 41.3297 363.811 41.5897 364.131 41.5897Z" fill="#183DBF" fill-opacity="0.4"/>
<path d="M372.131 41.6798C372.501 41.6798 372.801 41.3798 372.801 41.0098C372.801 40.6398 372.501 40.3398 372.131 40.3398C371.761 40.3398 371.461 40.6398 371.461 41.0098C371.461 41.3798 371.761 41.6798 372.131 41.6798Z" fill="#183DBF" fill-opacity="0.4"/>
<path d="M380.131 41.7695C380.551 41.7695 380.881 41.4295 380.881 41.0195C380.881 40.5995 380.541 40.2695 380.131 40.2695C379.721 40.2695 379.381 40.6095 379.381 41.0195C379.371 41.4295 379.711 41.7695 380.131 41.7695Z" fill="#183DBF" fill-opacity="0.4"/>
<path d="M388.131 41.8597C388.601 41.8597 388.971 41.4797 388.971 41.0197C388.971 40.5497 388.591 40.1797 388.131 40.1797C387.671 40.1797 387.291 40.5597 387.291 41.0197C387.281 41.4797 387.661 41.8597 388.131 41.8597Z" fill="#183DBF" fill-opacity="0.4"/>
<path d="M396.131 41.9196C396.631 41.9196 397.041 41.5096 397.041 41.0096C397.041 40.5096 396.631 40.0996 396.131 40.0996C395.631 40.0996 395.221 40.5096 395.221 41.0096C395.221 41.5196 395.621 41.9196 396.131 41.9196Z" fill="#183DBF" fill-opacity="0.4"/>
<path d="M404.131 42.0098C404.681 42.0098 405.131 41.5598 405.131 41.0098C405.131 40.4598 404.681 40.0098 404.131 40.0098C403.581 40.0098 403.131 40.4598 403.131 41.0098C403.131 41.5598 403.581 42.0098 404.131 42.0098Z" fill="#183DBF" fill-opacity="0.4"/>
<path d="M412.131 42.08C412.721 42.08 413.191 41.6 413.191 41.02C413.191 40.43 412.711 39.96 412.131 39.96C411.551 39.96 411.071 40.44 411.071 41.02C411.061 41.6 411.541 42.08 412.131 42.08Z" fill="#183DBF" fill-opacity="0.4"/>
<path d="M420.131 42.1399C420.751 42.1399 421.261 41.6299 421.261 41.0099C421.261 40.3899 420.751 39.8799 420.131 39.8799C419.511 39.8799 419.001 40.3899 419.001 41.0099C419.001 41.6399 419.501 42.1399 420.131 42.1399Z" fill="#183DBF" fill-opacity="0.4"/>
<path d="M428.131 42.2096C428.791 42.2096 429.331 41.6696 429.331 41.0096C429.331 40.3496 428.791 39.8096 428.131 39.8096C427.471 39.8096 426.931 40.3496 426.931 41.0096C426.931 41.6796 427.461 42.2096 428.131 42.2096Z" fill="#183DBF" fill-opacity="0.4"/>
<path d="M436.131 42.2603C436.821 42.2603 437.371 41.7003 437.371 41.0203C437.371 40.3303 436.811 39.7803 436.131 39.7803C435.451 39.7803 434.891 40.3403 434.891 41.0203C434.881 41.7003 435.441 42.2603 436.131 42.2603Z" fill="#183DBF" fill-opacity="0.4"/>
<path d="M444.131 42.2997C444.841 42.2997 445.421 41.7197 445.421 41.0097C445.421 40.2997 444.841 39.7197 444.131 39.7197C443.421 39.7197 442.841 40.2997 442.841 41.0097C442.841 41.7197 443.421 42.2997 444.131 42.2997Z" fill="#183DBF" fill-opacity="0.4"/>
<path d="M452.131 42.3397C452.871 42.3397 453.461 41.7397 453.461 41.0097C453.461 40.2697 452.861 39.6797 452.131 39.6797C451.401 39.6797 450.801 40.2797 450.801 41.0097C450.801 41.7497 451.391 42.3397 452.131 42.3397Z" fill="#183DBF" fill-opacity="0.4"/>
<path d="M460.131 42.3699C460.881 42.3699 461.481 41.7599 461.481 41.0199C461.481 40.2699 460.871 39.6699 460.131 39.6699C459.391 39.6699 458.781 40.2799 458.781 41.0199C458.771 41.7599 459.381 42.3699 460.131 42.3699Z" fill="#183DBF" fill-opacity="0.4"/>
<path d="M468.131 42.3699C468.881 42.3699 469.481 41.7599 469.481 41.0199C469.481 40.2699 468.871 39.6699 468.131 39.6699C467.391 39.6699 466.781 40.2799 466.781 41.0199C466.771 41.7599 467.381 42.3699 468.131 42.3699Z" fill="#183DBF" fill-opacity="0.4"/>
<path d="M476.131 42.3899C476.891 42.3899 477.511 41.7699 477.511 41.0099C477.511 40.2499 476.891 39.6299 476.131 39.6299C475.371 39.6299 474.751 40.2499 474.751 41.0099C474.751 41.7699 475.371 42.3899 476.131 42.3899Z" fill="#183DBF" fill-opacity="0.4"/>
<path d="M316.131 49.0605C316.151 49.0605 316.171 49.0405 316.171 49.0205C316.171 49.0005 316.151 48.9805 316.131 48.9805C316.111 48.9805 316.091 49.0005 316.091 49.0205C316.081 49.0405 316.101 49.0605 316.131 49.0605Z" fill="#183DBF" fill-opacity="0.4"/>
<path d="M324.131 49.1497C324.201 49.1497 324.261 49.0897 324.261 49.0197C324.261 48.9497 324.201 48.8896 324.131 48.8896C324.061 48.8896 324.001 48.9497 324.001 49.0197C323.991 49.0897 324.051 49.1497 324.131 49.1497Z" fill="#183DBF" fill-opacity="0.4"/>
<path d="M332.131 49.2603C332.261 49.2603 332.371 49.1503 332.371 49.0203C332.371 48.8903 332.261 48.7803 332.131 48.7803C332.001 48.7803 331.891 48.8903 331.891 49.0203C331.881 49.1503 331.991 49.2603 332.131 49.2603Z" fill="#183DBF" fill-opacity="0.4"/>
<path d="M340.131 49.3702C340.331 49.3702 340.481 49.2102 340.481 49.0202C340.481 48.8202 340.321 48.6602 340.131 48.6602C339.931 48.6602 339.781 48.8202 339.781 49.0202C339.771 49.2102 339.931 49.3702 340.131 49.3702Z" fill="#183DBF" fill-opacity="0.4"/>
<path d="M348.131 49.4601C348.371 49.4601 348.571 49.2601 348.571 49.0201C348.571 48.7701 348.371 48.5801 348.131 48.5801C347.891 48.5801 347.691 48.7801 347.691 49.0201C347.681 49.2601 347.881 49.4601 348.131 49.4601Z" fill="#183DBF" fill-opacity="0.4"/>
<path d="M356.131 49.5697C356.441 49.5697 356.681 49.3197 356.681 49.0197C356.681 48.7097 356.431 48.4697 356.131 48.4697C355.831 48.4697 355.581 48.7197 355.581 49.0197C355.571 49.3197 355.821 49.5697 356.131 49.5697Z" fill="#183DBF" fill-opacity="0.4"/>
<path d="M364.131 49.6599C364.491 49.6599 364.771 49.3699 364.771 49.0199C364.771 48.6599 364.481 48.3799 364.131 48.3799C363.781 48.3799 363.491 48.6699 363.491 49.0199C363.481 49.3699 363.771 49.6599 364.131 49.6599Z" fill="#183DBF" fill-opacity="0.4"/>
<path d="M372.131 49.7695C372.551 49.7695 372.881 49.4295 372.881 49.0195C372.881 48.5995 372.541 48.2695 372.131 48.2695C371.721 48.2695 371.381 48.6095 371.381 49.0195C371.371 49.4295 371.711 49.7695 372.131 49.7695Z" fill="#183DBF" fill-opacity="0.4"/>
<path d="M380.131 49.8597C380.601 49.8597 380.971 49.4797 380.971 49.0197C380.971 48.5497 380.591 48.1797 380.131 48.1797C379.671 48.1797 379.291 48.5597 379.291 49.0197C379.281 49.4797 379.661 49.8597 380.131 49.8597Z" fill="#183DBF" fill-opacity="0.4"/>
<path d="M388.131 49.9498C388.641 49.9498 389.061 49.5298 389.061 49.0198C389.061 48.5098 388.641 48.0898 388.131 48.0898C387.621 48.0898 387.201 48.5098 387.201 49.0198C387.191 49.5298 387.611 49.9498 388.131 49.9498Z" fill="#183DBF" fill-opacity="0.4"/>
<path d="M396.131 50.0302C396.691 50.0302 397.151 49.5702 397.151 49.0102C397.151 48.4502 396.691 47.9902 396.131 47.9902C395.571 47.9902 395.111 48.4502 395.111 49.0102C395.111 49.5802 395.561 50.0302 396.131 50.0302Z" fill="#183DBF" fill-opacity="0.4"/>
<path d="M404.131 50.1204C404.741 50.1204 405.241 49.6204 405.241 49.0104C405.241 48.4004 404.741 47.9004 404.131 47.9004C403.521 47.9004 403.021 48.4004 403.021 49.0104C403.021 49.6304 403.511 50.1204 404.131 50.1204Z" fill="#183DBF" fill-opacity="0.4"/>
<path d="M412.131 50.1901C412.781 50.1901 413.311 49.6601 413.311 49.0101C413.311 48.3601 412.781 47.8301 412.131 47.8301C411.481 47.8301 410.951 48.3601 410.951 49.0101C410.951 49.6601 411.481 50.1901 412.131 50.1901Z" fill="#183DBF" fill-opacity="0.4"/>
<path d="M420.131 50.2603C420.821 50.2603 421.371 49.7003 421.371 49.0203C421.371 48.3303 420.811 47.7803 420.131 47.7803C419.451 47.7803 418.891 48.3403 418.891 49.0203C418.881 49.7003 419.441 50.2603 420.131 50.2603Z" fill="#183DBF" fill-opacity="0.4"/>
<path d="M428.131 50.3202C428.851 50.3202 429.441 49.7302 429.441 49.0102C429.441 48.2902 428.851 47.7002 428.131 47.7002C427.411 47.7002 426.821 48.2902 426.821 49.0102C426.821 49.7402 427.401 50.3202 428.131 50.3202Z" fill="#183DBF" fill-opacity="0.4"/>
<path d="M436.131 50.3699C436.881 50.3699 437.481 49.7599 437.481 49.0199C437.481 48.2699 436.871 47.6699 436.131 47.6699C435.391 47.6699 434.781 48.2799 434.781 49.0199C434.771 49.7599 435.381 50.3699 436.131 50.3699Z" fill="#183DBF" fill-opacity="0.4"/>
<path d="M444.131 50.4103C444.901 50.4103 445.531 49.7803 445.531 49.0103C445.531 48.2403 444.901 47.6104 444.131 47.6104C443.361 47.6104 442.731 48.2403 442.731 49.0103C442.731 49.7903 443.351 50.4103 444.131 50.4103Z" fill="#183DBF" fill-opacity="0.4"/>
<path d="M452.131 50.4601C452.931 50.4601 453.571 49.8101 453.571 49.0201C453.571 48.2201 452.921 47.5801 452.131 47.5801C451.341 47.5801 450.691 48.2301 450.691 49.0201C450.681 49.8101 451.331 50.4601 452.131 50.4601Z" fill="#183DBF" fill-opacity="0.4"/>
<path d="M460.131 50.4796C460.941 50.4796 461.591 49.8196 461.591 49.0196C461.591 48.2096 460.931 47.5596 460.131 47.5596C459.331 47.5596 458.671 48.2196 458.671 49.0196C458.661 49.8196 459.321 50.4796 460.131 50.4796Z" fill="#183DBF" fill-opacity="0.4"/>
<path d="M468.131 50.4995C468.951 50.4995 469.621 49.8295 469.621 49.0095C469.621 48.1895 468.951 47.5195 468.131 47.5195C467.311 47.5195 466.641 48.1895 466.641 49.0095C466.641 49.8295 467.311 50.4995 468.131 50.4995Z" fill="#183DBF" fill-opacity="0.4"/>
<path d="M476.131 50.4995C476.951 50.4995 477.621 49.8295 477.621 49.0095C477.621 48.1895 476.951 47.5195 476.131 47.5195C475.311 47.5195 474.641 48.1895 474.641 49.0095C474.641 49.8295 475.311 50.4995 476.131 50.4995Z" fill="#183DBF" fill-opacity="0.4"/>
<path d="M316.131 57.0999C316.181 57.0999 316.221 57.0599 316.221 57.0099C316.221 56.9599 316.181 56.9199 316.131 56.9199C316.081 56.9199 316.041 56.9599 316.041 57.0099C316.041 57.0599 316.081 57.0999 316.131 57.0999Z" fill="#183DBF" fill-opacity="0.4"/>
<path d="M324.131 57.2096C324.241 57.2096 324.331 57.1196 324.331 57.0096C324.331 56.8996 324.241 56.8096 324.131 56.8096C324.021 56.8096 323.931 56.8996 323.931 57.0096C323.931 57.1196 324.021 57.2096 324.131 57.2096Z" fill="#183DBF" fill-opacity="0.4"/>
<path d="M332.131 57.3202C332.301 57.3202 332.441 57.1802 332.441 57.0102C332.441 56.8402 332.301 56.7002 332.131 56.7002C331.961 56.7002 331.821 56.8402 331.821 57.0102C331.821 57.1902 331.961 57.3202 332.131 57.3202Z" fill="#183DBF" fill-opacity="0.4"/>
<path d="M340.131 57.4396C340.361 57.4396 340.551 57.2496 340.551 57.0196C340.551 56.7896 340.361 56.5996 340.131 56.5996C339.901 56.5996 339.711 56.7896 339.711 57.0196C339.711 57.2496 339.891 57.4396 340.131 57.4396Z" fill="#183DBF" fill-opacity="0.4"/>
<path d="M348.131 57.52C348.411 57.52 348.641 57.29 348.641 57.01C348.641 56.73 348.411 56.5 348.131 56.5C347.851 56.5 347.621 56.73 347.621 57.01C347.621 57.3 347.841 57.52 348.131 57.52Z" fill="#183DBF" fill-opacity="0.4"/>
<path d="M356.131 57.6296C356.471 57.6296 356.751 57.3496 356.751 57.0096C356.751 56.6696 356.471 56.3896 356.131 56.3896C355.791 56.3896 355.511 56.6696 355.511 57.0096C355.511 57.3596 355.781 57.6296 356.131 57.6296Z" fill="#183DBF" fill-opacity="0.4"/>
<path d="M364.131 57.7198C364.521 57.7198 364.841 57.3998 364.841 57.0098C364.841 56.6198 364.521 56.2998 364.131 56.2998C363.741 56.2998 363.421 56.6198 363.421 57.0098C363.421 57.4098 363.731 57.7198 364.131 57.7198Z" fill="#183DBF" fill-opacity="0.4"/>
<path d="M372.131 57.8304C372.581 57.8304 372.951 57.4604 372.951 57.0104C372.951 56.5604 372.581 56.1904 372.131 56.1904C371.681 56.1904 371.311 56.5604 371.311 57.0104C371.311 57.4704 371.671 57.8304 372.131 57.8304Z" fill="#183DBF" fill-opacity="0.4"/>
<path d="M380.131 57.9196C380.631 57.9196 381.041 57.5096 381.041 57.0096C381.041 56.5096 380.631 56.0996 380.131 56.0996C379.631 56.0996 379.221 56.5096 379.221 57.0096C379.221 57.5196 379.621 57.9196 380.131 57.9196Z" fill="#183DBF" fill-opacity="0.4"/>
<path d="M388.131 58.0302C388.691 58.0302 389.151 57.5702 389.151 57.0102C389.151 56.4502 388.691 55.9902 388.131 55.9902C387.571 55.9902 387.111 56.4502 387.111 57.0102C387.111 57.5802 387.561 58.0302 388.131 58.0302Z" fill="#183DBF" fill-opacity="0.4"/>
<path d="M396.131 58.1204C396.741 58.1204 397.241 57.6204 397.241 57.0104C397.241 56.4004 396.741 55.9004 396.131 55.9004C395.521 55.9004 395.021 56.4004 395.021 57.0104C395.021 57.6304 395.511 58.1204 396.131 58.1204Z" fill="#183DBF" fill-opacity="0.4"/>
<path d="M404.131 58.2096C404.791 58.2096 405.331 57.6696 405.331 57.0096C405.331 56.3496 404.791 55.8096 404.131 55.8096C403.471 55.8096 402.931 56.3496 402.931 57.0096C402.931 57.6796 403.461 58.2096 404.131 58.2096Z" fill="#183DBF" fill-opacity="0.4"/>
<path d="M412.131 58.2798C412.831 58.2798 413.391 57.7098 413.391 57.0198C413.391 56.3198 412.821 55.7598 412.131 55.7598C411.431 55.7598 410.871 56.3298 410.871 57.0198C410.861 57.7098 411.431 58.2798 412.131 58.2798Z" fill="#183DBF" fill-opacity="0.4"/>
<path d="M420.131 58.3699C420.881 58.3699 421.481 57.7599 421.481 57.0199C421.481 56.2699 420.871 55.6699 420.131 55.6699C419.391 55.6699 418.781 56.2799 418.781 57.0199C418.771 57.7599 419.381 58.3699 420.131 58.3699Z" fill="#183DBF" fill-opacity="0.4"/>
<path d="M428.131 58.4298C428.911 58.4298 429.551 57.7898 429.551 57.0098C429.551 56.2298 428.911 55.5898 428.131 55.5898C427.351 55.5898 426.711 56.2298 426.711 57.0098C426.711 57.7998 427.341 58.4298 428.131 58.4298Z" fill="#183DBF" fill-opacity="0.4"/>
<path d="M436.131 58.4796C436.941 58.4796 437.591 57.8196 437.591 57.0196C437.591 56.2096 436.931 55.5596 436.131 55.5596C435.331 55.5596 434.671 56.2196 434.671 57.0196C434.661 57.8196 435.321 58.4796 436.131 58.4796Z" fill="#183DBF" fill-opacity="0.4"/>
<path d="M444.131 58.52C444.961 58.52 445.641 57.84 445.641 57.01C445.641 56.18 444.961 55.5 444.131 55.5C443.301 55.5 442.621 56.18 442.621 57.01C442.621 57.85 443.291 58.52 444.131 58.52Z" fill="#183DBF" fill-opacity="0.4"/>
<path d="M452.131 58.5697C452.991 58.5697 453.681 57.8697 453.681 57.0197C453.681 56.1597 452.981 55.4697 452.131 55.4697C451.281 55.4697 450.581 56.1697 450.581 57.0197C450.571 57.8697 451.271 58.5697 452.131 58.5697Z" fill="#183DBF" fill-opacity="0.4"/>
<path d="M460.131 58.6102C461.011 58.6102 461.731 57.8902 461.731 57.0102C461.731 56.1302 461.011 55.4102 460.131 55.4102C459.251 55.4102 458.531 56.1302 458.531 57.0102C458.531 57.9002 459.241 58.6102 460.131 58.6102Z" fill="#183DBF" fill-opacity="0.4"/>
<path d="M468.131 58.6102C469.011 58.6102 469.731 57.8902 469.731 57.0102C469.731 56.1302 469.011 55.4102 468.131 55.4102C467.251 55.4102 466.531 56.1302 466.531 57.0102C466.531 57.9002 467.241 58.6102 468.131 58.6102Z" fill="#183DBF" fill-opacity="0.4"/>
<path d="M476.131 58.6296C477.021 58.6296 477.751 57.8996 477.751 57.0096C477.751 56.1196 477.031 55.3896 476.131 55.3896C475.231 55.3896 474.511 56.1196 474.511 57.0096C474.511 57.9096 475.231 58.6296 476.131 58.6296Z" fill="#183DBF" fill-opacity="0.4"/>
<rect width="480" height="60" fill="#0A42AF" fill-opacity="0.4"/>
</g>
<defs>
<linearGradient id="paint0_linear_519_7355" x1="-2.02746e-05" y1="-20.9999" x2="516.5" y2="85" gradientUnits="userSpaceOnUse">
<stop stop-color="#5FA7F7"/>
<stop offset="1" stop-color="#4364FE"/>
</linearGradient>
<clipPath id="clip0_519_7355">
<rect width="480" height="60" fill="white"/>
</clipPath>
</defs>
</svg>
