<svg width="432" height="312" viewBox="0 0 432 312" fill="none" xmlns="http://www.w3.org/2000/svg">
<g clip-path="url(#clip0_645_13091)">
<rect width="432" height="312" fill="#F5F3EF"/>
<ellipse cx="279" cy="5" rx="5" ry="5" fill="#FFCE31" fill-opacity="0.2"/>
<ellipse cx="279" cy="23.0001" rx="5" ry="5" fill="#FFCE31" fill-opacity="0.2"/>
<ellipse cx="279" cy="40.9998" rx="5" ry="5" fill="#FFCE31" fill-opacity="0.2"/>
<ellipse cx="279" cy="58.9998" rx="5" ry="5" fill="#FFCE31" fill-opacity="0.2"/>
<ellipse cx="279" cy="76.9996" rx="5" ry="5" fill="#FFCE31" fill-opacity="0.2"/>
<ellipse cx="279" cy="95" rx="5" ry="5" fill="#FFCE31" fill-opacity="0.2"/>
<ellipse cx="297" cy="5" rx="5" ry="5" fill="#FFCE31" fill-opacity="0.2"/>
<ellipse cx="297" cy="23.0001" rx="5" ry="5" fill="#FFCE31" fill-opacity="0.2"/>
<ellipse cx="297" cy="40.9998" rx="5" ry="5" fill="#FFCE31" fill-opacity="0.2"/>
<ellipse cx="297" cy="58.9998" rx="5" ry="5" fill="#FFCE31" fill-opacity="0.2"/>
<ellipse cx="297" cy="76.9996" rx="5" ry="5" fill="#FFCE31" fill-opacity="0.2"/>
<ellipse cx="297" cy="95" rx="5" ry="5" fill="#FFCE31" fill-opacity="0.2"/>
<ellipse cx="315" cy="5" rx="5" ry="5" fill="#FFCE31" fill-opacity="0.2"/>
<ellipse cx="315" cy="23.0001" rx="5" ry="5" fill="#FFCE31" fill-opacity="0.2"/>
<ellipse cx="315" cy="40.9998" rx="5" ry="5" fill="#FFCE31" fill-opacity="0.2"/>
<ellipse cx="315" cy="58.9998" rx="5" ry="5" fill="#FFCE31" fill-opacity="0.2"/>
<ellipse cx="315" cy="76.9996" rx="5" ry="5" fill="#FFCE31" fill-opacity="0.2"/>
<ellipse cx="315" cy="95" rx="5" ry="5" fill="#FFCE31" fill-opacity="0.2"/>
<ellipse cx="333" cy="5" rx="5" ry="5" fill="#FFCE31" fill-opacity="0.2"/>
<ellipse cx="333" cy="23.0001" rx="5" ry="5" fill="#FFCE31" fill-opacity="0.2"/>
<ellipse cx="333" cy="40.9998" rx="5" ry="5" fill="#FFCE31" fill-opacity="0.2"/>
<ellipse cx="333" cy="58.9998" rx="5" ry="5" fill="#FFCE31" fill-opacity="0.2"/>
<ellipse cx="333" cy="76.9996" rx="5" ry="5" fill="#FFCE31" fill-opacity="0.2"/>
<ellipse cx="333" cy="95" rx="5" ry="5" fill="#FFCE31" fill-opacity="0.2"/>
<ellipse cx="351" cy="5" rx="5" ry="5" fill="#FFCE31" fill-opacity="0.2"/>
<ellipse cx="351" cy="23.0001" rx="5" ry="5" fill="#FFCE31" fill-opacity="0.2"/>
<ellipse cx="351" cy="40.9998" rx="5" ry="5" fill="#FFCE31" fill-opacity="0.2"/>
<ellipse cx="351" cy="58.9998" rx="5" ry="5" fill="#FFCE31" fill-opacity="0.2"/>
<ellipse cx="351" cy="76.9996" rx="5" ry="5" fill="#FFCE31" fill-opacity="0.2"/>
<ellipse cx="351" cy="95" rx="5" ry="5" fill="#FFCE31" fill-opacity="0.2"/>
<ellipse cx="369" cy="5" rx="5" ry="5" fill="#FFCE31" fill-opacity="0.2"/>
<ellipse cx="369" cy="23.0001" rx="5" ry="5" fill="#FFCE31" fill-opacity="0.2"/>
<ellipse cx="369" cy="40.9998" rx="5" ry="5" fill="#FFCE31" fill-opacity="0.2"/>
<ellipse cx="369" cy="58.9998" rx="5" ry="5" fill="#FFCE31" fill-opacity="0.2"/>
<ellipse cx="369" cy="76.9996" rx="5" ry="5" fill="#FFCE31" fill-opacity="0.2"/>
<ellipse cx="369" cy="95" rx="5" ry="5" fill="#FFCE31" fill-opacity="0.2"/>
<ellipse cx="387" cy="5" rx="5" ry="5" fill="#FFCE31" fill-opacity="0.2"/>
<ellipse cx="387" cy="23.0001" rx="5" ry="5" fill="#FFCE31" fill-opacity="0.2"/>
<ellipse cx="387" cy="40.9998" rx="5" ry="5" fill="#FFCE31" fill-opacity="0.2"/>
<ellipse cx="387" cy="58.9998" rx="5" ry="5" fill="#FFCE31" fill-opacity="0.2"/>
<ellipse cx="387" cy="76.9996" rx="5" ry="5" fill="#FFCE31" fill-opacity="0.2"/>
<ellipse cx="387" cy="95" rx="5" ry="5" fill="#FFCE31" fill-opacity="0.2"/>
<g clip-path="url(#clip1_645_13091)">
<path d="M154.319 234.756C165.058 231.947 170.238 227.733 171.517 224.222L228.289 231.244V333.067H159.255C139.312 323.235 138.978 306.733 143.914 299.711C150.484 292.689 149.667 290.348 149.667 287.422C125.555 257.578 140.896 238.267 154.319 234.756Z" fill="#AE3C58"/>
<path d="M273.018 235.095C259.388 232.196 256.245 226.091 254.622 222.467L179.133 231.471V336.578H266.753C292.065 326.43 292.489 309.395 286.224 302.146C277.886 294.897 278.922 292.481 278.922 289.461C309.526 258.654 290.055 238.72 273.018 235.095Z" fill="#AE3C58"/>
<path d="M165.089 350.622C151.044 314.107 164.024 280.985 172.802 269.867L178.069 283.911V331.311L165.089 350.622Z" fill="#FFD2C3"/>
<path d="M262.336 350.622C276.38 314.107 263.4 280.985 254.623 269.867L249.356 283.911V331.311L262.336 350.622Z" fill="#FFD2C3"/>
<path d="M263.399 204.851C263.399 231.998 241.805 252.311 215.168 252.311C188.53 252.311 166.844 231.998 166.844 204.851C166.844 177.703 186.775 154 213.413 154C250.002 154 263.399 177.703 263.399 204.851Z" fill="#AE3C58"/>
<path d="M252.867 215.961C252.867 238.546 237.99 252.311 216 252.311C194.01 252.311 179.133 238.546 179.133 215.961C179.133 193.376 194.01 175.067 216 175.067C237.99 175.067 252.867 193.376 252.867 215.961Z" fill="#FFD2C4"/>
<path d="M265.712 219.227C270.966 203.778 257.686 205.768 250.389 208.694C243.384 217.121 246.01 225.079 248.199 228.005C256.956 230.814 263.59 225.468 265.712 219.227Z" fill="#FFD2C3"/>
<path d="M262.533 213.689C259.614 213.689 254.215 215.796 255.966 224.222" stroke="#E1B6A8" stroke-width="0.2" stroke-linecap="round"/>
<path d="M258.155 215.444C258.884 215.444 260.344 216.147 260.344 218.956" stroke="#E1B6A8" stroke-width="0.2" stroke-linecap="round"/>
<path d="M166.25 219.227C161.161 203.778 174.025 205.768 181.093 208.694C187.878 217.121 185.334 225.079 183.214 228.005C174.732 230.814 168.306 225.468 166.25 219.227Z" fill="#FFD2C3"/>
<path d="M169.33 213.689C172.157 213.689 177.387 215.796 175.691 224.222" stroke="#E1B6A8" stroke-width="0.2" stroke-linecap="round"/>
<path d="M173.571 215.444C172.864 215.444 171.45 216.147 171.45 218.956" stroke="#E1B6A8" stroke-width="0.2" stroke-linecap="round"/>
<rect x="207.222" y="234.756" width="14.0444" height="24.5778" fill="#FFD2C3"/>
<ellipse cx="203.711" cy="208.422" rx="3.51111" ry="5.26667" fill="#AE3C58"/>
<ellipse cx="224.778" cy="208.422" rx="3.51111" ry="5.26667" fill="#AE3C58"/>
<path d="M193.178 201.674C194.348 199.333 198.444 195.003 205.467 196.408" stroke="#C73658" stroke-width="0.5" stroke-linecap="round"/>
<path d="M233.556 201.674C232.385 199.333 228.289 195.003 221.267 196.408" stroke="#C73658" stroke-width="0.5" stroke-linecap="round"/>
<path d="M212.933 210.178L211.177 215.444C210.592 216.615 210.124 218.956 212.933 218.956" stroke="#C73658" stroke-width="0.5" stroke-linecap="round"/>
<path d="M201.956 220.711C205.467 223.637 214.947 227.733 224.778 220.711" stroke="#C73658" stroke-width="0.5" stroke-linecap="round"/>
<ellipse cx="237.066" cy="218.956" rx="8.77778" ry="5.26667" fill="#FF9C9C"/>
<ellipse cx="191.422" cy="218.956" rx="8.77778" ry="5.26667" fill="#FF9C9C"/>
<path d="M180.889 210.178C180.889 207.369 175.037 206.667 172.111 206.667L182.645 178.578L200.2 168.044H247.6L259.889 206.667C257.08 206.667 254.037 207.837 252.867 208.422C243.036 211.231 239.408 199.059 238.822 192.622C231.8 194.027 224.193 182.674 221.267 176.822C208.627 188.058 193.763 188.526 187.911 187.356C190.72 195.782 184.4 206.081 180.889 210.178Z" fill="#AE3C58"/>
<path d="M175.622 289.339C207.924 279.508 240.578 285.243 252.867 289.339L245.844 305.139H186.155L175.622 289.339Z" fill="#C23E20"/>
<path d="M260.376 284.826C266.749 278.693 261.241 271.227 257.691 268.261L241.536 282.213L237.226 294.954C238.898 291.283 243.146 290.689 245.061 290.85C252.045 291.985 258.181 287.307 260.376 284.826Z" fill="#428151"/>
<path d="M260.376 284.826C266.749 278.693 261.241 271.227 257.691 268.261L241.536 282.213L237.226 294.954C238.898 291.283 243.146 290.689 245.061 290.85C252.045 291.985 258.181 287.307 260.376 284.826Z" fill="url(#paint0_linear_645_13091)"/>
<path d="M225.973 272.572C224.913 263.791 233.9 261.488 238.526 261.435L242.222 282.458L237.508 295.054C238.533 291.153 235.617 288.007 234.031 286.922C227.902 283.386 226.105 275.882 225.973 272.572Z" fill="#428151"/>
<path d="M225.973 272.572C224.913 263.791 233.9 261.488 238.526 261.435L242.222 282.458L237.508 295.054C238.533 291.153 235.617 288.007 234.031 286.922C227.902 283.386 226.105 275.882 225.973 272.572Z" fill="url(#paint1_linear_645_13091)"/>
<path d="M232.698 281.543C228.636 259.942 241.141 255.159 247.901 255.468C250.307 255.321 253.477 257.036 254.762 257.912C269.298 268.968 252.323 285.385 242.657 293.488C238.537 294.54 235.329 291.928 234.24 290.49C233.922 287.858 233.079 283.429 232.698 281.543Z" fill="url(#paint2_linear_645_13091)"/>
<path fill-rule="evenodd" clip-rule="evenodd" d="M251.627 256.795C244.867 256.486 232.362 261.269 236.424 282.87C236.806 284.756 237.649 289.185 237.966 291.817C238.38 292.364 239.1 293.08 240.06 293.7C237.217 293.438 235.087 291.608 234.24 290.49C233.922 287.858 233.079 283.429 232.698 281.543C228.636 259.942 241.141 255.159 247.901 255.468C249.524 255.368 251.495 256.117 253.001 256.883C252.528 256.803 252.065 256.768 251.627 256.795Z" fill="#509E64"/>
<path d="M242.145 287.503C244.472 285.883 251.984 280.511 255.034 269.001" stroke="#71E08D" stroke-linecap="round"/>
<path d="M246.586 269.141L241.277 284.045" stroke="#71E08D" stroke-linecap="round"/>
<path d="M233.085 301.743C224.784 297.947 230.325 291.313 234.133 288.47C237.43 286.286 238.331 283.14 239.424 282.456C241.585 281.106 242.809 282.778 243.15 283.784C243.381 284.462 243.075 289.889 243.448 291.788C246.87 306.653 237.475 303.657 233.085 301.743Z" fill="#E3F5B5"/>
<path fill-rule="evenodd" clip-rule="evenodd" d="M236.648 302.994C228.585 299.186 234.077 292.621 237.86 289.798C239.937 288.422 241.063 286.664 241.885 285.381C242.368 284.627 242.746 284.037 243.15 283.784C243.15 283.784 243.15 283.784 243.15 283.784C242.809 282.778 241.585 281.106 239.424 282.456C239.02 282.709 238.641 283.3 238.158 284.054C237.336 285.337 236.21 287.094 234.133 288.47C230.325 291.313 224.784 297.947 233.085 301.743C234.083 302.178 235.341 302.67 236.648 302.994Z" fill="#D1E896"/>
<path d="M243 276.261C241.868 275.508 239.871 273.257 240.933 270.276" stroke="#71E08D" stroke-linecap="round"/>
<path d="M221.755 284.826C228.127 278.693 222.62 271.227 219.069 268.261L202.914 282.213L198.604 294.954C200.276 291.283 204.524 290.689 206.439 290.85C213.423 291.985 219.559 287.307 221.755 284.826Z" fill="#428151"/>
<path d="M221.755 284.826C228.127 278.693 222.62 271.227 219.069 268.261L202.914 282.213L198.604 294.954C200.276 291.283 204.524 290.689 206.439 290.85C213.423 291.985 219.559 287.307 221.755 284.826Z" fill="url(#paint3_linear_645_13091)"/>
<path d="M187.351 272.572C186.291 263.791 195.278 261.488 199.904 261.435L203.601 282.458L198.886 295.054C199.912 291.153 196.996 288.007 195.409 286.922C189.281 283.386 187.484 275.882 187.351 272.572Z" fill="#428151"/>
<path d="M187.351 272.572C186.291 263.791 195.278 261.488 199.904 261.435L203.601 282.458L198.886 295.054C199.912 291.153 196.996 288.007 195.409 286.922C189.281 283.386 187.484 275.882 187.351 272.572Z" fill="url(#paint4_linear_645_13091)"/>
<path d="M194.076 281.543C190.014 259.942 202.519 255.159 209.279 255.468C211.685 255.321 214.856 257.036 216.14 257.912C230.676 268.968 213.702 285.385 204.035 293.488C199.915 294.54 196.707 291.928 195.618 290.49C195.301 287.858 194.458 283.429 194.076 281.543Z" fill="url(#paint5_linear_645_13091)"/>
<path fill-rule="evenodd" clip-rule="evenodd" d="M213.006 256.795C206.245 256.486 193.74 261.269 197.803 282.87C198.184 284.756 199.027 289.185 199.345 291.817C199.759 292.364 200.479 293.08 201.438 293.7C198.595 293.438 196.465 291.608 195.618 290.49C195.3 287.858 194.458 283.429 194.076 281.543C190.014 259.942 202.519 255.159 209.279 255.468C210.903 255.368 212.874 256.117 214.379 256.883C213.907 256.803 213.443 256.768 213.006 256.795Z" fill="#509E64"/>
<path d="M203.524 287.503C205.85 285.883 213.362 280.511 216.412 269.001" stroke="#71E08D" stroke-linecap="round"/>
<path d="M207.964 269.141L202.656 284.045" stroke="#71E08D" stroke-linecap="round"/>
<path d="M194.463 301.743C186.163 297.947 191.704 291.313 195.511 288.47C198.809 286.286 199.709 283.14 200.803 282.456C202.963 281.106 204.187 282.778 204.529 283.784C204.76 284.462 204.454 289.889 204.827 291.788C208.248 306.653 198.853 303.657 194.463 301.743Z" fill="#E3F5B5"/>
<path fill-rule="evenodd" clip-rule="evenodd" d="M198.025 302.994C189.963 299.185 195.455 292.621 199.237 289.798C201.314 288.422 202.44 286.664 203.263 285.381C203.746 284.627 204.124 284.037 204.529 283.784C204.187 282.778 202.963 281.106 200.803 282.456C200.398 282.709 200.02 283.3 199.536 284.054C198.714 285.337 197.588 287.094 195.511 288.47C191.703 291.313 186.163 297.947 194.463 301.743C195.461 302.178 196.718 302.669 198.025 302.994Z" fill="#D1E896"/>
<path d="M204.378 276.261C203.247 275.508 201.249 273.257 202.311 270.276" stroke="#71E08D" stroke-linecap="round"/>
<path d="M208.024 284.826C201.652 278.693 207.159 271.227 210.709 268.261L226.865 282.213L231.174 294.954C229.503 291.283 225.255 290.689 223.34 290.85C216.356 291.985 210.219 287.307 208.024 284.826Z" fill="#428151"/>
<path d="M208.024 284.826C201.652 278.693 207.159 271.227 210.709 268.261L226.865 282.213L231.174 294.954C229.503 291.283 225.255 290.689 223.34 290.85C216.356 291.985 210.219 287.307 208.024 284.826Z" fill="url(#paint6_linear_645_13091)"/>
<path d="M242.427 272.572C243.487 263.791 234.5 261.488 229.874 261.435L226.177 282.458L230.892 295.054C229.867 291.153 232.783 288.007 234.369 286.922C240.497 283.386 242.294 275.882 242.427 272.572Z" fill="#428151"/>
<path d="M242.427 272.572C243.487 263.791 234.5 261.488 229.874 261.435L226.177 282.458L230.892 295.054C229.867 291.153 232.783 288.007 234.369 286.922C240.497 283.386 242.294 275.882 242.427 272.572Z" fill="url(#paint7_linear_645_13091)"/>
<path d="M235.702 281.543C239.765 259.942 227.26 255.159 220.5 255.468C218.093 255.321 214.923 257.036 213.639 257.912C199.102 268.968 216.077 285.385 225.744 293.488C229.863 294.54 233.071 291.928 234.161 290.49C234.478 287.858 235.321 283.429 235.702 281.543Z" fill="url(#paint8_linear_645_13091)"/>
<path fill-rule="evenodd" clip-rule="evenodd" d="M216.773 256.795C223.533 256.486 236.038 261.269 231.976 282.87C231.595 284.756 230.752 289.185 230.434 291.817C230.02 292.364 229.3 293.08 228.34 293.7C231.184 293.438 233.313 291.608 234.161 290.49C234.478 287.858 235.321 283.429 235.703 281.543C239.765 259.942 227.26 255.159 220.5 255.468C218.876 255.368 216.905 256.117 215.4 256.883C215.872 256.803 216.335 256.768 216.773 256.795Z" fill="#509E64"/>
<path d="M226.255 287.503C223.928 285.883 216.416 280.511 213.366 269.001" stroke="#71E08D" stroke-linecap="round"/>
<path d="M221.814 269.141L227.123 284.045" stroke="#71E08D" stroke-linecap="round"/>
<path d="M235.315 301.743C243.615 297.947 238.075 291.313 234.267 288.47C230.97 286.286 230.069 283.14 228.976 282.456C226.815 281.106 225.591 282.778 225.25 283.784C225.019 284.462 225.325 289.889 224.952 291.788C221.53 306.653 230.925 303.657 235.315 301.743Z" fill="#E3F5B5"/>
<path fill-rule="evenodd" clip-rule="evenodd" d="M231.753 302.994C239.815 299.185 234.323 292.621 230.541 289.798C228.464 288.422 227.338 286.664 226.515 285.381C226.032 284.627 225.654 284.037 225.249 283.784C225.25 283.784 225.25 283.784 225.25 283.784C225.591 282.778 226.815 281.106 228.976 282.456C229.38 282.709 229.759 283.3 230.242 284.054C231.064 285.337 232.19 287.094 234.267 288.47C238.075 291.313 243.616 297.947 235.315 301.743C234.317 302.178 233.059 302.669 231.753 302.994Z" fill="#D1E896"/>
<path d="M225.4 276.261C226.532 275.508 228.529 273.257 227.467 270.276" stroke="#71E08D" stroke-linecap="round"/>
<path d="M169.402 284.826C163.03 278.693 168.537 271.227 172.087 268.261L188.242 282.213L192.552 294.954C190.881 291.283 186.633 290.689 184.717 290.85C177.733 291.985 171.597 287.307 169.402 284.826Z" fill="#428151"/>
<path d="M169.402 284.826C163.03 278.693 168.537 271.227 172.087 268.261L188.242 282.213L192.552 294.954C190.881 291.283 186.633 290.689 184.717 290.85C177.733 291.985 171.597 287.307 169.402 284.826Z" fill="url(#paint9_linear_645_13091)"/>
<path d="M203.805 272.572C204.866 263.791 195.879 261.488 191.253 261.435L187.556 282.458L192.271 295.054C191.245 291.153 194.161 288.007 195.747 286.922C201.876 283.386 203.673 275.882 203.805 272.572Z" fill="#428151"/>
<path d="M203.805 272.572C204.866 263.791 195.879 261.488 191.253 261.435L187.556 282.458L192.271 295.054C191.245 291.153 194.161 288.007 195.747 286.922C201.876 283.386 203.673 275.882 203.805 272.572Z" fill="url(#paint10_linear_645_13091)"/>
<path d="M197.08 281.543C201.143 259.942 188.638 255.159 181.878 255.468C179.471 255.321 176.301 257.036 175.017 257.912C160.48 268.968 177.455 285.385 187.122 293.488C191.241 294.54 194.449 291.928 195.538 290.49C195.856 287.858 196.699 283.429 197.08 281.543Z" fill="url(#paint11_linear_645_13091)"/>
<path fill-rule="evenodd" clip-rule="evenodd" d="M178.151 256.795C184.912 256.486 197.417 261.269 193.354 282.87C192.973 284.756 192.13 289.185 191.812 291.817C191.398 292.364 190.678 293.08 189.719 293.7C192.562 293.438 194.691 291.608 195.538 290.49C195.856 287.858 196.699 283.429 197.08 281.543C201.143 259.942 188.638 255.159 181.878 255.468C180.254 255.368 178.283 256.117 176.778 256.883C177.25 256.803 177.713 256.768 178.151 256.795Z" fill="#509E64"/>
<path d="M187.633 287.503C185.306 285.883 177.794 280.511 174.744 269.001" stroke="#71E08D" stroke-linecap="round"/>
<path d="M183.192 269.141L188.501 284.045" stroke="#71E08D" stroke-linecap="round"/>
<path d="M196.693 301.743C204.993 297.947 199.453 291.313 195.645 288.47C192.348 286.286 191.447 283.14 190.353 282.456C188.193 281.106 186.969 282.778 186.627 283.784C186.397 284.462 186.703 289.889 186.33 291.788C182.908 306.653 192.303 303.657 196.693 301.743Z" fill="#E3F5B5"/>
<path fill-rule="evenodd" clip-rule="evenodd" d="M193.131 302.994C201.193 299.185 195.701 292.621 191.918 289.798C189.842 288.422 188.716 286.664 187.893 285.381C187.41 284.627 187.032 284.037 186.627 283.784C186.627 283.784 186.627 283.784 186.627 283.784C186.969 282.778 188.193 281.106 190.354 282.456C190.758 282.709 191.137 283.3 191.62 284.054C192.442 285.337 193.568 287.094 195.645 288.47C199.453 291.313 204.993 297.947 196.693 301.743C195.695 302.178 194.437 302.669 193.131 302.994Z" fill="#D1E896"/>
<path d="M186.778 276.261C187.91 275.508 189.907 273.257 188.845 270.276" stroke="#71E08D" stroke-linecap="round"/>
<path d="M213.987 271.313C210.437 270.808 206.936 269.872 203.628 272.134C200.539 274.248 198.173 277.857 197.271 281.72C195.996 287.177 196.754 293.391 200.157 297.763C202.027 300.161 205.135 302.716 207.913 303.665C215.046 306.109 223.861 304.952 228.336 297.667C229.614 295.588 230.895 292.768 231.362 290.302C232.673 283.4 231.206 275.312 224.688 272.342C221.785 271.019 218.684 271.747 215.65 271.507C215.091 271.46 214.539 271.392 213.987 271.313V271.313Z" fill="url(#paint12_linear_645_13091)"/>
<path d="M217.471 267.013C217.449 266.92 217.406 266.837 217.344 266.78C217.213 266.669 216.942 266.558 216.788 266.497C216.556 266.4 216.308 266.361 216.066 266.361C215.974 266.361 215.886 266.364 215.801 266.375C215.474 266.418 215.193 266.551 215.007 266.841C214.758 267.217 214.801 267.644 214.736 268.081C214.644 268.704 214.376 269.271 214.229 269.88C214.115 270.349 214.023 270.826 213.941 271.306C213.879 271.657 213.827 272.008 213.788 272.363C213.647 273.678 213.451 274.994 213.503 276.323C213.507 276.506 213.513 276.689 213.523 276.871C213.526 276.965 213.536 277.054 213.549 277.147C213.569 277.269 213.575 277.409 213.588 277.549C213.595 277.599 213.598 277.649 213.605 277.699C213.641 277.914 213.709 278.115 213.896 278.226C214.128 278.369 214.402 278.434 214.677 278.437C214.762 278.437 214.843 278.423 214.928 278.416L215.144 278.402C215.249 278.369 215.353 278.326 215.464 278.294C215.638 278.247 215.808 278.151 215.929 278.004C216.036 277.871 216.05 277.735 216.043 277.577L216.033 277.466C216.02 277.326 216.01 277.183 216.004 277.04C215.991 276.757 215.981 276.466 215.974 276.183C215.955 275.545 215.965 274.9 216.017 274.263C216.053 273.883 216.069 273.496 216.099 273.116C216.135 272.585 216.203 272.059 216.285 271.532C216.304 271.421 216.314 271.313 216.334 271.206C216.452 270.532 216.671 269.926 216.906 269.289C217.014 268.995 217.06 268.683 217.158 268.4C217.265 268.106 217.504 267.945 217.504 267.594C217.504 267.432 217.517 267.199 217.471 267.013V267.013Z" fill="#855C52"/>
<path d="M206.649 274.489C206.166 273.922 205.019 273.986 204.24 274.382C203.278 274.869 202.475 275.79 201.949 276.785C201.497 277.642 200.888 279.404 201.771 280.233C202.204 280.636 202.649 280.411 203.065 280.12C203.819 279.594 204.198 278.583 204.806 277.892C205.432 277.186 207.768 275.783 206.649 274.489V274.489Z" fill="#F1E7E7"/>
<path d="M213.749 277.437C212.984 277.258 212.238 276.961 211.539 276.584C211.173 276.387 210.114 275.463 210.006 276.434C209.869 277.606 211.343 278.616 212.075 278.992C213.337 279.645 214.749 279.878 216.105 279.577C217.413 279.286 218.527 278.58 219.364 277.34C219.472 277.179 219.544 276.989 219.596 276.81C219.782 276.161 219.135 276.154 218.789 276.337C218.508 276.484 218.266 276.72 217.988 276.867C217.452 277.151 216.89 277.38 216.318 277.502C215.461 277.681 214.595 277.634 213.749 277.437V277.437Z" fill="#B93221"/>
<path d="M222.515 266.359C224.555 266.302 227.976 267.064 229.36 268.279C229.529 268.432 229.853 268.646 229.901 268.834C229.977 269.142 229.684 269.406 229.469 269.631C226.426 272.874 220.193 274.555 216.248 272.352C215.696 272.044 215.992 271.472 216.104 271C216.558 269.114 218.302 267.384 220.452 266.699C221.126 266.485 221.822 266.377 222.515 266.359V266.359Z" fill="#3B9A2C"/>
<path d="M252.867 289.339C219.16 300.575 187.326 294.021 175.622 289.339V338.495C212.489 349.028 237.652 342.591 252.867 338.495V289.339Z" fill="#D25C41"/>
</g>
<path d="M87.0763 70.872C87.0763 69.64 87.2723 68.5573 87.6643 67.624C88.0563 66.672 88.5977 65.8787 89.2883 65.244C89.9977 64.5907 90.8377 64.1053 91.8083 63.788C92.779 63.452 93.8523 63.284 95.0283 63.284C96.2043 63.284 97.2777 63.452 98.2483 63.788C99.219 64.1053 100.059 64.5813 100.768 65.216C101.478 65.8507 102.028 66.644 102.42 67.596C102.812 68.548 103.008 69.64 103.008 70.872V81.008C103.008 82.24 102.812 83.332 102.42 84.284C102.028 85.236 101.478 86.0293 100.768 86.664C100.078 87.2987 99.2377 87.7747 98.2483 88.092C97.2777 88.428 96.2137 88.596 95.0563 88.596C93.8803 88.596 92.807 88.428 91.8363 88.092C90.8657 87.7747 90.0257 87.2987 89.3163 86.664C88.607 86.0293 88.0563 85.236 87.6643 84.284C87.2723 83.332 87.0763 82.24 87.0763 81.008V70.872ZM92.6203 81.12C92.6203 82.072 92.8443 82.7907 93.2923 83.276C93.759 83.7427 94.3377 83.976 95.0283 83.976C95.719 83.976 96.2977 83.7427 96.7643 83.276C97.231 82.7907 97.4643 82.072 97.4643 81.12V70.76C97.4643 69.808 97.231 69.0893 96.7643 68.604C96.2977 68.1187 95.719 67.8853 95.0283 67.904C94.3377 67.9227 93.759 68.1747 93.2923 68.66C92.8443 69.1267 92.6203 69.8267 92.6203 70.76V81.12ZM106.2 89.128V65.608C106.2 64.6933 106.48 64.0027 107.04 63.536C107.6 63.0693 108.254 62.836 109 62.836C109.747 62.836 110.4 63.0693 110.96 63.536C111.52 64.0027 111.8 64.6933 111.8 65.608V89.128H106.2ZM121.824 89.212C120.798 89.212 119.911 89.1 119.164 88.876C118.418 88.652 117.802 88.3347 117.316 87.924C116.85 87.5133 116.504 87.028 116.28 86.468C116.056 85.8893 115.944 85.2547 115.944 84.564C115.944 84.228 116.01 83.92 116.14 83.64C115.674 83.528 115.31 83.304 115.048 82.968C114.806 82.6133 114.684 82.1933 114.684 81.708C114.684 81.1107 114.871 80.644 115.244 80.308C115.618 79.9533 116.15 79.776 116.84 79.776H124.4C124.587 79.1787 124.942 78.74 125.464 78.46C125.987 78.1613 126.622 78.012 127.368 78.012C128.115 78.012 128.74 78.1613 129.244 78.46C129.767 78.74 130.122 79.1787 130.308 79.776H137.896C138.587 79.776 139.119 79.9533 139.492 80.308C139.866 80.644 140.052 81.1107 140.052 81.708C140.052 82.1933 139.922 82.6133 139.66 82.968C139.399 83.3227 139.026 83.556 138.54 83.668C138.69 84.004 138.764 84.3027 138.764 84.564C138.764 85.2547 138.652 85.8893 138.428 86.468C138.204 87.028 137.85 87.5133 137.364 87.924C136.898 88.3347 136.291 88.652 135.544 88.876C134.798 89.1 133.911 89.212 132.884 89.212H121.824ZM118.632 77.368C117.942 77.368 117.326 77.2467 116.784 77.004C116.262 76.7613 115.823 76.444 115.468 76.052C115.114 75.6413 114.843 75.1747 114.656 74.652C114.488 74.1293 114.404 73.588 114.404 73.028V72.58C114.404 71.4227 114.759 70.4893 115.468 69.78C116.178 69.0707 117.232 68.716 118.632 68.716H123.112V67.932C123.112 67.7453 123.075 67.6147 123 67.54C122.926 67.4467 122.758 67.4 122.496 67.4H116.364C115.711 67.4 115.244 67.1947 114.964 66.784C114.684 66.3733 114.544 65.944 114.544 65.496C114.544 65.0107 114.684 64.572 114.964 64.18C115.263 63.7693 115.73 63.564 116.364 63.564H124.792C126.192 63.564 127.191 63.8813 127.788 64.516C128.404 65.1507 128.712 65.9813 128.712 67.008V72.216H120.872C120.611 72.216 120.424 72.2813 120.312 72.412C120.219 72.524 120.172 72.6733 120.172 72.86V72.916C120.172 73.3267 120.406 73.532 120.872 73.532H130.168C130.803 73.532 131.26 73.7373 131.54 74.148C131.839 74.5587 131.988 74.9973 131.988 75.464C131.988 75.9307 131.848 76.3693 131.568 76.78C131.288 77.172 130.822 77.368 130.168 77.368H118.632ZM133.668 71.712H131.708C131.279 71.712 130.915 71.6467 130.616 71.516C130.336 71.3667 130.094 71.18 129.888 70.956C129.702 70.7133 129.562 70.452 129.468 70.172C129.394 69.892 129.356 69.612 129.356 69.332C129.356 69.052 129.394 68.772 129.468 68.492C129.562 68.212 129.702 67.96 129.888 67.736C130.075 67.512 130.318 67.3253 130.616 67.176C130.915 67.0267 131.279 66.952 131.708 66.952H133.668V65.552C133.668 64.656 133.948 63.984 134.508 63.536C135.068 63.0693 135.712 62.836 136.44 62.836C136.795 62.836 137.14 62.9013 137.476 63.032C137.812 63.144 138.111 63.312 138.372 63.536C138.634 63.76 138.839 64.04 138.988 64.376C139.156 64.712 139.24 65.104 139.24 65.552V78.432H133.668V71.712ZM122.972 83.36C122.487 83.36 122.123 83.4627 121.88 83.668C121.656 83.8547 121.544 84.116 121.544 84.452C121.544 84.7693 121.647 85.04 121.852 85.264C122.076 85.4693 122.431 85.572 122.916 85.572H131.82C132.306 85.572 132.651 85.4693 132.856 85.264C133.062 85.04 133.164 84.7693 133.164 84.452C133.164 84.116 133.052 83.8547 132.828 83.668C132.604 83.4627 132.25 83.36 131.764 83.36H122.972ZM143.3 83.64C144.103 83.5093 144.84 83.304 145.512 83.024C146.184 82.7253 146.763 82.2867 147.248 81.708C147.734 81.1293 148.107 80.364 148.368 79.412C148.648 78.46 148.788 77.256 148.788 75.8V69.304C148.788 69.0987 148.723 68.9307 148.592 68.8C148.48 68.6693 148.312 68.604 148.088 68.604H143.804C143.375 68.604 143.011 68.5387 142.712 68.408C142.432 68.2587 142.19 68.072 141.984 67.848C141.798 67.624 141.658 67.372 141.564 67.092C141.49 66.812 141.452 66.532 141.452 66.252C141.452 65.972 141.49 65.692 141.564 65.412C141.658 65.132 141.798 64.88 141.984 64.656C142.171 64.432 142.414 64.2547 142.712 64.124C143.011 63.9747 143.375 63.9 143.804 63.9H149.712C150.496 63.9 151.159 63.9653 151.7 64.096C152.242 64.2267 152.68 64.4413 153.016 64.74C153.352 65.0387 153.586 65.4307 153.716 65.916C153.866 66.4013 153.94 66.9987 153.94 67.708V73.196H155.9V65.216C155.9 64.432 156.134 63.844 156.6 63.452C157.067 63.0413 157.627 62.836 158.28 62.836C158.598 62.836 158.906 62.892 159.204 63.004C159.503 63.0973 159.764 63.2467 159.988 63.452C160.231 63.6573 160.418 63.9093 160.548 64.208C160.698 64.488 160.772 64.824 160.772 65.216V89.128H155.9V77.732H153.856C153.688 79.6173 153.306 81.2133 152.708 82.52C152.13 83.808 151.402 84.8627 150.524 85.684C149.647 86.5053 148.648 87.112 147.528 87.504C146.408 87.9147 145.251 88.1667 144.056 88.26C143.31 88.316 142.647 88.1667 142.068 87.812C141.508 87.476 141.21 86.916 141.172 86.132C141.135 85.4787 141.284 84.9373 141.62 84.508C141.975 84.06 142.535 83.7707 143.3 83.64ZM162.144 65.216C162.144 64.432 162.396 63.844 162.9 63.452C163.404 63.0413 163.983 62.836 164.636 62.836C164.954 62.836 165.262 62.892 165.56 63.004C165.859 63.0973 166.12 63.2467 166.344 63.452C166.587 63.6573 166.774 63.9093 166.904 64.208C167.054 64.488 167.128 64.824 167.128 65.216V89.128H162.144V65.216ZM176.068 83.5C177.095 82.8093 177.944 82.0067 178.616 81.092C179.288 80.1587 179.829 79.0853 180.24 77.872C180.651 76.6587 180.94 75.2867 181.108 73.756C181.276 72.2253 181.36 70.4987 181.36 68.576V66.392C181.36 65.496 181.64 64.824 182.2 64.376C182.76 63.9093 183.404 63.676 184.132 63.676C184.487 63.676 184.832 63.7413 185.168 63.872C185.504 63.984 185.793 64.1613 186.036 64.404C186.297 64.628 186.503 64.908 186.652 65.244C186.82 65.58 186.904 65.9627 186.904 66.392V68.548C186.904 69.388 186.885 70.2 186.848 70.984C186.811 71.7493 186.755 72.496 186.68 73.224C187.856 73.6907 188.883 74.3067 189.76 75.072C190.637 75.8187 191.347 76.7707 191.888 77.928C192.448 79.0667 192.831 80.4293 193.036 82.016C193.26 83.584 193.297 85.4227 193.148 87.532H187.716C188.033 85.2733 188.015 83.4067 187.66 81.932C187.324 80.4387 186.68 79.2907 185.728 78.488C184.515 82.7067 182.443 85.6093 179.512 87.196C179.157 87.3827 178.793 87.5133 178.42 87.588C178.047 87.6813 177.683 87.7093 177.328 87.672C176.973 87.6533 176.647 87.5693 176.348 87.42C176.068 87.2893 175.835 87.1027 175.648 86.86C175.461 86.636 175.312 86.384 175.2 86.104C175.107 85.8053 175.069 85.5067 175.088 85.208C175.107 84.8907 175.191 84.5827 175.34 84.284C175.508 83.9853 175.751 83.724 176.068 83.5ZM195.052 65.552C195.052 64.656 195.332 63.984 195.892 63.536C196.452 63.0693 197.096 62.836 197.824 62.836C198.179 62.836 198.524 62.9013 198.86 63.032C199.196 63.144 199.485 63.312 199.728 63.536C199.989 63.76 200.195 64.04 200.344 64.376C200.512 64.712 200.596 65.104 200.596 65.552V72.636H201.52C201.949 72.636 202.304 72.7107 202.584 72.86C202.864 73.0093 203.088 73.2053 203.256 73.448C203.424 73.672 203.545 73.9333 203.62 74.232C203.695 74.512 203.732 74.792 203.732 75.072C203.732 75.352 203.695 75.6413 203.62 75.94C203.545 76.22 203.424 76.4813 203.256 76.724C203.088 76.948 202.855 77.1347 202.556 77.284C202.276 77.4333 201.931 77.508 201.52 77.508H200.596V89.128H195.052V65.552ZM208.548 74.372V72.496C207.111 72.328 206.028 71.824 205.3 70.984C204.591 70.1253 204.236 69.0987 204.236 67.904V67.848C204.236 67.176 204.348 66.56 204.572 66C204.796 65.4213 205.132 64.9267 205.58 64.516C206.028 64.0867 206.588 63.76 207.26 63.536C207.932 63.2933 208.707 63.172 209.584 63.172H223.416C224.293 63.172 225.068 63.2933 225.74 63.536C226.412 63.76 226.972 64.0867 227.42 64.516C227.868 64.9267 228.204 65.4213 228.428 66C228.652 66.56 228.764 67.176 228.764 67.848V67.904C228.764 69.0987 228.4 70.1253 227.672 70.984C226.963 71.824 225.889 72.328 224.452 72.496V74.372H227.42C228.223 74.372 228.783 74.5867 229.1 75.016C229.436 75.4453 229.604 75.9213 229.604 76.444C229.604 76.9853 229.436 77.4613 229.1 77.872C228.764 78.2827 228.204 78.488 227.42 78.488H205.58C204.796 78.488 204.236 78.2827 203.9 77.872C203.564 77.4613 203.396 76.9853 203.396 76.444C203.396 75.9213 203.555 75.4453 203.872 75.016C204.208 74.5867 204.777 74.372 205.58 74.372H208.548ZM223.444 79.748C224.321 79.748 225.087 79.8693 225.74 80.112C226.393 80.3547 226.935 80.6907 227.364 81.12C227.812 81.5307 228.139 82.0253 228.344 82.604C228.568 83.1827 228.68 83.808 228.68 84.48C228.68 85.152 228.568 85.7773 228.344 86.356C228.139 86.9347 227.812 87.4293 227.364 87.84C226.935 88.2693 226.393 88.6053 225.74 88.848C225.087 89.0907 224.321 89.212 223.444 89.212H209.556C208.679 89.212 207.904 89.0907 207.232 88.848C206.579 88.6053 206.037 88.2693 205.608 87.84C205.179 87.4293 204.852 86.9347 204.628 86.356C204.423 85.7773 204.32 85.152 204.32 84.48C204.32 83.808 204.423 83.1827 204.628 82.604C204.852 82.0253 205.179 81.5307 205.608 81.12C206.037 80.6907 206.579 80.3547 207.232 80.112C207.904 79.8693 208.679 79.748 209.556 79.748H223.444ZM221.708 85.432C222.249 85.432 222.595 85.3293 222.744 85.124C222.893 84.9 222.968 84.6853 222.968 84.48C222.968 84.2747 222.893 84.0693 222.744 83.864C222.595 83.64 222.249 83.528 221.708 83.528H211.292C210.751 83.528 210.405 83.64 210.256 83.864C210.107 84.0693 210.032 84.2747 210.032 84.48C210.032 84.6853 210.107 84.9 210.256 85.124C210.405 85.3293 210.751 85.432 211.292 85.432H221.708ZM209.892 67.932C209.892 68.1747 209.976 68.3707 210.144 68.52C210.312 68.6693 210.648 68.744 211.152 68.744H221.848C222.352 68.744 222.688 68.6693 222.856 68.52C223.024 68.3707 223.108 68.1747 223.108 67.932V67.82C223.108 67.6147 223.024 67.4373 222.856 67.288C222.688 67.12 222.352 67.036 221.848 67.036H211.152C210.648 67.036 210.312 67.12 210.144 67.288C209.976 67.4373 209.892 67.6147 209.892 67.82V67.932ZM213.896 74.372H219.104V72.552H213.896V74.372ZM237.668 88.624C236.809 88.624 236.007 88.4933 235.26 88.232C234.513 87.9707 233.86 87.5693 233.3 87.028C232.759 86.4867 232.329 85.8053 232.012 84.984C231.695 84.144 231.536 83.1547 231.536 82.016V72.468C231.536 71.5533 231.657 70.76 231.9 70.088C231.415 69.976 231.051 69.7333 230.808 69.36C230.584 68.968 230.472 68.52 230.472 68.016C230.472 67.4187 230.621 66.924 230.92 66.532C231.237 66.1213 231.741 65.916 232.432 65.916H235.064V65.552C235.064 64.712 235.279 64.0587 235.708 63.592C236.156 63.1067 236.809 62.864 237.668 62.864C238.545 62.864 239.208 63.1067 239.656 63.592C240.104 64.0587 240.328 64.712 240.328 65.552V65.916H242.904C243.595 65.916 244.089 66.1213 244.388 66.532C244.705 66.924 244.864 67.4187 244.864 68.016C244.864 68.52 244.743 68.968 244.5 69.36C244.276 69.7333 243.921 69.976 243.436 70.088C243.548 70.4427 243.632 70.816 243.688 71.208C243.763 71.6 243.8 72.02 243.8 72.468V82.016C243.8 83.1547 243.641 84.144 243.324 84.984C243.007 85.8053 242.568 86.4867 242.008 87.028C241.467 87.5693 240.823 87.9707 240.076 88.232C239.329 88.4933 238.527 88.624 237.668 88.624ZM251.78 77.564H250.436V89.128H245.592V65.216C245.592 64.432 245.825 63.844 246.292 63.452C246.777 63.0413 247.347 62.836 248 62.836C248.635 62.836 249.195 63.0413 249.68 63.452C250.184 63.844 250.436 64.432 250.436 65.216V72.972H251.78V65.216C251.78 64.432 252.023 63.844 252.508 63.452C253.012 63.0413 253.591 62.836 254.244 62.836C254.561 62.836 254.869 62.892 255.168 63.004C255.467 63.0973 255.728 63.2467 255.952 63.452C256.195 63.6573 256.381 63.9093 256.512 64.208C256.661 64.488 256.736 64.824 256.736 65.216V89.128H251.78V77.564ZM237.668 84.424C237.929 84.424 238.191 84.3213 238.452 84.116C238.732 83.9107 238.872 83.5373 238.872 82.996V71.404C238.872 70.8813 238.732 70.5173 238.452 70.312C238.191 70.088 237.929 69.976 237.668 69.976C237.407 69.976 237.136 70.088 236.856 70.312C236.595 70.5173 236.464 70.8813 236.464 71.404V82.996C236.464 83.5373 236.595 83.9107 236.856 84.116C237.136 84.3213 237.407 84.424 237.668 84.424ZM275.812 84.032V79.132H271.024C270.184 79.132 269.493 79.0667 268.952 78.936C268.429 78.7867 268.018 78.544 267.72 78.208C267.421 77.872 267.216 77.4333 267.104 76.892C267.01 76.332 266.964 75.6413 266.964 74.82V65.832C266.964 65.384 267.038 65.0013 267.188 64.684C267.356 64.3667 267.57 64.1147 267.832 63.928C268.112 63.7227 268.42 63.5733 268.756 63.48C269.11 63.3867 269.474 63.34 269.848 63.34C270.202 63.34 270.548 63.396 270.884 63.508C271.22 63.6013 271.518 63.7507 271.78 63.956C272.06 64.1613 272.284 64.4227 272.452 64.74C272.62 65.0573 272.704 65.44 272.704 65.888V66.952H284.604V65.832C284.604 65.384 284.678 65.0013 284.828 64.684C284.996 64.3667 285.21 64.1147 285.472 63.928C285.733 63.7227 286.032 63.5733 286.368 63.48C286.722 63.3867 287.086 63.34 287.46 63.34C287.814 63.34 288.16 63.3867 288.496 63.48C288.85 63.5733 289.158 63.7227 289.42 63.928C289.681 64.1147 289.896 64.3667 290.064 64.684C290.232 65.0013 290.316 65.384 290.316 65.832V79.132H281.524V84.032H289.42C289.849 84.032 290.213 84.0973 290.512 84.228C290.81 84.3587 291.053 84.536 291.24 84.76C291.426 84.9653 291.557 85.208 291.632 85.488C291.725 85.7493 291.772 86.02 291.772 86.3C291.772 86.8787 291.585 87.4013 291.212 87.868C290.857 88.3347 290.26 88.568 289.42 88.568H267.916C267.076 88.568 266.469 88.3347 266.096 87.868C265.741 87.4013 265.564 86.8787 265.564 86.3C265.564 86.02 265.601 85.7493 265.676 85.488C265.769 85.208 265.909 84.9653 266.096 84.76C266.282 84.536 266.525 84.3587 266.824 84.228C267.122 84.0973 267.486 84.032 267.916 84.032H275.812ZM284.604 74.624V71.292H272.704V73.784C272.704 74.064 272.76 74.2787 272.872 74.428C273.002 74.5587 273.236 74.624 273.572 74.624H284.604ZM293.172 83.472C293.9 82.8187 294.497 82.0907 294.964 81.288C295.449 80.4667 295.832 79.5053 296.112 78.404C296.392 77.284 296.588 75.9773 296.7 74.484C296.812 72.972 296.868 71.1893 296.868 69.136V66.308C296.868 65.412 297.12 64.7493 297.624 64.32C298.128 63.8907 298.744 63.676 299.472 63.676C300.181 63.676 300.797 63.9 301.32 64.348C301.842 64.796 302.104 65.4493 302.104 66.308V69.108C302.104 71.348 301.992 73.392 301.768 75.24C302.626 75.6507 303.382 76.1827 304.036 76.836C304.708 77.4707 305.258 78.2827 305.688 79.272C306.117 80.2427 306.416 81.4093 306.584 82.772C306.752 84.116 306.78 85.7027 306.668 87.532H301.572C301.796 85.8707 301.824 84.48 301.656 83.36C301.506 82.24 301.18 81.3347 300.676 80.644C300.19 82.2867 299.593 83.6493 298.884 84.732C298.174 85.8147 297.39 86.6547 296.532 87.252C296.27 87.4387 295.962 87.588 295.608 87.7C295.272 87.812 294.926 87.868 294.572 87.868C294.217 87.8867 293.872 87.8307 293.536 87.7C293.2 87.588 292.91 87.3827 292.668 87.084C292.444 86.8227 292.294 86.5333 292.22 86.216C292.145 85.8987 292.126 85.5813 292.164 85.264C292.22 84.928 292.332 84.6107 292.5 84.312C292.668 83.9947 292.892 83.7147 293.172 83.472ZM307.788 75.492H305.492C305.062 75.492 304.698 75.4267 304.4 75.296C304.12 75.1467 303.877 74.96 303.672 74.736C303.485 74.4933 303.345 74.232 303.252 73.952C303.177 73.6533 303.14 73.364 303.14 73.084C303.14 72.804 303.177 72.524 303.252 72.244C303.345 71.9453 303.485 71.684 303.672 71.46C303.858 71.236 304.101 71.0493 304.4 70.9C304.698 70.7507 305.062 70.676 305.492 70.676H307.788V65.216C307.788 64.432 308.021 63.844 308.488 63.452C308.954 63.0413 309.514 62.836 310.168 62.836C310.802 62.836 311.362 63.0413 311.848 63.452C312.352 63.844 312.604 64.432 312.604 65.216V89.128H307.788V75.492ZM313.92 65.216C313.92 64.432 314.172 63.844 314.676 63.452C315.18 63.0413 315.758 62.836 316.412 62.836C316.729 62.836 317.037 62.892 317.336 63.004C317.634 63.0973 317.896 63.2467 318.12 63.452C318.362 63.6573 318.549 63.9093 318.68 64.208C318.829 64.488 318.904 64.824 318.904 65.216V89.128H313.92V65.216ZM321.228 70.732C321.228 69.78 321.386 68.8653 321.704 67.988C322.021 67.1107 322.488 66.3453 323.104 65.692C323.72 65.0387 324.476 64.516 325.372 64.124C326.286 63.732 327.332 63.536 328.508 63.536H338.588C339.764 63.536 340.8 63.732 341.696 64.124C342.61 64.516 343.376 65.0387 343.992 65.692C344.608 66.3453 345.074 67.1107 345.392 67.988C345.709 68.8653 345.868 69.78 345.868 70.732V71.068C345.868 72.02 345.709 72.9347 345.392 73.812C345.074 74.6707 344.608 75.436 343.992 76.108C343.376 76.7613 342.61 77.284 341.696 77.676C340.8 78.0493 339.764 78.236 338.588 78.236H328.508C327.332 78.236 326.286 78.0493 325.372 77.676C324.476 77.284 323.72 76.7613 323.104 76.108C322.488 75.436 322.021 74.6707 321.704 73.812C321.386 72.9347 321.228 72.02 321.228 71.068V70.732ZM325.512 84.088V81.54C325.512 81.092 325.586 80.7187 325.736 80.42C325.885 80.1027 326.081 79.8507 326.324 79.664C326.585 79.4773 326.884 79.3467 327.22 79.272C327.556 79.1973 327.91 79.16 328.284 79.16C328.638 79.16 328.984 79.2067 329.32 79.3C329.656 79.3747 329.954 79.5053 330.216 79.692C330.477 79.86 330.682 80.1027 330.832 80.42C330.981 80.7187 331.056 81.092 331.056 81.54V84.088H336.04V81.54C336.04 81.092 336.114 80.7187 336.264 80.42C336.413 80.1027 336.609 79.8507 336.852 79.664C337.113 79.4773 337.412 79.3467 337.748 79.272C338.084 79.1973 338.438 79.16 338.812 79.16C339.166 79.16 339.512 79.2067 339.848 79.3C340.184 79.3747 340.482 79.5053 340.744 79.692C341.005 79.86 341.21 80.1027 341.36 80.42C341.509 80.7187 341.584 81.092 341.584 81.54V84.088H344.3C345.158 84.088 345.765 84.3213 346.12 84.788C346.474 85.2547 346.652 85.768 346.652 86.328C346.652 86.9067 346.465 87.42 346.092 87.868C345.737 88.3347 345.14 88.568 344.3 88.568H322.796C321.956 88.568 321.349 88.3347 320.976 87.868C320.621 87.42 320.444 86.9067 320.444 86.328C320.444 85.768 320.621 85.2547 320.976 84.788C321.33 84.3213 321.937 84.088 322.796 84.088H325.512ZM340.044 70.676C340.044 69.9293 339.773 69.3133 339.232 68.828C338.709 68.3427 337.981 68.1 337.048 68.1H330.048C329.114 68.1 328.377 68.3427 327.836 68.828C327.313 69.3133 327.052 69.9293 327.052 70.676V71.124C327.052 71.8707 327.313 72.4867 327.836 72.972C328.377 73.4573 329.114 73.7 330.048 73.7H337.048C337.981 73.7 338.709 73.4573 339.232 72.972C339.773 72.4867 340.044 71.8707 340.044 71.124V70.676Z" fill="#DA4468"/>
<ellipse cx="5" cy="217" rx="5" ry="5" fill="#FFCE31" fill-opacity="0.2"/>
<ellipse cx="5" cy="235" rx="5" ry="5" fill="#FFCE31" fill-opacity="0.2"/>
<ellipse cx="5" cy="253" rx="5" ry="5" fill="#FFCE31" fill-opacity="0.2"/>
<ellipse cx="5" cy="271" rx="5" ry="5" fill="#FFCE31" fill-opacity="0.2"/>
<ellipse cx="5" cy="289" rx="5" ry="5" fill="#FFCE31" fill-opacity="0.2"/>
<ellipse cx="5" cy="307" rx="5" ry="5" fill="#FFCE31" fill-opacity="0.2"/>
<ellipse cx="23" cy="217" rx="5" ry="5" fill="#FFCE31" fill-opacity="0.2"/>
<ellipse cx="23" cy="235" rx="5" ry="5" fill="#FFCE31" fill-opacity="0.2"/>
<ellipse cx="23" cy="253" rx="5" ry="5" fill="#FFCE31" fill-opacity="0.2"/>
<ellipse cx="23" cy="271" rx="5" ry="5" fill="#FFCE31" fill-opacity="0.2"/>
<ellipse cx="23" cy="289" rx="5" ry="5" fill="#FFCE31" fill-opacity="0.2"/>
<ellipse cx="23" cy="307" rx="5" ry="5" fill="#FFCE31" fill-opacity="0.2"/>
<ellipse cx="41" cy="217" rx="5" ry="5" fill="#FFCE31" fill-opacity="0.2"/>
<ellipse cx="41" cy="235" rx="5" ry="5" fill="#FFCE31" fill-opacity="0.2"/>
<ellipse cx="41" cy="253" rx="5" ry="5" fill="#FFCE31" fill-opacity="0.2"/>
<ellipse cx="41" cy="271" rx="5" ry="5" fill="#FFCE31" fill-opacity="0.2"/>
<ellipse cx="41" cy="289" rx="5" ry="5" fill="#FFCE31" fill-opacity="0.2"/>
<ellipse cx="41" cy="307" rx="5" ry="5" fill="#FFCE31" fill-opacity="0.2"/>
<ellipse cx="59" cy="217" rx="5" ry="5" fill="#FFCE31" fill-opacity="0.2"/>
<ellipse cx="59" cy="235" rx="5" ry="5" fill="#FFCE31" fill-opacity="0.2"/>
<ellipse cx="59" cy="253" rx="5" ry="5" fill="#FFCE31" fill-opacity="0.2"/>
<ellipse cx="59" cy="271" rx="5" ry="5" fill="#FFCE31" fill-opacity="0.2"/>
<ellipse cx="59" cy="289" rx="5" ry="5" fill="#FFCE31" fill-opacity="0.2"/>
<ellipse cx="59" cy="307" rx="5" ry="5" fill="#FFCE31" fill-opacity="0.2"/>
<ellipse cx="77" cy="217" rx="5" ry="5" fill="#FFCE31" fill-opacity="0.2"/>
<ellipse cx="77" cy="235" rx="5" ry="5" fill="#FFCE31" fill-opacity="0.2"/>
<ellipse cx="77" cy="253" rx="5" ry="5" fill="#FFCE31" fill-opacity="0.2"/>
<ellipse cx="77" cy="271" rx="5" ry="5" fill="#FFCE31" fill-opacity="0.2"/>
<ellipse cx="77" cy="289" rx="5" ry="5" fill="#FFCE31" fill-opacity="0.2"/>
<ellipse cx="77" cy="307" rx="5" ry="5" fill="#FFCE31" fill-opacity="0.2"/>
<ellipse cx="95" cy="217" rx="5" ry="5" fill="#FFCE31" fill-opacity="0.2"/>
<ellipse cx="95" cy="235" rx="5" ry="5" fill="#FFCE31" fill-opacity="0.2"/>
<ellipse cx="95" cy="253" rx="5" ry="5" fill="#FFCE31" fill-opacity="0.2"/>
<ellipse cx="95" cy="271" rx="5" ry="5" fill="#FFCE31" fill-opacity="0.2"/>
<ellipse cx="95" cy="289" rx="5" ry="5" fill="#FFCE31" fill-opacity="0.2"/>
<ellipse cx="95" cy="307" rx="5" ry="5" fill="#FFCE31" fill-opacity="0.2"/>
<ellipse cx="113" cy="217" rx="5" ry="5" fill="#FFCE31" fill-opacity="0.2"/>
<ellipse cx="113" cy="235" rx="5" ry="5" fill="#FFCE31" fill-opacity="0.2"/>
<ellipse cx="113" cy="253" rx="5" ry="5" fill="#FFCE31" fill-opacity="0.2"/>
<ellipse cx="113" cy="271" rx="5" ry="5" fill="#FFCE31" fill-opacity="0.2"/>
<ellipse cx="113" cy="289" rx="5" ry="5" fill="#FFCE31" fill-opacity="0.2"/>
<ellipse cx="113" cy="307" rx="5" ry="5" fill="#FFCE31" fill-opacity="0.2"/>
<rect width="432" height="312" fill="black" fill-opacity="0.6"/>
<path d="M210.846 125.512L210.845 125.511C210.434 125.218 209.95 125.044 209.446 125.008C208.943 124.972 208.439 125.076 207.991 125.307C207.542 125.538 207.165 125.888 206.902 126.319C206.64 126.75 206.5 127.245 206.5 127.75V127.75V150.25V150.25C206.5 150.755 206.64 151.25 206.902 151.681C207.165 152.112 207.542 152.462 207.991 152.693C208.439 152.924 208.943 153.028 209.446 152.992C209.95 152.956 210.434 152.782 210.845 152.489L210.846 152.488L226.595 141.238C226.595 141.238 226.596 141.238 226.596 141.238C226.952 140.984 227.243 140.648 227.443 140.259C227.643 139.87 227.748 139.438 227.748 139C227.748 138.562 227.643 138.13 227.443 137.741C227.243 137.352 226.952 137.016 226.596 136.762C226.596 136.762 226.595 136.762 226.595 136.761L210.846 125.512ZM251.5 139C251.5 148.415 247.76 157.445 241.102 164.102C234.445 170.76 225.415 174.5 216 174.5C206.585 174.5 197.555 170.76 190.898 164.102C184.24 157.445 180.5 148.415 180.5 139C180.5 129.585 184.24 120.555 190.898 113.898C197.555 107.24 206.585 103.5 216 103.5C225.415 103.5 234.445 107.24 241.102 113.898C247.76 120.555 251.5 129.585 251.5 139Z" fill="white" stroke="white"/>
<path d="M153.832 199.952H141.448V195.44H139V201.944H153.832V199.952ZM156.112 205.568V203.552H136.432V205.568H145V207.536H138.784V209.432H151.216V211.088H138.856V216.656H154.36V214.736H141.328V212.84H153.688V207.536H147.472V205.568H156.112ZM161.27 204.944H168.518V197.096H158.798V199.088H166.094V202.952H158.846V211.76H160.55C164.342 211.76 167.15 211.64 170.39 211.088L170.174 209.072C167.198 209.576 164.606 209.696 161.27 209.72V204.944ZM173.558 195.128V203.264H169.766V205.304H173.558V216.872H176.03V195.128H173.558ZM187.524 196.928H185.028V200.504C185.028 204.56 182.916 208.736 179.532 210.392L181.092 212.36C183.564 211.088 185.34 208.568 186.3 205.496C187.236 208.4 188.988 210.776 191.436 212L192.9 210.008C189.588 208.472 187.524 204.536 187.524 200.504V196.928ZM195.18 195.128V202.256H190.548V204.272H195.18V216.872H197.676V195.128H195.18ZM208.825 201.632C208.825 199.736 210.217 198.488 212.137 198.488C214.009 198.488 215.401 199.736 215.401 201.632C215.401 203.504 214.009 204.752 212.137 204.752C210.217 204.752 208.825 203.504 208.825 201.632ZM221.665 200.168V203.096H217.537C217.681 202.64 217.753 202.16 217.753 201.632C217.753 201.104 217.681 200.624 217.561 200.168H221.665ZM221.665 205.088V207.944H224.137V195.152H221.665V198.152H216.433C215.425 197.072 213.913 196.4 212.137 196.4C208.897 196.4 206.473 198.56 206.473 201.632C206.473 204.68 208.897 206.84 212.137 206.84C213.889 206.84 215.425 206.192 216.433 205.088H221.665ZM216.913 214.904C213.841 214.904 212.041 214.112 212.041 212.624C212.041 211.184 213.841 210.368 216.913 210.368C220.009 210.368 221.785 211.184 221.785 212.624C221.785 214.112 220.009 214.904 216.913 214.904ZM216.913 208.424C212.401 208.424 209.617 209.984 209.617 212.624C209.617 215.288 212.401 216.848 216.913 216.848C221.425 216.848 224.233 215.288 224.233 212.624C224.233 209.984 221.425 208.424 216.913 208.424ZM240.383 205.088C237.167 204.032 235.319 201.392 235.319 198.608V196.28H232.823V198.416C232.823 201.536 230.975 204.488 227.567 205.664L228.887 207.632C231.383 206.72 233.159 204.848 234.119 202.496C235.031 204.536 236.759 206.192 239.087 207.032L240.383 205.088ZM237.719 214.904C234.695 214.904 232.943 214.16 232.943 212.768C232.943 211.424 234.695 210.656 237.719 210.656C240.743 210.656 242.495 211.424 242.495 212.768C242.495 214.16 240.743 214.904 237.719 214.904ZM237.719 208.712C233.255 208.712 230.495 210.224 230.495 212.768C230.495 215.336 233.255 216.848 237.719 216.848C242.207 216.848 244.943 215.336 244.943 212.768C244.943 210.224 242.207 208.712 237.719 208.712ZM244.703 200.528V195.152H242.231V208.184H244.703V202.568H247.775V200.528H244.703ZM258.948 202.256H269.22V205.808H258.948V202.256ZM265.308 212.168V207.8H271.668V196.616H269.22V200.264H258.948V196.616H256.5V207.8H262.836V212.168H254.292V214.208H273.924V212.168H265.308ZM277.114 197.456V199.472H284.842C284.41 204.464 281.722 208.28 276.034 211.016L277.354 212.984C284.794 209.384 287.386 203.912 287.386 197.456H277.114ZM291.298 195.176V216.848H293.77V195.176H291.298Z" fill="white"/>
</g>
<defs>
<linearGradient id="paint0_linear_645_13091" x1="260.574" y1="270.34" x2="236.382" y2="302.772" gradientUnits="userSpaceOnUse">
<stop offset="0.0129694" stop-color="#60B675"/>
<stop offset="1" stop-color="#2B4A33"/>
</linearGradient>
<linearGradient id="paint1_linear_645_13091" x1="234.977" y1="261.223" x2="232.972" y2="294.783" gradientUnits="userSpaceOnUse">
<stop stop-color="#428151"/>
<stop offset="0.680477" stop-color="#265832"/>
</linearGradient>
<linearGradient id="paint2_linear_645_13091" x1="247.929" y1="255.399" x2="242.338" y2="296.017" gradientUnits="userSpaceOnUse">
<stop stop-color="#53B96D"/>
<stop offset="1" stop-color="#5CDA7B"/>
</linearGradient>
<linearGradient id="paint3_linear_645_13091" x1="221.953" y1="270.34" x2="197.76" y2="302.772" gradientUnits="userSpaceOnUse">
<stop offset="0.0129694" stop-color="#60B675"/>
<stop offset="1" stop-color="#2B4A33"/>
</linearGradient>
<linearGradient id="paint4_linear_645_13091" x1="196.356" y1="261.223" x2="194.351" y2="294.783" gradientUnits="userSpaceOnUse">
<stop stop-color="#428151"/>
<stop offset="0.680477" stop-color="#265832"/>
</linearGradient>
<linearGradient id="paint5_linear_645_13091" x1="209.308" y1="255.399" x2="203.717" y2="296.017" gradientUnits="userSpaceOnUse">
<stop stop-color="#53B96D"/>
<stop offset="1" stop-color="#5CDA7B"/>
</linearGradient>
<linearGradient id="paint6_linear_645_13091" x1="207.826" y1="270.34" x2="232.019" y2="302.772" gradientUnits="userSpaceOnUse">
<stop offset="0.0129694" stop-color="#60B675"/>
<stop offset="1" stop-color="#2B4A33"/>
</linearGradient>
<linearGradient id="paint7_linear_645_13091" x1="233.423" y1="261.223" x2="235.428" y2="294.783" gradientUnits="userSpaceOnUse">
<stop stop-color="#428151"/>
<stop offset="0.680477" stop-color="#265832"/>
</linearGradient>
<linearGradient id="paint8_linear_645_13091" x1="220.471" y1="255.399" x2="226.062" y2="296.017" gradientUnits="userSpaceOnUse">
<stop stop-color="#53B96D"/>
<stop offset="1" stop-color="#5CDA7B"/>
</linearGradient>
<linearGradient id="paint9_linear_645_13091" x1="169.204" y1="270.34" x2="193.397" y2="302.772" gradientUnits="userSpaceOnUse">
<stop offset="0.0129694" stop-color="#60B675"/>
<stop offset="1" stop-color="#2B4A33"/>
</linearGradient>
<linearGradient id="paint10_linear_645_13091" x1="194.801" y1="261.223" x2="196.806" y2="294.783" gradientUnits="userSpaceOnUse">
<stop stop-color="#428151"/>
<stop offset="0.680477" stop-color="#265832"/>
</linearGradient>
<linearGradient id="paint11_linear_645_13091" x1="181.849" y1="255.399" x2="187.44" y2="296.017" gradientUnits="userSpaceOnUse">
<stop stop-color="#53B96D"/>
<stop offset="1" stop-color="#5CDA7B"/>
</linearGradient>
<linearGradient id="paint12_linear_645_13091" x1="211.251" y1="270.912" x2="222.993" y2="312.745" gradientUnits="userSpaceOnUse">
<stop offset="0.22228" stop-color="#E73728"/>
<stop offset="1" stop-color="#FF984E"/>
</linearGradient>
<clipPath id="clip0_645_13091">
<rect width="432" height="312" fill="white"/>
</clipPath>
<clipPath id="clip1_645_13091">
<rect width="158" height="158" fill="white" transform="translate(137 154)"/>
</clipPath>
</defs>
</svg>
